<svg width="779" height="350" viewBox="0 0 779 350" fill="none" xmlns="http://www.w3.org/2000/svg">
<path d="M701.549 133.586C701.204 132.523 700.907 131.605 700.594 130.639C695.616 115.278 690.623 99.8685 685.645 84.5074C684.361 80.5464 683.175 76.5539 681.615 72.7355C675.822 58.3327 661.211 53.2994 647.765 60.9659C639.478 65.6799 634.067 72.9844 629.905 81.3258C629.477 82.1582 629.05 82.9907 628.261 84.5275C626.539 79.2139 625.067 74.6732 623.565 70.0359C618.128 71.7976 612.983 73.4649 607.79 75.1479C616.509 102.054 625.165 128.767 633.837 155.528C639.176 153.798 644.321 152.13 649.709 150.384C649.318 149.177 648.989 148.162 648.645 147.1C642.806 129.082 636.952 111.016 631.161 92.982C630.833 91.9676 630.573 90.5038 631.049 89.6557C634.956 82.6781 639.838 76.5588 647.054 72.6728C653.409 69.2788 660.345 70.8209 664.27 76.8085C665.843 79.181 666.994 81.9041 667.871 84.6092C673.525 101.726 679.033 118.89 684.59 136.039C684.888 136.956 685.185 137.874 685.498 138.84C690.967 137.015 696.112 135.347 701.549 133.586Z" fill="white"/>
<path d="M484.931 168.231C484.395 171.874 484.04 175.246 483.394 178.551C479.787 197.708 458.598 205.642 443.522 195.368C430.048 186.23 423.291 172.993 423.208 156.847C423.146 145.07 430.293 136.669 441.66 133.679C448.824 131.785 454.087 134.456 456.681 141.302C456.933 141.914 457.153 142.591 457.356 143.219C459.292 148.036 463.802 150.364 468.878 149.146C477.446 147.117 480.388 138.157 474.581 131.658C471.056 127.73 466.396 125.93 461.322 125.333C450.594 124.006 440.413 126.024 431.23 131.615C407.591 145.894 402.595 179.967 420.955 200.706C434.067 215.513 454.047 219.074 471.09 209.601C484.226 202.301 492.233 185.135 490.007 168.668C488.332 168.464 486.688 168.356 484.931 168.231Z" fill="white"/>
<path d="M270.869 182.3C265.477 182.873 262.774 187.111 258.942 189.688C256.88 191.103 256.528 192.498 257.326 194.962C267.254 225.266 277.1 255.65 286.882 286.002C287.883 289.093 288.738 292.393 288.868 295.607C289.155 302.453 282.861 306.2 276.764 302.945C274.293 301.611 272.036 299.94 269.581 298.654C266.147 296.831 260.449 298.944 258.672 302.563C257.028 305.764 258.499 310.305 262.257 311.97C264.634 313.014 267.499 313.581 270.096 313.486C276.84 313.276 282.948 310.442 288.944 307.592C298.326 303.111 302.787 295.526 301.92 285.238C301.532 280.4 300.888 275.431 299.434 270.778C290.236 241.732 280.795 212.765 271.451 183.766C271.295 183.283 271.105 182.864 270.869 182.3Z" fill="white"/>
<path d="M730.027 35.4293C726.99 26.0581 724.063 17.025 721.136 7.9919C719.437 8.54243 717.981 9.01429 716.573 9.47044C716.722 10.7567 716.921 11.8666 716.942 12.9271C716.915 18.9676 717.403 25.108 716.554 31.0946C715.547 38.4136 711.092 43.7004 704.112 46.6563C703.124 47.0832 702.151 47.5584 701.179 48.0337C701.602 49.3379 701.977 50.4972 702.431 51.8981C707.091 50.3881 711.605 48.9253 716.313 47.3995C716.705 48.6072 717.002 49.525 717.315 50.4911C723.185 68.6055 729.007 86.7358 734.974 104.819C739.454 118.313 748.465 122.119 761.331 115.974C768.526 112.522 772.744 106.671 774.498 98.8431C772.778 98.3332 771.347 97.8895 769.818 97.4772C769.441 98.1333 769.097 98.7254 768.801 99.3017C766.503 103.302 763.221 105.754 758.404 105.286C753.747 104.82 751.552 101.688 750.175 97.4375C744.605 79.9196 738.906 62.4971 733.239 45.0106C732.942 44.0928 732.644 43.175 732.269 42.0157C738.53 39.9866 744.403 38.0833 750.277 36.1801C749.541 33.9098 748.868 31.8326 748.148 29.6106C742.113 31.5127 736.289 33.4002 730.027 35.4293Z" fill="white"/>
<path fill-rule="evenodd" clip-rule="evenodd" d="M185.928 181.856C185.521 180.6 185.255 179.778 184.973 178.909C180.95 166.494 176.992 154.113 172.872 141.73C172.324 140.039 172.415 138.995 173.99 137.898C176.248 136.259 178.219 134.232 180.493 132.641C181.889 131.655 183.59 130.943 185.225 130.36C185.71 130.203 186.607 130.82 187.07 131.257C187.454 131.613 187.479 132.352 187.667 132.932C200.362 172.107 213.057 211.283 225.752 250.459C226.77 253.598 226.77 253.598 223.663 254.605C219.489 255.958 215.314 257.31 210.849 258.758C209.8 255.521 208.861 252.623 207.749 249.193C206.868 250.279 206.345 250.983 205.773 251.702C199.195 259.705 191.361 265.82 181.032 268.206C171.398 270.421 162.567 267.998 154.752 262.417C124.4 240.92 130.375 200.765 156.16 184.67C164.907 179.22 174.167 177.34 184.111 181.377C184.544 181.557 184.995 181.624 185.928 181.856ZM198.529 220.741C196.463 214.365 194.51 208.006 192.298 201.676C188.046 189.55 175.399 183.293 163.937 187.647C157.397 190.14 153.717 195.336 151.719 201.749C149.371 209.235 149.732 216.804 151.723 224.273C154.664 235.169 160.023 244.589 169.278 251.465C173.873 254.887 179.029 257.059 184.886 256.762C193.793 256.278 199.731 251.098 204.092 243.866C204.748 242.746 204.911 240.932 204.553 239.66C202.696 233.269 200.564 227.021 198.529 220.741Z" fill="#D2030F"/>
<path fill-rule="evenodd" clip-rule="evenodd" d="M139.309 315.729C133.581 317.585 128.226 319.267 122.919 321.094C121.381 321.645 120.777 320.773 119.963 319.916C111.936 311.201 103.876 302.55 95.9306 293.756C94.6061 292.317 93.5461 291.859 91.6202 292.537C78.2063 296.991 64.8096 301.332 51.333 305.592C49.5371 306.174 48.7871 307.004 48.5912 308.883C47.1028 320.841 45.4861 332.735 43.9821 344.645C43.7894 346.202 43.2491 347.018 41.6646 347.424C39.4819 347.971 37.329 348.776 34.9506 349.547C35.0431 348.342 35.1324 347.459 35.2217 346.576C40.3337 307.235 45.4128 267.958 50.4762 228.632C50.6878 226.802 51.2938 225.858 53.1382 225.261C54.8856 224.694 55.7342 225.327 56.8035 226.475C83.6457 255.515 110.488 284.555 137.394 313.627C137.969 314.241 138.495 314.872 139.309 315.729ZM56.1127 250.826C53.9696 267.053 51.9454 282.655 49.9182 298.578C62.9751 294.347 75.5952 290.257 88.6521 286.026C77.7681 274.287 67.1721 262.775 56.1127 250.826Z" fill="#D2030F"/>
<path fill-rule="evenodd" clip-rule="evenodd" d="M701.55 133.585C696.114 135.346 690.969 137.014 685.435 138.807C685.138 137.889 684.84 136.971 684.527 136.005C678.97 118.857 673.462 101.693 667.808 84.5757C666.931 81.8706 665.78 79.1476 664.207 76.775C660.234 70.8032 653.282 69.2127 646.991 72.6393C639.775 76.5254 634.893 82.6447 630.986 89.6222C630.51 90.4704 630.77 91.9342 631.098 92.9486C636.889 110.982 642.743 129.048 648.582 147.066C648.911 148.081 649.255 149.143 649.646 150.351C644.307 152.081 639.113 153.764 633.774 155.494C625.118 128.782 616.446 102.021 607.727 75.1145C612.969 73.4157 618.065 71.7641 623.502 70.0024C625.004 74.6398 626.476 79.1805 628.198 84.494C628.987 82.9572 629.415 82.1248 629.842 81.2923C634.004 72.951 639.43 65.6948 647.702 60.9324C661.148 53.2659 675.71 58.315 681.553 72.7021C683.112 76.5204 684.298 80.5129 685.582 84.474C690.56 99.8351 695.553 115.244 700.531 130.606C700.908 131.604 701.206 132.522 701.55 133.585Z" fill="#D2030F"/>
<path fill-rule="evenodd" clip-rule="evenodd" d="M391.872 233.937C386.533 235.668 381.339 237.351 375.806 239.144C374.663 235.618 373.567 232.236 372.284 228.275C370.434 231.01 368.961 233.249 367.487 235.488C363.347 241.58 358.139 246.363 351.176 249.207C341.946 252.999 332.846 251.731 326.778 245.584C320.246 239 318.506 228.995 322.302 220.185C324.629 214.787 328.365 210.427 332.517 206.359C339.828 199.293 348.365 193.858 356.853 188.438C358.411 187.453 358.969 186.525 358.196 184.8C356.253 180.626 354.797 176.134 352.352 172.229C348.953 166.871 343.631 165.18 337.454 166.808C335.029 167.434 332.52 168.3 330.363 169.586C325.708 172.269 324.085 176.531 325.276 181.697C325.71 183.531 326.225 185.286 326.561 187.152C327.638 192.461 325.75 195.902 321.059 197.315C316.707 198.619 312.262 196.322 310.338 191.875C308.573 187.75 308.759 183.526 311.133 179.928C313.474 176.393 316.251 172.878 319.503 170.17C327.861 163.191 337.832 159.533 348.633 158.435C361.354 157.141 368.597 161.947 372.51 174.023C378.789 193.233 384.986 212.523 391.216 231.748C391.533 232.393 391.655 233.101 391.872 233.937ZM360.561 191.934C356.186 195.647 352.171 198.816 348.363 202.292C343.448 206.821 339.173 211.836 336.644 218.1C334.312 223.98 335.664 229.146 340.058 233.434C344.371 237.641 349.434 239.363 355.409 236.946C362.194 234.214 366.072 228.473 369.998 222.877C370.211 222.541 370.202 221.851 370.061 221.416C367.01 211.836 363.911 202.271 360.561 191.934Z" fill="#D2030F"/>
<path fill-rule="evenodd" clip-rule="evenodd" d="M586.487 117.653C565.518 124.448 545.569 130.913 525.328 137.472C530.291 151.13 537.454 162.313 552.219 166.496C558.652 168.308 564.953 167.227 570.709 164.134C581.588 158.313 588.32 149.46 589.573 136.777C590.395 136.831 591.201 136.836 592.039 136.938C592.764 137.024 593.505 137.157 594.471 137.325C594.474 138.658 594.558 139.912 594.417 141.132C592.539 158.341 584.379 171.394 568.292 178.689C549.823 187.076 525.394 178.392 516.46 160.256C509.581 146.311 507.918 131.744 514.271 117.088C525.592 90.9479 561.792 85.142 579.5 106.52C582.194 109.703 583.995 113.603 586.487 117.653ZM523.508 130.696C536.904 126.355 550.156 122.06 563.407 117.766C560.533 106.581 547.845 99.5365 536.732 102.817C526.139 105.877 519.701 119.279 523.508 130.696Z" fill="#D2030F"/>
<path fill-rule="evenodd" clip-rule="evenodd" d="M484.931 168.231C486.688 168.356 488.332 168.464 489.976 168.572C492.201 185.038 484.242 202.189 471.058 209.504C454.063 218.961 434.035 215.417 420.923 200.61C402.579 179.919 407.575 145.846 431.198 131.519C440.445 125.96 450.562 123.909 461.29 125.237C466.38 125.882 471.024 127.634 474.55 131.562C480.356 138.061 477.365 147.037 468.846 149.05C463.77 150.268 459.261 147.939 457.324 143.122C457.072 142.51 456.853 141.834 456.65 141.206C454.056 134.36 448.792 131.689 441.629 133.583C430.261 136.573 423.114 144.974 423.176 156.75C423.275 172.945 430.016 186.133 443.49 195.272C458.614 205.53 479.771 197.66 483.363 178.454C484.039 175.246 484.395 171.874 484.931 168.231Z" fill="#D2030F"/>
<path fill-rule="evenodd" clip-rule="evenodd" d="M270.869 182.3C271.105 182.864 271.295 183.283 271.451 183.766C280.795 212.765 290.236 241.732 299.434 270.779C300.888 275.432 301.532 280.4 301.92 285.239C302.739 295.542 298.326 303.111 288.943 307.592C282.948 310.443 276.84 313.276 270.096 313.486C267.499 313.581 264.634 313.015 262.257 311.97C258.499 310.305 257.028 305.765 258.672 302.563C260.498 298.929 266.147 296.831 269.581 298.654C272.036 299.941 274.342 301.595 276.764 302.945C282.797 306.168 289.155 302.453 288.868 295.607C288.738 292.393 287.883 289.094 286.882 286.002C277.1 255.651 267.302 225.251 257.326 194.962C256.528 192.499 256.88 191.104 258.942 189.688C262.725 187.128 265.492 182.922 270.869 182.3Z" fill="#D2030F"/>
<path fill-rule="evenodd" clip-rule="evenodd" d="M730.028 35.4284C736.29 33.3994 742.114 31.5118 748.085 29.5771C748.805 31.7992 749.462 33.828 750.214 36.1467C744.389 38.0342 738.516 39.9374 732.206 41.9822C732.581 43.1415 732.879 44.0593 733.176 44.9771C738.843 62.4637 744.542 79.8862 750.112 97.4041C751.489 101.655 753.684 104.787 758.341 105.253C763.11 105.736 766.392 103.284 768.738 99.2683C769.082 98.6762 769.427 98.0842 769.755 97.4438C771.299 97.9044 772.73 98.3481 774.435 98.8097C772.681 106.638 768.463 112.488 761.268 115.941C748.402 122.085 739.407 118.328 734.911 104.785C728.944 86.7023 723.122 68.5721 717.252 50.4576C716.939 49.4915 716.642 48.5737 716.251 47.3661C711.542 48.8918 707.077 50.3389 702.368 51.8647C701.914 50.4638 701.554 49.3528 701.116 48.0002C702.088 47.525 703.061 47.0498 704.049 46.6228C711.029 43.667 715.5 38.4284 716.491 31.0612C717.292 25.0903 716.804 18.9499 716.879 12.8936C716.906 11.8174 716.659 10.7233 716.51 9.437C717.918 8.98085 719.325 8.5247 721.073 7.95845C724.049 16.9758 726.991 26.0572 730.028 35.4284Z" fill="#D2030F"/>
</svg>
