<svg width="137" height="52" viewBox="0 0 137 52" fill="none" xmlns="http://www.w3.org/2000/svg">
<mask id="mask0" mask-type="alpha" maskUnits="userSpaceOnUse" x="0" y="0" width="137" height="52">
<path d="M20.1206 9.73932V7.73802H19.4715V6.40381H18.8225V5.06961H18.1734V4.40251H17.5244V3.73541H16.8753V3.06831H15.5772V2.40121H14.2791V1.73411H12.332V1.067H0V24.4155H12.332V23.7484H14.2791V23.0813H15.5772V22.4142H16.8753V21.7471H17.5244V21.08H18.1734V20.4129H18.8225V19.0787H19.4715V17.7445H20.1206V15.7432H20.7696V9.73932H20.1206ZM14.2791 17.0774H13.6301V19.0787H12.981V20.4129H12.332V21.08H11.0339V21.7471H5.84145V10.4064C4.77052 10.4064 3.8943 9.50583 3.8943 8.40512C3.8943 7.3044 4.77052 6.40381 5.84145 6.40381V3.73541H11.0339V4.40251H12.332V5.06961H12.981V6.40381H13.6301V8.40512H14.2791V17.0774ZM7.7886 8.40512C7.7886 7.3044 6.91239 6.40381 5.84145 6.40381V10.4064C6.91239 10.4064 7.7886 9.50583 7.7886 8.40512Z" fill="black"/>
<path d="M22.7231 1.067V24.4155H28.5645V1.067H22.7231ZM22.7231 13.7419C21.6522 13.7419 20.7759 12.8413 20.7759 11.7406C20.7759 10.6399 21.6522 9.73932 22.7231 9.73932C23.794 9.73932 24.6702 10.6399 24.6702 11.7406C24.6702 12.8413 23.794 13.7419 22.7231 13.7419Z" fill="black"/>
<path d="M29.855 9.07222H30.5041V11.0735H31.1531V12.4077H31.8022V13.0748H32.4512V13.7419H33.1003V14.409H34.3984V15.0761H35.6965V15.7432H36.9946V16.4103H38.2927V17.0774H38.9417V18.4116H39.5908V21.08H38.9417V22.4142H36.9946V21.08H36.3455V17.7445H31.1531V20.4129H31.8022V21.7471H32.4512V22.4142H33.1003V23.0813H33.7493V23.7484H35.0474V24.4155H36.9946V25.0826H38.9417V24.4155H40.8889V23.7484H42.187V23.0813H42.836V22.4142H43.4851V21.7471H44.1341V20.4129H44.7832V18.4116H45.4323V16.4103H44.7832V14.409H44.1341V13.0748H43.4851V12.4077H42.836V11.7406H42.187V11.0735H40.8889V10.4064H39.5908V9.73932H38.2927V9.07222H36.9946V8.40512H36.3455V7.07091H35.6965V5.06961H36.3455V3.73541H36.9946V3.06831H38.9417V3.73541H39.5908V5.06961H40.2398V8.40512H45.4323V5.06961H44.7832V3.73541H44.1341V3.06831H43.4851V2.40121H42.836V1.73411H41.5379V1.067H39.5908V0.399902H36.3455V1.067H34.3984V1.73411H33.1003V2.40121H32.4512V3.06831H31.8022V3.73541H31.1531V5.06961H30.5041V7.07091H29.855V9.07222ZM43.4851 14.409C42.4142 14.409 41.5379 13.5084 41.5379 12.4077C41.5379 11.307 42.4142 10.4064 43.4851 10.4064C44.556 10.4064 45.4323 11.307 45.4323 12.4077C45.4323 13.5084 44.556 14.409 43.4851 14.409Z" fill="black"/>
<path d="M47.3794 24.4155H64.2547V18.4116H49.9756V15.0761H61.6585V10.4064H49.9756V7.07091H64.2547V1.067H47.3794V24.4155ZM57.1152 12.4077C56.0442 12.4077 55.168 11.5071 55.168 10.4064C55.168 9.3057 56.0442 8.40512 57.1152 8.40512C58.1861 8.40512 59.0623 9.3057 59.0623 10.4064C59.0623 11.5071 58.1861 12.4077 57.1152 12.4077Z" fill="black"/>
<path d="M93.4493 24.4155V1.067H85.6607V2.40121H85.0116V4.40251H84.3626V6.40381H83.7135V8.40512H83.0645V10.4064H82.4154V12.4077H81.7664V14.409H81.1173V16.4103H80.4683V18.4116H79.8192V16.4103H79.1702V14.409H78.5211V12.4077H77.8721V10.4064H77.223V8.40512H76.574V6.40381H75.9249V4.40251H75.2759V2.40121H74.6268V1.067H66.8382V24.4155H72.6797V5.06961H73.3287V6.40381H73.9778V8.40512H74.6268V10.4064H75.2759V12.4077H75.9249V14.409H76.574V16.4103H77.223V18.4116H77.8721V20.4129H78.5211V22.4142H79.1702V24.4155H84.3626V22.4142H85.0116V20.4129H85.6607V18.4116H86.3097V16.4103H86.9588V14.409H87.6078V12.4077H88.2569V10.4064H88.9059V8.40512H89.555V6.40381H90.204V5.06961H90.8531V24.4155H93.4493ZM72.6797 21.7471C71.6087 21.7471 70.7325 20.8466 70.7325 19.7458C70.7325 18.6451 71.6087 17.7445 72.6797 17.7445C73.7506 17.7445 74.6268 18.6451 74.6268 19.7458C74.6268 20.8466 73.7506 21.7471 72.6797 21.7471Z" fill="black"/>
<path d="M96.0582 1.067V24.4155H106.443V23.7484H108.39V23.0813H109.688V22.4142H110.337V21.7471H110.986V20.4129H111.635V17.7445H110.986V16.4103H110.337V15.7432H109.688V15.0761H107.741V14.409H105.794V13.0748H107.741V12.4077H109.688V11.7406H110.986V11.0735H111.635V9.73932H112.284V5.06961H111.635V3.73541H110.986V3.06831H110.337V2.40121H109.039V1.73411H107.092V1.067H96.0582ZM96.0582 7.73802C94.9872 7.73802 94.111 6.83743 94.111 5.73671C94.111 4.63599 94.9872 3.73541 96.0582 3.73541C97.1291 3.73541 98.0053 4.63599 98.0053 5.73671C98.0053 6.83743 97.1291 7.73802 96.0582 7.73802ZM101.9 3.73541H103.847V4.40251H105.145V5.73671H105.794V9.73932H105.145V11.0735H103.847V11.7406H101.9V3.73541ZM101.9 14.409H103.198V15.0761H104.496V16.4103H105.145V19.7458H104.496V21.08H103.198V21.7471H101.9V14.409Z" fill="black"/>
<path d="M113.569 9.07222V16.4103H114.218V18.4116H114.867V19.7458H115.516V21.08H116.165V21.7471H116.814V22.4142H117.463V23.0813H118.761V23.7484H120.059V24.4155H122.006V25.0826H127.848V24.4155H129.795V23.7484H131.093V23.0813H132.391V22.4142H133.04V21.7471H133.689V21.08H134.338V19.7458H134.987V18.4116H135.636V16.4103H136.285V9.07222H135.636V7.07091H134.987V5.73671H134.338V4.40251H133.689V3.73541H133.04V3.06831H132.391V2.40121H131.093V1.73411H129.795V1.067H127.848V0.399902H122.006V1.067H120.059V1.73411H118.761V2.40121H117.463V3.06831H116.814V3.73541H116.165V4.40251H115.516V5.73671H114.867V7.07091H114.218V9.07222H113.569ZM123.304 22.4142V21.7471H122.006V21.08H121.357V19.7458H120.708V17.7445H120.059V7.73802H120.708V5.73671H121.357V4.40251H122.006V3.73541H123.304V3.06831H126.55V3.73541H127.848V4.40251H128.497V5.73671H129.146V7.73802H129.795V17.7445H129.146V19.7458H128.497V21.08H127.848V21.7471H126.55V22.4142H123.304ZM120.059 13.0748C118.988 13.0748 118.112 12.1742 118.112 11.0735C118.112 9.9728 118.988 9.07222 120.059 9.07222C121.13 9.07222 122.006 9.9728 122.006 11.0735C122.006 12.1742 121.13 13.0748 120.059 13.0748Z" fill="black"/>
<path d="M28.2337 36.9237V34.9224H27.5846V33.5882H26.9356V32.254H26.2865V31.5869H25.6375V30.9198H24.9884V30.2527H23.6903V29.5856H22.3922V28.9185H20.4451V28.2514H8.11313V51.5999H20.4451V50.9328H22.3922V50.2657H23.6903V49.5986H24.9884V48.9315H25.6375V48.2644H26.2865V47.5973H26.9356V46.2631H27.5846V44.9289H28.2337V42.9276H28.8827V36.9237H28.2337ZM22.3922 44.2618H21.7432V46.2631H21.0941V47.5973H20.4451V48.2644H19.147V48.9315H13.9546V37.5908C12.8836 37.5908 12.0074 36.6902 12.0074 35.5895C12.0074 34.4888 12.8836 33.5882 13.9546 33.5882V30.9198H19.147V31.5869H20.4451V32.254H21.0941V33.5882H21.7432V35.5895H22.3922V44.2618ZM15.9017 35.5895C15.9017 34.4888 15.0255 33.5882 13.9546 33.5882V37.5908C15.0255 37.5908 15.9017 36.6902 15.9017 35.5895Z" fill="black"/>
<path d="M30.8362 28.2514V51.5999H36.6777V28.2514H30.8362ZM30.8362 40.9263C29.7653 40.9263 28.8891 40.0257 28.8891 38.925C28.8891 37.8243 29.7653 36.9237 30.8362 36.9237C31.9072 36.9237 32.7834 37.8243 32.7834 38.925C32.7834 40.0257 31.9072 40.9263 30.8362 40.9263Z" fill="black"/>
<path d="M65.8773 51.5999V28.2514H58.0887V29.5856H57.4397V31.5869H56.7906V33.5882H56.1416V35.5895H55.4925V37.5908H54.8435V39.5921H54.1944V41.5934H53.5454V43.5947H52.8963V45.596H52.2473V43.5947H51.5982V41.5934H50.9492V39.5921H50.3001V37.5908H49.6511V35.5895H49.002V33.5882H48.353V31.5869H47.7039V29.5856H47.0549V28.2514H39.2663V51.5999H45.1077V32.254H45.7568V33.5882H46.4058V35.5895H47.0549V37.5908H47.7039V39.5921H48.353V41.5934H49.002V43.5947H49.6511V45.596H50.3001V47.5973H50.9492V49.5986H51.5982V51.5999H56.7906V49.5986H57.4397V47.5973H58.0887V45.596H58.7378V43.5947H59.3868V41.5934H60.0359V39.5921H60.6849V37.5908H61.334V35.5895H61.983V33.5882H62.6321V32.254H63.2811V51.5999H65.8773ZM45.1077 48.9315C44.0368 48.9315 43.1606 48.0309 43.1606 46.9302C43.1606 45.8295 44.0368 44.9289 45.1077 44.9289C46.1787 44.9289 47.0549 45.8295 47.0549 46.9302C47.0549 48.0309 46.1787 48.9315 45.1077 48.9315Z" fill="black"/>
<path d="M68.4862 51.5999H85.3615V45.596H71.0824V42.2605H82.7653V37.5908H71.0824V34.2553H85.3615V28.2514H68.4862V51.5999ZM78.222 39.5921C77.151 39.5921 76.2748 38.6915 76.2748 37.5908C76.2748 36.4901 77.151 35.5895 78.222 35.5895C79.2929 35.5895 80.1691 36.4901 80.1691 37.5908C80.1691 38.6915 79.2929 39.5921 78.222 39.5921Z" fill="black"/>
<path d="M106.768 28.2514H100.926V46.2631H100.277V44.2618H99.6279V42.2605H98.9789V40.2592H98.3298V38.2579H97.6808V36.2566H97.0317V34.2553H96.3827V32.254H95.7336V30.2527H95.0846V28.2514H87.945V51.5999H93.7865V34.2553H94.4355V36.2566H95.0846V38.2579H95.7336V40.2592H96.3827V42.2605H97.0317V44.2618H97.6808V46.2631H98.3298V48.2644H98.9789V50.2657H99.6279V51.5999H106.768V28.2514ZM100.926 34.2553C99.8551 34.2553 98.9789 33.3547 98.9789 32.254C98.9789 31.1533 99.8551 30.2527 100.926 30.2527C101.997 30.2527 102.873 31.1533 102.873 32.254C102.873 33.3547 101.997 34.2553 100.926 34.2553Z" fill="black"/>
<path d="M108.72 28.2514V34.2553H117.157V51.5999H119.754V34.2553H122.35C122.35 33.1546 123.226 32.254 124.297 32.254C125.368 32.254 126.244 33.1546 126.244 34.2553H128.191V28.2514H108.72ZM124.297 36.2566C125.368 36.2566 126.244 35.356 126.244 34.2553H122.35C122.35 35.356 123.226 36.2566 124.297 36.2566Z" fill="black"/>
</mask>
<g mask="url(#mask0)">
<rect x="67.3501" y="-3.2002" width="68.5389" height="54.8" fill="#C4C4C4"/>
</g>
<mask id="mask1" mask-type="alpha" maskUnits="userSpaceOnUse" x="0" y="0" width="137" height="52">
<path d="M20.1206 9.73932V7.73802H19.4715V6.40381H18.8225V5.06961H18.1734V4.40251H17.5244V3.73541H16.8753V3.06831H15.5772V2.40121H14.2791V1.73411H12.332V1.067H0V24.4155H12.332V23.7484H14.2791V23.0813H15.5772V22.4142H16.8753V21.7471H17.5244V21.08H18.1734V20.4129H18.8225V19.0787H19.4715V17.7445H20.1206V15.7432H20.7696V9.73932H20.1206ZM14.2791 17.0774H13.6301V19.0787H12.981V20.4129H12.332V21.08H11.0339V21.7471H5.84145V10.4064C4.77052 10.4064 3.8943 9.50583 3.8943 8.40512C3.8943 7.3044 4.77052 6.40381 5.84145 6.40381V3.73541H11.0339V4.40251H12.332V5.06961H12.981V6.40381H13.6301V8.40512H14.2791V17.0774ZM7.7886 8.40512C7.7886 7.3044 6.91239 6.40381 5.84145 6.40381V10.4064C6.91239 10.4064 7.7886 9.50583 7.7886 8.40512Z" fill="black"/>
<path d="M22.7231 1.067V24.4155H28.5645V1.067H22.7231ZM22.7231 13.7419C21.6522 13.7419 20.7759 12.8413 20.7759 11.7406C20.7759 10.6399 21.6522 9.73932 22.7231 9.73932C23.794 9.73932 24.6702 10.6399 24.6702 11.7406C24.6702 12.8413 23.794 13.7419 22.7231 13.7419Z" fill="black"/>
<path d="M29.855 9.07222H30.5041V11.0735H31.1531V12.4077H31.8022V13.0748H32.4512V13.7419H33.1003V14.409H34.3984V15.0761H35.6965V15.7432H36.9946V16.4103H38.2927V17.0774H38.9417V18.4116H39.5908V21.08H38.9417V22.4142H36.9946V21.08H36.3455V17.7445H31.1531V20.4129H31.8022V21.7471H32.4512V22.4142H33.1003V23.0813H33.7493V23.7484H35.0474V24.4155H36.9946V25.0826H38.9417V24.4155H40.8889V23.7484H42.187V23.0813H42.836V22.4142H43.4851V21.7471H44.1341V20.4129H44.7832V18.4116H45.4323V16.4103H44.7832V14.409H44.1341V13.0748H43.4851V12.4077H42.836V11.7406H42.187V11.0735H40.8889V10.4064H39.5908V9.73932H38.2927V9.07222H36.9946V8.40512H36.3455V7.07091H35.6965V5.06961H36.3455V3.73541H36.9946V3.06831H38.9417V3.73541H39.5908V5.06961H40.2398V8.40512H45.4323V5.06961H44.7832V3.73541H44.1341V3.06831H43.4851V2.40121H42.836V1.73411H41.5379V1.067H39.5908V0.399902H36.3455V1.067H34.3984V1.73411H33.1003V2.40121H32.4512V3.06831H31.8022V3.73541H31.1531V5.06961H30.5041V7.07091H29.855V9.07222ZM43.4851 14.409C42.4142 14.409 41.5379 13.5084 41.5379 12.4077C41.5379 11.307 42.4142 10.4064 43.4851 10.4064C44.556 10.4064 45.4323 11.307 45.4323 12.4077C45.4323 13.5084 44.556 14.409 43.4851 14.409Z" fill="black"/>
<path d="M47.3794 24.4155H64.2547V18.4116H49.9756V15.0761H61.6585V10.4064H49.9756V7.07091H64.2547V1.067H47.3794V24.4155ZM57.1152 12.4077C56.0442 12.4077 55.168 11.5071 55.168 10.4064C55.168 9.3057 56.0442 8.40512 57.1152 8.40512C58.1861 8.40512 59.0623 9.3057 59.0623 10.4064C59.0623 11.5071 58.1861 12.4077 57.1152 12.4077Z" fill="black"/>
<path d="M93.4493 24.4155V1.067H85.6607V2.40121H85.0116V4.40251H84.3626V6.40381H83.7135V8.40512H83.0645V10.4064H82.4154V12.4077H81.7664V14.409H81.1173V16.4103H80.4683V18.4116H79.8192V16.4103H79.1702V14.409H78.5211V12.4077H77.8721V10.4064H77.223V8.40512H76.574V6.40381H75.9249V4.40251H75.2759V2.40121H74.6268V1.067H66.8382V24.4155H72.6797V5.06961H73.3287V6.40381H73.9778V8.40512H74.6268V10.4064H75.2759V12.4077H75.9249V14.409H76.574V16.4103H77.223V18.4116H77.8721V20.4129H78.5211V22.4142H79.1702V24.4155H84.3626V22.4142H85.0116V20.4129H85.6607V18.4116H86.3097V16.4103H86.9588V14.409H87.6078V12.4077H88.2569V10.4064H88.9059V8.40512H89.555V6.40381H90.204V5.06961H90.8531V24.4155H93.4493ZM72.6797 21.7471C71.6087 21.7471 70.7325 20.8466 70.7325 19.7458C70.7325 18.6451 71.6087 17.7445 72.6797 17.7445C73.7506 17.7445 74.6268 18.6451 74.6268 19.7458C74.6268 20.8466 73.7506 21.7471 72.6797 21.7471Z" fill="black"/>
<path d="M96.0582 1.067V24.4155H106.443V23.7484H108.39V23.0813H109.688V22.4142H110.337V21.7471H110.986V20.4129H111.635V17.7445H110.986V16.4103H110.337V15.7432H109.688V15.0761H107.741V14.409H105.794V13.0748H107.741V12.4077H109.688V11.7406H110.986V11.0735H111.635V9.73932H112.284V5.06961H111.635V3.73541H110.986V3.06831H110.337V2.40121H109.039V1.73411H107.092V1.067H96.0582ZM96.0582 7.73802C94.9872 7.73802 94.111 6.83743 94.111 5.73671C94.111 4.63599 94.9872 3.73541 96.0582 3.73541C97.1291 3.73541 98.0053 4.63599 98.0053 5.73671C98.0053 6.83743 97.1291 7.73802 96.0582 7.73802ZM101.9 3.73541H103.847V4.40251H105.145V5.73671H105.794V9.73932H105.145V11.0735H103.847V11.7406H101.9V3.73541ZM101.9 14.409H103.198V15.0761H104.496V16.4103H105.145V19.7458H104.496V21.08H103.198V21.7471H101.9V14.409Z" fill="black"/>
<path d="M113.569 9.07222V16.4103H114.218V18.4116H114.867V19.7458H115.516V21.08H116.165V21.7471H116.814V22.4142H117.463V23.0813H118.761V23.7484H120.059V24.4155H122.006V25.0826H127.848V24.4155H129.795V23.7484H131.093V23.0813H132.391V22.4142H133.04V21.7471H133.689V21.08H134.338V19.7458H134.987V18.4116H135.636V16.4103H136.285V9.07222H135.636V7.07091H134.987V5.73671H134.338V4.40251H133.689V3.73541H133.04V3.06831H132.391V2.40121H131.093V1.73411H129.795V1.067H127.848V0.399902H122.006V1.067H120.059V1.73411H118.761V2.40121H117.463V3.06831H116.814V3.73541H116.165V4.40251H115.516V5.73671H114.867V7.07091H114.218V9.07222H113.569ZM123.304 22.4142V21.7471H122.006V21.08H121.357V19.7458H120.708V17.7445H120.059V7.73802H120.708V5.73671H121.357V4.40251H122.006V3.73541H123.304V3.06831H126.55V3.73541H127.848V4.40251H128.497V5.73671H129.146V7.73802H129.795V17.7445H129.146V19.7458H128.497V21.08H127.848V21.7471H126.55V22.4142H123.304ZM120.059 13.0748C118.988 13.0748 118.112 12.1742 118.112 11.0735C118.112 9.9728 118.988 9.07222 120.059 9.07222C121.13 9.07222 122.006 9.9728 122.006 11.0735C122.006 12.1742 121.13 13.0748 120.059 13.0748Z" fill="black"/>
<path d="M28.2337 36.9237V34.9224H27.5846V33.5882H26.9356V32.254H26.2865V31.5869H25.6375V30.9198H24.9884V30.2527H23.6903V29.5856H22.3922V28.9185H20.4451V28.2514H8.11313V51.5999H20.4451V50.9328H22.3922V50.2657H23.6903V49.5986H24.9884V48.9315H25.6375V48.2644H26.2865V47.5973H26.9356V46.2631H27.5846V44.9289H28.2337V42.9276H28.8827V36.9237H28.2337ZM22.3922 44.2618H21.7432V46.2631H21.0941V47.5973H20.4451V48.2644H19.147V48.9315H13.9546V37.5908C12.8836 37.5908 12.0074 36.6902 12.0074 35.5895C12.0074 34.4888 12.8836 33.5882 13.9546 33.5882V30.9198H19.147V31.5869H20.4451V32.254H21.0941V33.5882H21.7432V35.5895H22.3922V44.2618ZM15.9017 35.5895C15.9017 34.4888 15.0255 33.5882 13.9546 33.5882V37.5908C15.0255 37.5908 15.9017 36.6902 15.9017 35.5895Z" fill="black"/>
<path d="M30.8362 28.2514V51.5999H36.6777V28.2514H30.8362ZM30.8362 40.9263C29.7653 40.9263 28.8891 40.0257 28.8891 38.925C28.8891 37.8243 29.7653 36.9237 30.8362 36.9237C31.9072 36.9237 32.7834 37.8243 32.7834 38.925C32.7834 40.0257 31.9072 40.9263 30.8362 40.9263Z" fill="black"/>
<path d="M65.8773 51.5999V28.2514H58.0887V29.5856H57.4397V31.5869H56.7906V33.5882H56.1416V35.5895H55.4925V37.5908H54.8435V39.5921H54.1944V41.5934H53.5454V43.5947H52.8963V45.596H52.2473V43.5947H51.5982V41.5934H50.9492V39.5921H50.3001V37.5908H49.6511V35.5895H49.002V33.5882H48.353V31.5869H47.7039V29.5856H47.0549V28.2514H39.2663V51.5999H45.1077V32.254H45.7568V33.5882H46.4058V35.5895H47.0549V37.5908H47.7039V39.5921H48.353V41.5934H49.002V43.5947H49.6511V45.596H50.3001V47.5973H50.9492V49.5986H51.5982V51.5999H56.7906V49.5986H57.4397V47.5973H58.0887V45.596H58.7378V43.5947H59.3868V41.5934H60.0359V39.5921H60.6849V37.5908H61.334V35.5895H61.983V33.5882H62.6321V32.254H63.2811V51.5999H65.8773ZM45.1077 48.9315C44.0368 48.9315 43.1606 48.0309 43.1606 46.9302C43.1606 45.8295 44.0368 44.9289 45.1077 44.9289C46.1787 44.9289 47.0549 45.8295 47.0549 46.9302C47.0549 48.0309 46.1787 48.9315 45.1077 48.9315Z" fill="black"/>
<path d="M68.4862 51.5999H85.3615V45.596H71.0824V42.2605H82.7653V37.5908H71.0824V34.2553H85.3615V28.2514H68.4862V51.5999ZM78.222 39.5921C77.151 39.5921 76.2748 38.6915 76.2748 37.5908C76.2748 36.4901 77.151 35.5895 78.222 35.5895C79.2929 35.5895 80.1691 36.4901 80.1691 37.5908C80.1691 38.6915 79.2929 39.5921 78.222 39.5921Z" fill="black"/>
<path d="M106.768 28.2514H100.926V46.2631H100.277V44.2618H99.6279V42.2605H98.9789V40.2592H98.3298V38.2579H97.6808V36.2566H97.0317V34.2553H96.3827V32.254H95.7336V30.2527H95.0846V28.2514H87.945V51.5999H93.7865V34.2553H94.4355V36.2566H95.0846V38.2579H95.7336V40.2592H96.3827V42.2605H97.0317V44.2618H97.6808V46.2631H98.3298V48.2644H98.9789V50.2657H99.6279V51.5999H106.768V28.2514ZM100.926 34.2553C99.8551 34.2553 98.9789 33.3547 98.9789 32.254C98.9789 31.1533 99.8551 30.2527 100.926 30.2527C101.997 30.2527 102.873 31.1533 102.873 32.254C102.873 33.3547 101.997 34.2553 100.926 34.2553Z" fill="black"/>
<path d="M108.72 28.2514V34.2553H117.157V51.5999H119.754V34.2553H122.35C122.35 33.1546 123.226 32.254 124.297 32.254C125.368 32.254 126.244 33.1546 126.244 34.2553H128.191V28.2514H108.72ZM124.297 36.2566C125.368 36.2566 126.244 35.356 126.244 34.2553H122.35C122.35 35.356 123.226 36.2566 124.297 36.2566Z" fill="black"/>
</mask>
<g mask="url(#mask1)">
<rect y="-3.2002" width="68.5388" height="54.8" fill="#C4C4C4"/>
</g>
</svg>
