<svg width="200" height="19" viewBox="0 0 200 19" fill="none" xmlns="http://www.w3.org/2000/svg">
<path d="M15.7559 7V5.5H15.2559V4.5H14.7559V3.5H14.2559V3H13.7559V2.5H13.2559V2H12.2559V1.5H11.2559V1H9.75586V0.499999H0.255859V18H9.75586V17.5H11.2559V17H12.2559V16.5H13.2559V16H13.7559V15.5H14.2559V15H14.7559V14H15.2559V13H15.7559V11.5H16.2559V7H15.7559ZM11.2559 12.5H10.7559V14H10.2559V15H9.75586V15.5H8.75586V16H4.75586V7.5C3.93086 7.5 3.25586 6.825 3.25586 6C3.25586 5.175 3.93086 4.5 4.75586 4.5V2.5H8.75586V3H9.75586V3.5H10.2559V4.5H10.7559V6H11.2559V12.5ZM6.25586 6C6.25586 5.175 5.58086 4.5 4.75586 4.5V7.5C5.58086 7.5 6.25586 6.825 6.25586 6ZM17.7607 0.499999V18H22.2607V0.499999H17.7607ZM17.7607 10C16.9357 10 16.2607 9.325 16.2607 8.5C16.2607 7.675 16.9357 7 17.7607 7C18.5857 7 19.2607 7.675 19.2607 8.5C19.2607 9.325 18.5857 10 17.7607 10ZM23.2549 6.5H23.7549V8H24.2549V9H24.7549V9.5H25.2549V10H25.7549V10.5H26.7549V11H27.7549V11.5H28.7549V12H29.7549V12.5H30.2549V13.5H30.7549V15.5H30.2549V16.5H28.7549V15.5H28.2549V13H24.2549V15H24.7549V16H25.2549V16.5H25.7549V17H26.2549V17.5H27.2549V18H28.7549V18.5H30.2549V18H31.7549V17.5H32.7549V17H33.2549V16.5H33.7549V16H34.2549V15H34.7549V13.5H35.2549V12H34.7549V10.5H34.2549V9.5H33.7549V9H33.2549V8.5H32.7549V8H31.7549V7.5H30.7549V7H29.7549V6.5H28.7549V6H28.2549V5H27.7549V3.5H28.2549V2.5H28.7549V2H30.2549V2.5H30.7549V3.5H31.2549V6H35.2549V3.5H34.7549V2.5H34.2549V2H33.7549V1.5H33.2549V1H32.2549V0.499999H30.7549V-7.15256e-07H28.2549V0.499999H26.7549V1H25.7549V1.5H25.2549V2H24.7549V2.5H24.2549V3.5H23.7549V5H23.2549V6.5ZM33.7549 10.5C32.9299 10.5 32.2549 9.825 32.2549 9C32.2549 8.175 32.9299 7.5 33.7549 7.5C34.5799 7.5 35.2549 8.175 35.2549 9C35.2549 9.825 34.5799 10.5 33.7549 10.5ZM36.7549 18H49.7549V13.5H38.7549V11H47.7549V7.5H38.7549V5H49.7549V0.499999H36.7549V18ZM44.2549 9C43.4299 9 42.7549 8.325 42.7549 7.5C42.7549 6.675 43.4299 6 44.2549 6C45.0799 6 45.7549 6.675 45.7549 7.5C45.7549 8.325 45.0799 9 44.2549 9ZM72.2451 18V0.499999H66.2451V1.5H65.7451V3H65.2451V4.5H64.7451V6H64.2451V7.5H63.7451V9H63.2451V10.5H62.7451V12H62.2451V13.5H61.7451V12H61.2451V10.5H60.7451V9H60.2451V7.5H59.7451V6H59.2451V4.5H58.7451V3H58.2451V1.5H57.7451V0.499999H51.7451V18H56.2451V3.5H56.7451V4.5H57.2451V6H57.7451V7.5H58.2451V9H58.7451V10.5H59.2451V12H59.7451V13.5H60.2451V15H60.7451V16.5H61.2451V18H65.2451V16.5H65.7451V15H66.2451V13.5H66.7451V12H67.2451V10.5H67.7451V9H68.2451V7.5H68.7451V6H69.2451V4.5H69.7451V3.5H70.2451V18H72.2451ZM56.2451 16C55.4201 16 54.7451 15.325 54.7451 14.5C54.7451 13.675 55.4201 13 56.2451 13C57.0701 13 57.7451 13.675 57.7451 14.5C57.7451 15.325 57.0701 16 56.2451 16ZM74.2549 0.499999V18H82.2549V17.5H83.7549V17H84.7549V16.5H85.2549V16H85.7549V15H86.2549V13H85.7549V12H85.2549V11.5H84.7549V11H83.2549V10.5H81.7549V9.5H83.2549V9H84.7549V8.5H85.7549V8H86.2549V7H86.7549V3.5H86.2549V2.5H85.7549V2H85.2549V1.5H84.2549V1H82.7549V0.499999H74.2549ZM74.2549 5.5C73.4299 5.5 72.7549 4.825 72.7549 4C72.7549 3.175 73.4299 2.5 74.2549 2.5C75.0799 2.5 75.7549 3.175 75.7549 4C75.7549 4.825 75.0799 5.5 74.2549 5.5ZM78.7549 2.5H80.2549V3H81.2549V4H81.7549V7H81.2549V8H80.2549V8.5H78.7549V2.5ZM78.7549 10.5H79.7549V11H80.7549V12H81.2549V14.5H80.7549V15.5H79.7549V16H78.7549V10.5ZM87.7441 6.5V12H88.2441V13.5H88.7441V14.5H89.2441V15.5H89.7441V16H90.2441V16.5H90.7441V17H91.7441V17.5H92.7441V18H94.2441V18.5H98.7441V18H100.244V17.5H101.244V17H102.244V16.5H102.744V16H103.244V15.5H103.744V14.5H104.244V13.5H104.744V12H105.244V6.5H104.744V5H104.244V4H103.744V3H103.244V2.5H102.744V2H102.244V1.5H101.244V1H100.244V0.499999H98.7441V-7.15256e-07H94.2441V0.499999H92.7441V1H91.7441V1.5H90.7441V2H90.2441V2.5H89.7441V3H89.2441V4H88.7441V5H88.2441V6.5H87.7441ZM95.2441 16.5V16H94.2441V15.5H93.7441V14.5H93.2441V13H92.7441V5.5H93.2441V4H93.7441V3H94.2441V2.5H95.2441V2H97.7441V2.5H98.7441V3H99.2441V4H99.7441V5.5H100.244V13H99.7441V14.5H99.2441V15.5H98.7441V16H97.7441V16.5H95.2441ZM92.7441 9.5C91.9191 9.5 91.2441 8.825 91.2441 8C91.2441 7.175 91.9191 6.5 92.7441 6.5C93.5691 6.5 94.2441 7.175 94.2441 8C94.2441 8.825 93.5691 9.5 92.7441 9.5ZM122.25 7V5.5H121.75V4.5H121.25V3.5H120.75V3H120.25V2.5H119.75V2H118.75V1.5H117.75V1H116.25V0.499999H106.75V18H116.25V17.5H117.75V17H118.75V16.5H119.75V16H120.25V15.5H120.75V15H121.25V14H121.75V13H122.25V11.5H122.75V7H122.25ZM117.75 12.5H117.25V14H116.75V15H116.25V15.5H115.25V16H111.25V7.5C110.425 7.5 109.75 6.825 109.75 6C109.75 5.175 110.425 4.5 111.25 4.5V2.5H115.25V3H116.25V3.5H116.75V4.5H117.25V6H117.75V12.5ZM112.75 6C112.75 5.175 112.075 4.5 111.25 4.5V7.5C112.075 7.5 112.75 6.825 112.75 6ZM124.255 0.499999V18H128.755V0.499999H124.255ZM124.255 10C123.43 10 122.755 9.325 122.755 8.5C122.755 7.675 123.43 7 124.255 7C125.08 7 125.755 7.675 125.755 8.5C125.755 9.325 125.08 10 124.255 10ZM151.249 18V0.499999H145.249V1.5H144.749V3H144.249V4.5H143.749V6H143.249V7.5H142.749V9H142.249V10.5H141.749V12H141.249V13.5H140.749V12H140.249V10.5H139.749V9H139.249V7.5H138.749V6H138.249V4.5H137.749V3H137.249V1.5H136.749V0.499999H130.749V18H135.249V3.5H135.749V4.5H136.249V6H136.749V7.5H137.249V9H137.749V10.5H138.249V12H138.749V13.5H139.249V15H139.749V16.5H140.249V18H144.249V16.5H144.749V15H145.249V13.5H145.749V12H146.249V10.5H146.749V9H147.249V7.5H147.749V6H148.249V4.5H148.749V3.5H149.249V18H151.249ZM135.249 16C134.424 16 133.749 15.325 133.749 14.5C133.749 13.675 134.424 13 135.249 13C136.074 13 136.749 13.675 136.749 14.5C136.749 15.325 136.074 16 135.249 16ZM153.259 18H166.259V13.5H155.259V11H164.259V7.5H155.259V5H166.259V0.499999H153.259V18ZM160.759 9C159.934 9 159.259 8.325 159.259 7.5C159.259 6.675 159.934 6 160.759 6C161.584 6 162.259 6.675 162.259 7.5C162.259 8.325 161.584 9 160.759 9ZM182.749 0.499999H178.249V14H177.749V12.5H177.249V11H176.749V9.5H176.249V8H175.749V6.5H175.249V5H174.749V3.5H174.249V2H173.749V0.499999H168.249V18H172.749V5H173.249V6.5H173.749V8H174.249V9.5H174.749V11H175.249V12.5H175.749V14H176.249V15.5H176.749V17H177.249V18H182.749V0.499999ZM178.249 5C177.424 5 176.749 4.325 176.749 3.5C176.749 2.675 177.424 2 178.249 2C179.074 2 179.749 2.675 179.749 3.5C179.749 4.325 179.074 5 178.249 5ZM184.253 0.499999V5H190.753V18H192.753V5H194.753C194.753 4.175 195.428 3.5 196.253 3.5C197.078 3.5 197.753 4.175 197.753 5H199.253V0.499999H184.253ZM196.253 6.5C197.078 6.5 197.753 5.825 197.753 5H194.753C194.753 5.825 195.428 6.5 196.253 6.5Z" fill="black"/>
</svg>
