<svg width="37" height="26" viewBox="0 0 37 26" fill="none" xmlns="http://www.w3.org/2000/svg">
<rect width="7.24886" height="3.65342" transform="matrix(-1 0 0 1 21.7466 0)" fill="#D2030F"/>
<rect width="7.24886" height="3.65342" transform="matrix(-1 0 0 1 21.7466 11.7432)" fill="#D2030F"/>
<rect width="7.24886" height="3.65342" transform="matrix(-1 0 0 1 21.7466 21.7466)" fill="#D2030F"/>
<rect width="7.24886" height="3.65342" transform="matrix(-1 0 0 1 14.4976 3.47949)" fill="#D2030F"/>
<rect width="7.24886" height="3.65342" transform="matrix(-1 0 0 1 14.4976 11.7432)" fill="#D2030F"/>
<rect width="7.24886" height="3.65342" transform="matrix(-1 0 0 1 14.4976 18.2671)" fill="#D2030F"/>
<rect width="7.24886" height="3.65343" transform="matrix(-1 0 0 1 28.9956 3.47949)" fill="#D2030F"/>
<rect width="7.24886" height="3.65343" transform="matrix(-1 0 0 1 28.9956 11.7432)" fill="#D2030F"/>
<rect width="7.24886" height="3.65343" transform="matrix(-1 0 0 1 28.9956 20.0068)" fill="#D2030F"/>
<rect width="7.24886" height="3.65342" transform="matrix(-1 0 0 1 36.3892 3.47949)" fill="#D2030F"/>
<rect width="7.24886" height="3.65342" transform="matrix(-1 0 0 1 36.3892 11.7432)" fill="#D2030F"/>
<rect width="7.24886" height="3.65342" transform="matrix(-1 0 0 1 36.3892 20.0068)" fill="#D2030F"/>
<rect width="7.24886" height="3.65342" transform="matrix(-1 0 0 1 7.24902 3.47949)" fill="#D2030F"/>
<rect width="7.24886" height="3.65342" transform="matrix(-1 0 0 1 7.24902 11.7432)" fill="#D2030F"/>
<rect width="7.24886" height="3.65342" transform="matrix(-1 0 0 1 7.24902 20.0068)" fill="#D2030F"/>
</svg>
