<svg width="100" height="71" viewBox="0 0 100 71" fill="none" xmlns="http://www.w3.org/2000/svg">
<path d="M52.6316 39.1724L52.6316 31.8276L49.0018 31.8276L49.0018 29.3793L45.3721 29.3793L45.3721 26.931L41.7423 26.931L41.7423 24.4828L38.1125 24.4828L38.1125 22.0345L34.4828 22.0345L34.4828 19.5862L30.853 19.5862L30.853 17.1379L27.2232 17.1379L27.2232 14.6897L23.5935 14.6897L23.5935 12.2414L19.9637 12.2414L19.9637 9.79311L16.3339 9.79311L16.3339 7.34482L12.7042 7.34482L12.7042 4.89655L9.07441 4.89655L9.07441 2.44828L5.44465 2.44828L5.44465 1.55784e-07L0 4.76837e-07L0 4.89655L3.62976 4.89655L3.62976 7.34482L7.25953 7.34482L7.25953 9.79311L10.8893 9.79311L10.8893 12.2414L14.5191 12.2414L14.5191 14.6897L18.1488 14.6897L18.1488 17.1379L21.7786 17.1379L21.7786 19.5862L25.4083 19.5862L25.4083 22.0345L29.0381 22.0345L29.0381 24.4828L32.6679 24.4828L32.6679 26.931L36.2976 26.931L36.2976 29.3793L39.9274 29.3793L39.9274 31.8276L43.5572 31.8276L43.5572 34.2759L47.1869 34.2759L47.1869 36.7241L43.5572 36.7241L43.5572 39.1724L39.9274 39.1724L39.9274 41.6207L36.2976 41.6207L36.2976 44.069L32.6679 44.069L32.6679 46.5172L29.0381 46.5172L29.0381 48.9655L25.4083 48.9655L25.4083 51.4138L21.7786 51.4138L21.7786 53.8621L18.1488 53.8621L18.1488 56.3103L14.5191 56.3103L14.5191 58.7586L10.8893 58.7586L10.8893 61.2069L7.25953 61.2069L7.25953 63.6552L3.62976 63.6552L3.62976 66.1034L0 66.1034L0 71H5.44465L5.44465 68.5517L9.07441 68.5517L9.07441 66.1034L12.7042 66.1034L12.7042 63.6552L16.3339 63.6552L16.3339 61.2069L19.9637 61.2069L19.9637 58.7586L23.5935 58.7586L23.5935 56.3103L27.2232 56.3103L27.2232 53.8621L30.853 53.8621L30.853 51.4138L34.4828 51.4138L34.4828 48.9655L38.1125 48.9655L38.1125 46.5172L41.7423 46.5172L41.7423 44.069L45.3721 44.069L45.3721 41.6207L49.0018 41.6207L49.0018 39.1724L52.6316 39.1724Z" fill="#D2030F"/>
<path d="M47.3684 39.1724L47.3684 31.8276L50.9982 31.8276L50.9982 29.3793L54.6279 29.3793L54.6279 26.931L58.2577 26.931L58.2577 24.4828L61.8875 24.4828L61.8875 22.0345L65.5172 22.0345L65.5172 19.5862L69.147 19.5862L69.147 17.1379L72.7768 17.1379L72.7768 14.6897L76.4065 14.6897L76.4065 12.2414L80.0363 12.2414L80.0363 9.79311L83.6661 9.79311L83.6661 7.34482L87.2958 7.34482L87.2958 4.89655L90.9256 4.89655L90.9256 2.44828L94.5554 2.44828L94.5554 1.55784e-07L100 4.76837e-07L100 4.89655L96.3702 4.89655L96.3702 7.34482L92.7405 7.34482L92.7405 9.79311L89.1107 9.79311L89.1107 12.2414L85.4809 12.2414L85.4809 14.6897L81.8512 14.6897L81.8512 17.1379L78.2214 17.1379L78.2214 19.5862L74.5917 19.5862L74.5917 22.0345L70.9619 22.0345L70.9619 24.4828L67.3321 24.4828L67.3321 26.931L63.7024 26.931L63.7024 29.3793L60.0726 29.3793L60.0726 31.8276L56.4428 31.8276L56.4428 34.2759L52.8131 34.2759L52.8131 36.7241L56.4428 36.7241L56.4428 39.1724L60.0726 39.1724L60.0726 41.6207L63.7024 41.6207L63.7024 44.069L67.3321 44.069L67.3321 46.5172L70.9619 46.5172L70.9619 48.9655L74.5917 48.9655L74.5917 51.4138L78.2214 51.4138L78.2214 53.8621L81.8512 53.8621L81.8512 56.3103L85.4809 56.3103L85.4809 58.7586L89.1107 58.7586L89.1107 61.2069L92.7405 61.2069L92.7405 63.6552L96.3702 63.6552L96.3702 66.1034L100 66.1034L100 71H94.5554L94.5554 68.5517L90.9256 68.5517L90.9256 66.1034L87.2958 66.1034L87.2958 63.6552L83.6661 63.6552L83.6661 61.2069L80.0363 61.2069L80.0363 58.7586L76.4065 58.7586L76.4065 56.3103L72.7768 56.3103L72.7768 53.8621L69.147 53.8621L69.147 51.4138L65.5172 51.4138L65.5172 48.9655L61.8875 48.9655L61.8875 46.5172L58.2577 46.5172L58.2577 44.069L54.6279 44.069L54.6279 41.6207L50.9982 41.6207L50.9982 39.1724L47.3684 39.1724Z" fill="#D2030F"/>
</svg>
