<svg width="3024" height="279" viewBox="0 0 3024 279" fill="none" xmlns="http://www.w3.org/2000/svg">
<path d="M1057.47 111.609V96.2641H1052.36V86.0343H1047.24V75.8045H1042.13V70.6896H1037.02V65.5747H1031.91V60.4598H1021.68V55.3449H1011.46V50.23H996.126V45.1151H899V224.136H996.126V219.021H1011.46V213.907H1021.68V208.792H1031.91V203.677H1037.02V198.562H1042.13V193.447H1047.24V183.217H1052.36V172.987H1057.47V157.643H1062.58V111.609H1057.47ZM1011.46 167.873H1006.35V183.217H1001.24V193.447H996.126V198.562H985.902V203.677H945.007V116.724C936.572 116.724 929.671 109.819 929.671 101.379C929.671 92.9394 936.572 86.0343 945.007 86.0343V65.5747H985.902V70.6896H996.126V75.8045H1001.24V86.0343H1006.35V101.379H1011.46V167.873ZM960.342 101.379C960.342 92.9394 953.441 86.0343 945.007 86.0343V116.724C953.441 116.724 960.342 109.819 960.342 101.379Z" fill="#D2030F"/>
<path d="M1077.97 45.1151V224.136H1123.97V45.1151H1077.97ZM1077.97 142.298C1069.53 142.298 1062.63 135.393 1062.63 126.953C1062.63 118.514 1069.53 111.609 1077.97 111.609C1086.4 111.609 1093.3 118.514 1093.3 126.953C1093.3 135.393 1086.4 142.298 1077.97 142.298Z" fill="#D2030F"/>
<path d="M1134.14 106.494H1139.25V121.839H1144.36V132.068H1149.47V137.183H1154.58V142.298H1159.7V147.413H1169.92V152.528H1180.14V157.643H1190.37V162.758H1200.59V167.873H1205.7V178.102H1210.81V198.562H1205.7V208.792H1190.37V198.562H1185.25V172.987H1144.36V193.447H1149.47V203.677H1154.58V208.792H1159.7V213.907H1164.81V219.021H1175.03V224.136H1190.37V229.251H1205.7V224.136H1221.04V219.021H1231.26V213.907H1236.37V208.792H1241.49V203.677H1246.6V193.447H1251.71V178.102H1256.82V162.758H1251.71V147.413H1246.6V137.183H1241.49V132.068H1236.37V126.953H1231.26V121.839H1221.04V116.724H1210.81V111.609H1200.59V106.494H1190.37V101.379H1185.25V91.1492H1180.14V75.8045H1185.25V65.5747H1190.37V60.4598H1205.7V65.5747H1210.81V75.8045H1215.93V101.379H1256.82V75.8045H1251.71V65.5747H1246.6V60.4598H1241.49V55.3449H1236.37V50.23H1226.15V45.1151H1210.81V40.0002H1185.25V45.1151H1169.92V50.23H1159.7V55.3449H1154.58V60.4598H1149.47V65.5747H1144.36V75.8045H1139.25V91.1492H1134.14V106.494ZM1241.49 147.413C1233.05 147.413 1226.15 140.508 1226.15 132.068C1226.15 123.629 1233.05 116.724 1241.49 116.724C1249.92 116.724 1256.82 123.629 1256.82 132.068C1256.82 140.508 1249.92 147.413 1241.49 147.413Z" fill="#D2030F"/>
<path d="M1272.16 224.136H1405.07V178.102H1292.6V152.528H1384.62V116.724H1292.6V91.1492H1405.07V45.1151H1272.16V224.136ZM1348.83 132.068C1340.4 132.068 1333.5 125.163 1333.5 116.724C1333.5 108.284 1340.4 101.379 1348.83 101.379C1357.27 101.379 1364.17 108.284 1364.17 116.724C1364.17 125.163 1357.27 132.068 1348.83 132.068Z" fill="#D2030F"/>
<path d="M1635 224.136V45.1151H1573.66V55.3449H1568.55V70.6896H1563.43V86.0343H1558.32V101.379H1553.21V116.724H1548.1V132.068H1542.99V147.413H1537.87V162.758H1532.76V178.102H1527.65V162.758H1522.54V147.413H1517.43V132.068H1512.32V116.724H1507.2V101.379H1502.09V86.0343H1496.98V70.6896H1491.87V55.3449H1486.76V45.1151H1425.41V224.136H1471.42V75.8045H1476.53V86.0343H1481.64V101.379H1486.76V116.724H1491.87V132.068H1496.98V147.413H1502.09V162.758H1507.2V178.102H1512.32V193.447H1517.43V208.792H1522.54V224.136H1563.43V208.792H1568.55V193.447H1573.66V178.102H1578.77V162.758H1583.88V147.413H1588.99V132.068H1594.1V116.724H1599.22V101.379H1604.33V86.0343H1609.44V75.8045H1614.55V224.136H1635ZM1471.42 203.677C1462.99 203.677 1456.08 196.772 1456.08 188.332C1456.08 179.893 1462.99 172.987 1471.42 172.987C1479.85 172.987 1486.76 179.893 1486.76 188.332C1486.76 196.772 1479.85 203.677 1471.42 203.677Z" fill="#D2030F"/>
<path d="M1668.84 45.1149V224.136H1750.63V219.021H1765.96V213.906H1776.18V208.791H1781.3V203.677H1786.41V193.447H1791.52V172.987H1786.41V162.757H1781.3V157.643H1776.18V152.528H1760.85V147.413H1745.51V137.183H1760.85V132.068H1776.18V126.953H1786.41V121.838H1791.52V111.609H1796.63V75.8042H1791.52V65.5745H1786.41V60.4596H1781.3V55.3447H1771.07V50.2298H1755.74V45.1149H1668.84ZM1668.84 96.2638C1660.4 96.2638 1653.5 89.3587 1653.5 80.9192C1653.5 72.4796 1660.4 65.5745 1668.84 65.5745C1677.27 65.5745 1684.17 72.4796 1684.17 80.9192C1684.17 89.3587 1677.27 96.2638 1668.84 96.2638ZM1714.84 65.5745H1730.18V70.6894H1740.4V80.9192H1745.51V111.609H1740.4V121.838H1730.18V126.953H1714.84V65.5745ZM1714.84 147.413H1725.07V152.528H1735.29V162.757H1740.4V188.332H1735.29V198.562H1725.07V203.677H1714.84V147.413Z" fill="#D2030F"/>
<path d="M1806.75 106.494V162.757H1811.86V178.102H1816.97V188.332H1822.08V198.562H1827.19V203.677H1832.31V208.791H1837.42V213.906H1847.64V219.021H1857.87V224.136H1873.2V229.251H1919.21V224.136H1934.54V219.021H1944.77V213.906H1954.99V208.791H1960.1V203.677H1965.21V198.562H1970.33V188.332H1975.44V178.102H1980.55V162.757H1985.66V106.494H1980.55V91.1489H1975.44V80.9192H1970.33V70.6894H1965.21V65.5745H1960.1V60.4596H1954.99V55.3447H1944.77V50.2298H1934.54V45.1149H1919.21V40H1873.2V45.1149H1857.87V50.2298H1847.64V55.3447H1837.42V60.4596H1832.31V65.5745H1827.19V70.6894H1822.08V80.9192H1816.97V91.1489H1811.86V106.494H1806.75ZM1883.42 208.791V203.677H1873.2V198.562H1868.09V188.332H1862.98V172.987H1857.87V96.2638H1862.98V80.9192H1868.09V70.6894H1873.2V65.5745H1883.42V60.4596H1908.98V65.5745H1919.21V70.6894H1924.32V80.9192H1929.43V96.2638H1934.54V172.987H1929.43V188.332H1924.32V198.562H1919.21V203.677H1908.98V208.791H1883.42ZM1857.87 137.183C1849.43 137.183 1842.53 130.278 1842.53 121.838C1842.53 113.399 1849.43 106.494 1857.87 106.494C1866.3 106.494 1873.2 113.399 1873.2 121.838C1873.2 130.278 1866.3 137.183 1857.87 137.183Z" fill="#D2030F"/>
<path d="M2159.53 111.609V96.2638H2154.41V86.034H2149.3V75.8042H2144.19V70.6894H2139.08V65.5745H2133.97V60.4596H2123.74V55.3447H2113.52V50.2298H2098.18V45.1149H2001.06V224.136H2098.18V219.021H2113.52V213.906H2123.74V208.791H2133.97V203.677H2139.08V198.562H2144.19V193.447H2149.3V183.217H2154.41V172.987H2159.53V157.643H2164.64V111.609H2159.53ZM2113.52 167.872H2108.41V183.217H2103.29V193.447H2098.18V198.562H2087.96V203.677H2047.06V116.723C2038.63 116.723 2031.73 109.818 2031.73 101.379C2031.73 92.9392 2038.63 86.034 2047.06 86.034V65.5745H2087.96V70.6894H2098.18V75.8042H2103.29V86.034H2108.41V101.379H2113.52V167.872ZM2062.4 101.379C2062.4 92.9392 2055.5 86.034 2047.06 86.034V116.723C2055.5 116.723 2062.4 109.818 2062.4 101.379Z" fill="#D2030F"/>
<path d="M2180.02 45.1149V224.136H2226.03V45.1149H2180.02ZM2180.02 142.298C2171.59 142.298 2164.69 135.393 2164.69 126.953C2164.69 118.514 2171.59 111.609 2180.02 111.609C2188.46 111.609 2195.36 118.514 2195.36 126.953C2195.36 135.393 2188.46 142.298 2180.02 142.298Z" fill="#D2030F"/>
<path d="M2467.09 224.137V45.1159H2405.74V55.3457H2400.63V70.6903H2395.52V86.035H2390.41V101.38H2385.3V116.724H2380.18V132.069H2375.07V147.414H2369.96V162.758H2364.85V178.103H2359.74V162.758H2354.63V147.414H2349.51V132.069H2344.4V116.724H2339.29V101.38H2334.18V86.035H2329.07V70.6903H2323.95V55.3457H2318.84V45.1159H2257.5V224.137H2303.51V75.8053H2308.62V86.035H2313.73V101.38H2318.84V116.724H2323.95V132.069H2329.07V147.414H2334.18V162.758H2339.29V178.103H2344.4V193.448H2349.51V208.792H2354.63V224.137H2395.52V208.792H2400.63V193.448H2405.74V178.103H2410.86V162.758H2415.97V147.414H2421.08V132.069H2426.19V116.724H2431.3V101.38H2436.42V86.035H2441.53V75.8053H2446.64V224.137H2467.09ZM2303.51 203.678C2295.07 203.678 2288.17 196.772 2288.17 188.333C2288.17 179.893 2295.07 172.988 2303.51 172.988C2311.94 172.988 2318.84 179.893 2318.84 188.333C2318.84 196.772 2311.94 203.678 2303.51 203.678Z" fill="#D2030F"/>
<path d="M2487.63 224.137H2620.54V178.103H2508.08V152.529H2600.1V116.724H2508.08V91.1499H2620.54V45.1159H2487.63V224.137ZM2564.31 132.069C2555.88 132.069 2548.98 125.164 2548.98 116.724C2548.98 108.285 2555.88 101.38 2564.31 101.38C2572.75 101.38 2579.65 108.285 2579.65 116.724C2579.65 125.164 2572.75 132.069 2564.31 132.069Z" fill="#D2030F"/>
<path d="M2789.13 45.1159H2743.13V183.218H2738.02V167.873H2732.9V152.529H2727.79V137.184H2722.68V121.839H2717.57V106.495H2712.46V91.1499H2707.34V75.8053H2702.23V60.4606H2697.12V45.1159H2640.89V224.137H2686.9V91.1499H2692.01V106.495H2697.12V121.839H2702.23V137.184H2707.34V152.529H2712.46V167.873H2717.57V183.218H2722.68V198.563H2727.79V213.907H2732.9V224.137H2789.13V45.1159ZM2743.13 91.1499C2734.69 91.1499 2727.79 84.2448 2727.79 75.8053C2727.79 67.3657 2734.69 60.4606 2743.13 60.4606C2751.56 60.4606 2758.46 67.3657 2758.46 75.8053C2758.46 84.2448 2751.56 91.1499 2743.13 91.1499Z" fill="#D2030F"/>
<path d="M2804.51 45.1159V91.1499H2870.96V224.137H2891.41V91.1499H2911.86C2911.86 82.7103 2918.76 75.8053 2927.2 75.8053C2935.63 75.8053 2942.53 82.7103 2942.53 91.1499H2957.87V45.1159H2804.51ZM2927.2 106.495C2935.63 106.495 2942.53 99.5895 2942.53 91.1499H2911.86C2911.86 99.5895 2918.76 106.495 2927.2 106.495Z" fill="#D2030F"/>
<path d="M723.708 192.237C723.708 191.12 723.708 190.155 723.708 189.14C723.708 172.992 723.708 156.794 723.708 140.646C723.708 136.483 723.81 132.319 723.504 128.206C722.433 112.718 710.085 103.426 694.931 106.574C685.593 108.504 678.195 113.785 671.664 120.437C671.001 121.097 670.337 121.757 669.113 122.976C669.113 117.39 669.113 112.617 669.113 107.742C663.398 107.742 657.99 107.742 652.53 107.742C652.53 136.026 652.53 164.106 652.53 192.237C658.143 192.237 663.551 192.237 669.215 192.237C669.215 190.968 669.215 189.901 669.215 188.784C669.215 169.844 669.215 150.853 669.266 131.913C669.266 130.846 669.47 129.374 670.184 128.714C676.052 123.28 682.583 118.964 690.645 117.492C697.737 116.222 703.86 119.827 705.748 126.733C706.513 129.475 706.768 132.42 706.768 135.264C706.87 153.29 706.819 171.317 706.819 189.343C706.819 190.308 706.819 191.272 706.819 192.288C712.585 192.237 717.994 192.237 723.708 192.237Z" fill="white"/>
<path d="M506.96 158.418C505.328 161.719 503.95 164.816 502.317 167.761C492.98 184.874 470.376 185.889 459.202 171.468C449.201 158.621 446.854 143.946 451.753 128.561C455.324 117.339 464.713 111.55 476.448 112.21C483.847 112.616 488.03 116.78 488.388 124.092C488.439 124.752 488.439 125.463 488.439 126.123C488.796 131.303 492.367 134.908 497.572 135.314C506.348 136.025 511.91 128.408 508.389 120.436C506.246 115.612 502.368 112.464 497.725 110.331C487.928 105.761 477.622 104.542 467.162 107.031C440.272 113.327 425.016 144.2 436.088 169.589C443.997 187.717 461.906 197.264 481.04 193.506C495.786 190.612 508.695 176.749 511.654 160.399C510.124 159.688 508.593 159.078 506.96 158.418Z" fill="white"/>
<path d="M298.986 105.812C293.68 104.695 289.802 107.894 285.363 109.163C282.965 109.874 282.199 111.093 282.199 113.682C282.301 145.571 282.301 177.511 282.25 209.4C282.25 212.649 282.046 216.052 281.179 219.149C279.342 225.75 272.199 227.375 267.402 222.399C265.464 220.368 263.831 218.083 261.892 216.102C259.188 213.309 253.116 213.563 250.31 216.458C247.758 218.997 247.758 223.77 250.82 226.512C252.759 228.238 255.31 229.66 257.81 230.371C264.29 232.25 270.974 231.437 277.556 230.574C287.863 229.203 294.445 223.364 296.792 213.309C297.915 208.587 298.833 203.662 298.884 198.787C299.088 168.32 299.037 137.853 299.088 107.386C299.088 106.878 299.037 106.421 298.986 105.812Z" fill="white"/>
<path d="M781.059 107.64C781.059 97.7894 781.059 88.2939 781.059 78.7983C779.273 78.7983 777.742 78.7983 776.262 78.7983C776.007 80.0678 775.854 81.1849 775.548 82.2005C773.66 87.9384 772.231 93.9303 769.578 99.3635C766.364 106.016 760.496 109.672 752.944 110.332C751.873 110.433 750.801 110.586 749.73 110.738C749.73 112.109 749.73 113.328 749.73 114.8C754.628 114.8 759.373 114.8 764.323 114.8C764.323 116.07 764.323 117.034 764.323 118.05C764.323 137.092 764.272 156.134 764.374 175.176C764.476 189.393 771.874 195.791 786.008 193.913C793.917 192.846 799.733 188.581 803.815 181.675C802.336 180.66 801.111 179.796 799.784 178.933C799.223 179.441 798.713 179.898 798.254 180.355C794.835 183.452 790.957 184.773 786.518 182.843C782.232 180.964 781.11 177.308 781.11 172.84C781.212 154.458 781.161 136.127 781.161 117.745C781.161 116.78 781.161 115.816 781.161 114.597C787.743 114.597 793.917 114.597 800.09 114.597C800.09 112.21 800.09 110.027 800.09 107.691C793.764 107.64 787.641 107.64 781.059 107.64Z" fill="white"/>
<path fill-rule="evenodd" clip-rule="evenodd" d="M218.319 79.2044C218.319 77.8842 218.319 77.0209 218.319 76.1069C218.319 63.0569 218.37 50.0577 218.268 37.0076C218.268 35.2304 218.676 34.2656 220.513 33.7071C223.166 32.8438 225.666 31.5236 228.32 30.7111C229.952 30.2034 231.789 30.051 233.524 30.0002C234.034 30.0002 234.698 30.8635 235.004 31.422C235.259 31.879 235.055 32.5899 235.055 33.1993C235.055 74.3805 235.055 115.562 235.055 156.743C235.055 160.043 235.055 160.043 231.789 160.043C227.401 160.043 223.013 160.043 218.319 160.043C218.319 156.641 218.319 153.595 218.319 149.989C217.146 150.751 216.431 151.259 215.666 151.767C206.941 157.352 197.603 160.754 187.041 159.84C177.194 158.977 169.54 153.95 163.826 146.232C141.579 116.425 159.642 80.0676 189.133 72.7048C199.134 70.2167 208.523 71.283 216.737 78.1888C217.095 78.4935 217.503 78.6966 218.319 79.2044ZM218.319 120.081C218.319 113.378 218.421 106.726 218.268 100.024C217.962 87.1766 207.859 77.3256 195.613 77.935C188.623 78.2904 183.521 82.0988 179.643 87.5828C175.102 93.9809 173.112 101.293 172.704 109.011C172.143 120.284 174.337 130.897 181.021 140.291C184.337 144.962 188.572 148.618 194.236 150.142C202.859 152.427 210.104 149.329 216.482 143.794C217.452 142.931 218.166 141.255 218.217 139.935C218.421 133.283 218.319 126.682 218.319 120.081Z" fill="#D2030F"/>
<path fill-rule="evenodd" clip-rule="evenodd" d="M132.701 192.186C126.68 192.186 121.068 192.136 115.455 192.237C113.822 192.288 113.516 191.272 113.006 190.206C108.057 179.441 103.056 168.727 98.209 157.911C97.3926 156.134 96.5252 155.372 94.4843 155.423C80.3507 155.524 66.2681 155.524 52.1346 155.423C50.2467 155.423 49.2772 155.981 48.5119 157.708C43.4095 168.625 38.2051 179.441 33.1027 190.308C32.4394 191.729 31.674 192.339 30.0413 192.237C27.7962 192.085 25.5002 192.186 23 192.186C23.4592 191.069 23.8164 190.257 24.1735 189.444C41.1645 153.595 58.1043 117.796 75.0442 81.9466C75.8096 80.271 76.677 79.5601 78.6159 79.5601C80.4527 79.5601 81.065 80.4233 81.7283 81.8451C98.3111 117.745 114.894 153.646 131.528 189.597C131.885 190.358 132.191 191.12 132.701 192.186ZM73.5645 104.797C66.5233 119.573 59.7881 133.791 52.9509 148.314C66.6763 148.314 79.9425 148.314 93.6679 148.314C86.9328 133.791 80.4017 119.573 73.5645 104.797Z" fill="#D2030F"/>
<path fill-rule="evenodd" clip-rule="evenodd" d="M723.71 192.237C717.995 192.237 712.587 192.237 706.77 192.237C706.77 191.272 706.77 190.307 706.77 189.292C706.77 171.265 706.821 153.239 706.719 135.213C706.719 132.369 706.464 129.424 705.699 126.682C703.76 119.776 697.637 116.12 690.596 117.44C682.534 118.913 676.003 123.229 670.135 128.662C669.421 129.322 669.217 130.795 669.217 131.861C669.166 150.802 669.166 169.793 669.166 188.733C669.166 189.799 669.166 190.916 669.166 192.186C663.553 192.186 658.093 192.186 652.481 192.186C652.481 164.106 652.481 135.974 652.481 107.691C657.991 107.691 663.349 107.691 669.063 107.691C669.063 112.566 669.063 117.339 669.063 122.924C670.288 121.706 670.951 121.046 671.615 120.385C678.146 113.733 685.544 108.503 694.882 106.523C710.036 103.375 722.332 112.667 723.455 128.154C723.761 132.268 723.659 136.431 723.659 140.595C723.659 156.743 723.659 172.941 723.659 189.088C723.71 190.155 723.71 191.12 723.71 192.237Z" fill="#D2030F"/>
<path fill-rule="evenodd" clip-rule="evenodd" d="M398.178 192.237C392.565 192.237 387.106 192.237 381.289 192.237C381.289 188.53 381.289 184.975 381.289 180.812C378.687 182.843 376.595 184.518 374.503 186.194C368.686 190.713 362.257 193.658 354.757 194.217C344.807 194.979 336.541 190.967 332.663 183.249C328.479 174.972 329.908 164.918 336.235 157.707C340.113 153.29 345.011 150.294 350.215 147.704C359.349 143.236 369.145 140.697 378.891 138.158C380.677 137.701 381.493 136.99 381.289 135.111C380.728 130.541 380.728 125.819 379.605 121.35C378.023 115.206 373.482 111.956 367.104 111.601C364.604 111.448 361.951 111.499 359.502 112.058C354.246 113.175 351.389 116.729 350.93 122.01C350.777 123.889 350.726 125.717 350.471 127.596C349.858 132.978 347.001 135.67 342.103 135.568C337.562 135.467 334.041 131.912 333.582 127.088C333.173 122.62 334.653 118.659 338.021 115.968C341.337 113.327 345.062 110.839 348.991 109.265C359.094 105.203 369.706 104.796 380.319 107.081C392.82 109.773 398.229 116.577 398.229 129.272C398.28 149.481 398.229 169.742 398.229 189.952C398.331 190.663 398.229 191.373 398.178 192.237ZM381.34 142.626C376.033 144.81 371.237 146.587 366.543 148.72C360.471 151.512 354.859 154.965 350.522 160.145C346.491 165.02 346.185 170.351 349.042 175.785C351.848 181.116 356.134 184.315 362.563 183.858C369.86 183.35 375.319 179.085 380.779 174.972C381.085 174.718 381.289 174.058 381.289 173.601C381.34 163.547 381.34 153.493 381.34 142.626Z" fill="#D2030F"/>
<path fill-rule="evenodd" clip-rule="evenodd" d="M619.162 141.61C597.119 141.61 576.149 141.61 554.872 141.61C555.382 156.133 558.749 168.98 571.505 177.511C577.067 181.217 583.394 182.131 589.823 180.963C601.967 178.78 611.1 172.433 616.202 160.754C616.967 161.058 617.733 161.312 618.498 161.668C619.161 161.972 619.825 162.328 620.692 162.785C620.284 164.054 619.978 165.273 619.468 166.39C612.375 182.182 600.589 192.084 583.037 194.064C562.882 196.349 542.32 180.557 539.411 160.551C537.166 145.165 540.075 130.795 550.637 118.811C569.464 97.4332 605.691 103.07 615.947 128.865C617.529 132.724 618.039 136.989 619.162 141.61ZM555.229 134.603C569.311 134.603 583.241 134.603 597.17 134.603C597.885 123.076 587.986 112.464 576.404 112.159C565.383 111.803 555.127 122.568 555.229 134.603Z" fill="#D2030F"/>
<path fill-rule="evenodd" clip-rule="evenodd" d="M506.96 158.418C508.593 159.078 510.124 159.688 511.654 160.297C508.695 176.647 495.837 190.51 481.04 193.404C461.957 197.162 443.997 187.616 436.088 169.488C425.016 144.149 440.272 113.276 467.162 106.929C477.672 104.492 487.928 105.659 497.725 110.229C502.368 112.413 506.246 115.51 508.389 120.334C511.909 128.307 506.297 135.923 497.572 135.212C492.367 134.806 488.796 131.201 488.439 126.022C488.387 125.361 488.387 124.65 488.387 123.99C488.03 116.678 483.846 112.514 476.448 112.108C464.712 111.448 455.324 117.237 451.752 128.459C446.854 143.895 449.201 158.52 459.202 171.367C470.427 185.788 492.98 184.823 502.317 167.66C503.95 164.816 505.327 161.719 506.96 158.418Z" fill="#D2030F"/>
<path fill-rule="evenodd" clip-rule="evenodd" d="M298.986 105.812C299.037 106.422 299.088 106.879 299.088 107.386C299.037 137.853 299.088 168.32 298.884 198.787C298.833 203.662 297.915 208.587 296.792 213.31C294.394 223.364 287.863 229.203 277.556 230.574C270.974 231.438 264.29 232.25 257.81 230.371C255.31 229.66 252.759 228.239 250.82 226.512C247.758 223.77 247.758 218.997 250.31 216.458C253.167 213.564 259.188 213.31 261.892 216.103C263.831 218.083 265.515 220.368 267.403 222.399C272.148 227.325 279.342 225.751 281.179 219.149C282.046 216.052 282.25 212.65 282.25 209.4C282.301 177.511 282.352 145.572 282.199 113.683C282.199 111.093 282.965 109.874 285.363 109.164C289.751 107.894 293.68 104.746 298.986 105.812Z" fill="#D2030F"/>
<path fill-rule="evenodd" clip-rule="evenodd" d="M781.061 107.64C787.643 107.64 793.765 107.64 800.041 107.64C800.041 109.976 800.041 112.108 800.041 114.546C793.919 114.546 787.745 114.546 781.112 114.546C781.112 115.764 781.112 116.729 781.112 117.694C781.112 136.076 781.163 154.407 781.061 172.788C781.061 177.257 782.183 180.913 786.469 182.792C790.857 184.721 794.735 183.401 798.205 180.304C798.715 179.847 799.225 179.39 799.735 178.882C801.062 179.796 802.286 180.659 803.766 181.624C799.684 188.53 793.868 192.795 785.959 193.861C771.825 195.74 764.427 189.393 764.325 175.124C764.223 156.082 764.274 137.041 764.274 117.999C764.274 116.983 764.274 116.018 764.274 114.749C759.324 114.749 754.63 114.749 749.681 114.749C749.681 113.276 749.681 112.108 749.681 110.687C750.752 110.534 751.824 110.382 752.895 110.28C760.447 109.62 766.315 106.015 769.529 99.3123C772.131 93.879 773.56 87.8872 775.499 82.1492C775.856 81.1336 775.958 80.0165 776.213 78.7471C777.693 78.7471 779.173 78.7471 781.01 78.7471C781.061 88.2426 781.061 97.7889 781.061 107.64Z" fill="#D2030F"/>
</svg>
