<svg width="140" height="140" viewBox="0 0 140 140" fill="none" xmlns="http://www.w3.org/2000/svg">
<path d="M62.7586 140H77.2414V130.345H82.069V120.69H86.8965V111.034H91.7241V101.379H96.5517V91.7241H101.379V82.069H106.207V72.4138H111.034V62.7586H115.862V53.1035H120.69V43.4483H125.517V33.7931H130.345L130.345 24.1379H135.172V14.4828H140V6.1196e-06L130.345 5.69755e-06V9.65518L125.517 9.65518V19.3104L120.69 19.3103V28.9655H115.862V38.6207H111.034V48.2759H106.207V57.931H101.379V67.5862H96.5517V77.2414H91.7241V86.8966L86.8965 86.8965V96.5517H82.069V106.207H77.2414V115.862H72.4138V125.517H67.5862V115.862H62.7586V106.207H57.931V96.5517H53.1034V86.8965H48.2759V77.2414H43.4483V67.5862H38.6207V57.931H33.7931V48.2759H28.9655V38.6207H24.1379V28.9655H19.3103L19.3103 19.3103L14.4828 19.3103V9.65517H9.65517V4.22042e-07L6.33061e-07 0L0 14.4828H4.82759L4.82759 24.1379H9.65517V33.7931H14.4828L14.4828 43.4483H19.3103V53.1035H24.1379V62.7586H28.9655L28.9655 72.4138H33.7931V82.069H38.6207V91.7241H43.4483V101.379H48.2759V111.034H53.1034V120.69H57.931V130.345H62.7586V140Z" fill="#D2030F"/>
</svg>
