<svg width="571" height="940" viewBox="0 0 571 940" fill="none" xmlns="http://www.w3.org/2000/svg">
<path fill-rule="evenodd" clip-rule="evenodd" d="M571 868V940H392.195V660H571V732H424.195V772H488.195C488.195 785.2 498.995 796 512.195 796C525.395 796 536.195 785.2 536.195 772H568.195V828H424.195V868H571ZM536.195 772C536.195 758.8 525.395 748 512.195 748C498.995 748 488.195 758.8 488.195 772H536.195ZM571 342V606H555.875V614H531.875V622H459.875V614H435.875V606H419.875V598H403.875V590H395.875V582H387.875V574H379.875V558H371.875V542H363.875V518H355.875V430H363.875V406H371.875V390H379.875V374H387.875V366H395.875V358H403.875V350H419.875V342H435.875V334H459.875V326H531.875V334H555.875V342H571ZM248.008 88V112H256.008V184H248.008V208H240.008V224H232.008V240H224.008V248H216.008V256H208.008V264H192.008V272H176.008V280H152.008V288H0.0078125V7.99999H152.008V16H176.008V24H192.008V32H208.008V40H216.008V48H224.008V56H232.008V72H240.008V88H248.008ZM168.008 200H176.008V96H168.008V72H160.008V56H152.008V48H136.008V40H72.0078V72C58.8078 72 48.0078 82.8 48.0078 96C48.0078 109.2 58.8078 120 72.0078 120V256H136.008V248H152.008V240H160.008V224H168.008V200ZM72.0078 72C85.2078 72 96.0078 82.8 96.0078 96C96.0078 109.2 85.2078 120 72.0078 120V72ZM280.086 112V7.99999H352.086V288H280.086V160C293.286 160 304.086 149.2 304.086 136C304.086 122.8 293.286 112 280.086 112ZM280.086 112C266.886 112 256.086 122.8 256.086 136C256.086 149.2 266.886 160 280.086 160V112ZM375.992 104H367.992V80H375.992V56H383.992V40H391.992V32H399.992V24H407.992V16H423.992V7.99999H447.992V0H487.992V7.99999H511.992V16H527.992V24H535.992V32H543.992V40H551.992V56H559.992V96H495.992V56H487.992V40H479.992V32H455.992V40H447.992V56H439.992V80H447.992V96H455.992V104H471.992V112H487.992V120H503.992V128H518.142C514.323 132.254 511.992 137.868 511.992 144C511.992 157.2 522.792 168 535.992 168C538.794 168 541.487 167.514 543.992 166.621V168H551.992V192H559.992V216H551.992V240H543.992V256H535.992V264H527.992V272H519.992V280H503.992V288H479.992V296H455.992V288H431.992V280H415.992V272H407.992V264H399.992V256H391.992V240H383.992V208H447.992V248H455.992V264H479.992V248H487.992V216H479.992V200H471.992V192H455.992V184H439.992V176H423.992V168H407.992V160H399.992V152H391.992V144H383.992V128H375.992V104ZM543.992 166.621C553.29 163.308 559.992 154.398 559.992 144C559.992 130.8 549.192 120 535.992 120C528.924 120 522.544 123.097 518.142 128H519.992V136H527.992V144H535.992V152H543.992V166.621ZM140.047 366V334H276.047V342H300.047V350H316.047V358H324.047V366H332.047V382H340.047V438H332.047V454H324.047V462H308.047V470H284.047V478H260.047V494H284.047V502H308.047V510H316.047V518H324.047V534H332.047V566H324.047V582H316.047V590H308.047V598H292.047V606H268.047V614H140.047V414C153.247 414 164.047 403.2 164.047 390C164.047 376.8 153.247 366 140.047 366ZM140.047 366C126.847 366 116.047 376.8 116.047 390C116.047 403.2 126.847 414 140.047 414V366ZM236.047 366H212.047V462H236.047V454H252.047V438H260.047V390H252.047V374H236.047V366ZM228.047 494H212.047V582H228.047V574H244.047V558H252.047V518H244.047V502H228.047V494ZM475.875 582V590H515.875V582H531.875V574H539.875V558H547.875V534H555.875V414H547.875V390H539.875V374H531.875V366H515.875V358H475.875V366H459.875V374H451.875V390H443.875V414H435.875V430C422.675 430 411.875 440.8 411.875 454C411.875 467.2 422.675 478 435.875 478V534H443.875V558H451.875V574H459.875V582H475.875ZM435.875 478V430C449.075 430 459.875 440.8 459.875 454C459.875 467.2 449.075 478 435.875 478ZM360.039 660V940H328.039V708H320.039V724H312.039V748H304.039V772H296.039V796H288.039V820H280.039V844H272.039V868H264.039V892H256.039V916H248.039V940H184.039V916H176.039V892H168.039V868H160.039V844H152.039V820H144.039V796H136.039V772H128.039V748H120.039V724H112.039V708H104.039V860C90.8391 860 80.0391 870.8 80.0391 884C80.0391 897.2 90.8391 908 104.039 908V940H32.0391V660H128.039V676H136.039V700H144.039V724H152.039V748H160.039V772H168.039V796H176.039V820H184.039V844H192.039V868H200.039V844H208.039V820H216.039V796H224.039V772H232.039V748H240.039V724H248.039V700H256.039V676H264.039V660H360.039ZM104.039 908V860C117.239 860 128.039 870.8 128.039 884C128.039 897.2 117.239 908 104.039 908Z" fill="#F3F2F0"/>
</svg>
