<svg width="573" height="932" viewBox="0 0 573 932" fill="none" xmlns="http://www.w3.org/2000/svg">
<path fill-rule="evenodd" clip-rule="evenodd" d="M0 590V342H8.87501V350H16.875V358H24.875V366H32.875V382H40.875V398H48.875V422H56.875V510H48.875V534H40.875V550H32.875V566H24.875V574H16.875V582H8.87501V590H0ZM0 932H21.1953V860H0V932ZM0 724V652H21.1953V724H0ZM212.992 280H4.99219V0H212.992V72H36.9922V112H100.992C100.992 125.2 111.792 136 124.992 136C138.192 136 148.992 125.2 148.992 112H180.992V168H36.9922V208H212.992V280ZM100.992 112H148.992C148.992 98.8 138.192 88 124.992 88C111.792 88 100.992 98.8 100.992 112ZM572.836 0V280H540.836V48H532.836V64H524.836V88H516.836V112H508.836V136H500.836V160H492.836V184H484.836V208H476.836V232H468.836V256H460.836V280H396.836V256H388.836V232H380.836V208H372.836V184H364.836V160H356.836V136H348.836V112H340.836V88H332.836V64H324.836V48H316.836V200C303.636 200 292.836 210.8 292.836 224C292.836 237.2 303.636 248 316.836 248V280H244.836V0H340.836V16H348.836V40H356.836V64H364.836V88H372.836V112H380.836V136H388.836V160H396.836V184H404.836V208H412.836V184H420.836V160H428.836V136H436.836V112H444.836V88H452.836V64H460.836V40H468.836V16H476.836V0H572.836ZM316.836 248V200C330.036 200 340.836 210.8 340.836 224C340.836 237.2 330.036 248 316.836 248ZM328.969 406V430H336.969V502H328.969V526H320.969V542H312.969V558H304.969V566H296.969V574H288.969V582H272.969V590H256.969V598H232.969V606H80.9688V326H232.969V334H256.969V342H272.969V350H288.969V358H296.969V366H304.969V374H312.969V390H320.969V406H328.969ZM248.969 518H256.969V414H248.969V390H240.969V374H232.969V366H216.969V358H152.969V390C139.769 390 128.969 400.8 128.969 414C128.969 427.2 139.769 438 152.969 438V574H216.969V566H232.969V558H240.969V542H248.969V518ZM152.969 390C166.169 390 176.969 400.8 176.969 414C176.969 427.2 166.169 438 152.969 438V390ZM361.047 430V326H433.047V606H361.047V478C374.247 478 385.047 467.2 385.047 454C385.047 440.8 374.247 430 361.047 430ZM361.047 430C347.847 430 337.047 440.8 337.047 454C337.047 467.2 347.847 478 361.047 478V430ZM213.039 652H285.039V932H197.039V916H189.039V892H181.039V868H173.039V844H165.039V820H157.039V796H149.039V772H141.039V748H133.039V724H125.039V932H53.0391V652H141.039V676H149.039V700H157.039V724H165.039V748H173.039V772H181.039V796H189.039V820H197.039V844H205.039V868H213.039V724C226.239 724 237.039 713.2 237.039 700C237.039 686.8 226.239 676 213.039 676V652ZM213.039 676C199.839 676 189.039 686.8 189.039 700C189.039 713.2 199.839 724 213.039 724V676ZM309.102 724V652H549.102V724H525.102C525.102 710.8 514.302 700 501.102 700C487.902 700 477.102 710.8 477.102 724H445.102V932H413.102V724H309.102ZM477.102 724C477.102 737.2 487.902 748 501.102 748C514.302 748 525.102 737.2 525.102 724H477.102Z" fill="#F3F2F0"/>
</svg>
