<svg width="330" height="940" viewBox="0 0 330 940" fill="none" xmlns="http://www.w3.org/2000/svg">
<path fill-rule="evenodd" clip-rule="evenodd" d="M330 940H0V868H94.1953C94.1953 881.2 104.995 892 118.195 892C131.395 892 142.195 881.2 142.195 868H330V940ZM330 660V732H0V660H330ZM330 40H189.977V56H181.977V80H189.977V96H330V184H293.977C293.977 170.8 283.177 160 269.977 160C256.777 160 245.977 170.8 245.977 184H181.977V176H165.977V168H149.977V160H141.977V152H133.977V144H125.977V128H117.977V104H109.977V80H117.977V56H125.977V40H133.977V32H141.977V24H149.977V16H165.977V7.99999H189.977V0H330V40ZM245.977 184C245.977 197.2 256.777 208 269.977 208C283.177 208 293.977 197.2 293.977 184H245.977ZM330 248V288H173.977V280H157.977V272H149.977V264H141.977V256H133.977V240H125.977V208H189.977V248H330ZM0 772V828H326.195V772H0ZM142.195 868C142.195 854.8 131.395 844 118.195 844C104.995 844 94.1953 854.8 94.1953 868H142.195ZM0 621.707V606H5.89063C5.89063 611.992 3.66518 617.489 0 621.707ZM0 590.293C3.66518 594.511 5.89063 600.008 5.89063 606H133.891V614H205.891V606H229.891V598H245.891V590H261.891V582H269.891V574H277.891V566H285.891V550H293.891V534H301.891V510H309.891V438H301.891V414H293.891V398H285.891V382H277.891V374H269.891V366H261.891V358H245.891V350H229.891V342H205.891V334H133.891V342H0V398H125.891V382H133.891V374H149.891V366H189.891V374H205.891V382H213.891V398H221.891V422H229.891V526H221.891V550H213.891V566H205.891V574H189.891V582H149.891V574H133.891V566H125.891V550H0V590.293ZM0 288V237.851C8.29811 234.063 14.1016 225.676 14.1016 216H94.1016V288H0ZM0 216H14.1016C14.1016 206.324 8.29811 197.937 0 194.149V216ZM0 80H94.1016V7.99999H0V80Z" fill="#F3F2F0"/>
</svg>
