<svg width="330" height="940" viewBox="0 0 330 940" fill="none" xmlns="http://www.w3.org/2000/svg">
<path fill-rule="evenodd" clip-rule="evenodd" d="M0 264H189.578V248H197.578V216H189.578V200H181.578V192H165.578V184H0V112H69.5781C69.5781 125.2 80.3782 136 93.5782 136C106.778 136 117.578 125.2 117.578 112H197.578V120H213.578V128H229.578V136H237.578V144H245.578V152H253.578V168H261.578V192H269.578V216H261.578V240H253.578V256H245.578V264H237.578V272H229.578V280H213.578V288H189.578V296H0V264ZM0 614V334H145.383V342H330V398H153.383V382H145.383V374H129.383V366H65.3828V582H129.383V574H145.383V566H153.383V550H330V587.614C324.741 592.026 321.383 598.64 321.383 606H145.383V614H0ZM330 780V852H165.539V828H157.539V804H149.539V780H141.539V756H133.539V732H125.539V940H53.5391V660H141.539V684H149.539V708H157.539V732H165.539V756H173.539V780H330ZM330 624.386C324.741 619.974 321.383 613.36 321.383 606H330V624.386ZM0 940V868H21.6953V940H0ZM0 732V660H21.6953V732H0ZM330 216V288H293.578V72C306.778 72 317.578 61.2 317.578 48C317.578 34.8 306.778 24 293.578 24V7.99999H330V80H325.578V120H330V176H325.578V216H330ZM293.578 24C280.378 24 269.578 34.8 269.578 48C269.578 61.2 280.378 72 293.578 72V24ZM117.578 112C117.578 98.8 106.778 88 93.5782 88C80.3782 88 69.5781 98.8 69.5781 112H117.578ZM0 56V7.99999H165.578V0H197.578V7.99999H221.578V16H237.578V24H245.578V32H253.578V40H261.578V56H269.578V96H205.578V56H197.578V40H189.578V32H173.578V40H165.578V56H0Z" fill="#F3F2F0"/>
</svg>
