<svg width="330" height="932" viewBox="0 0 330 932" fill="none" xmlns="http://www.w3.org/2000/svg">
<path fill-rule="evenodd" clip-rule="evenodd" d="M0 280V0H148.008V8.00002H172.008V16H188.008V24H204.008V32H212.008V40H220.008V48H228.008V64H236.008V80H244.008V104H252.008V176H244.008V200H236.008V216H228.008V232H220.008V240H212.008V248H204.008V256H188.008V264H172.008V272H148.008V280H0ZM330 652V932H324.039V700H316.039V716H308.039V740H300.039V764H292.039V788H284.039V812H276.039V836H268.039V860H260.039V884H252.039V908H244.039V932H180.039V908H172.039V884H164.039V860H156.039V836H148.039V812H140.039V788H132.039V764H124.039V740H116.039V716H108.039V700H100.039V852C86.8391 852 76.0391 862.8 76.0391 876C76.0391 889.2 86.8391 900 100.039 900V932H28.0391V652H124.039V668H132.039V692H140.039V716H148.039V740H156.039V764H164.039V788H172.039V812H180.039V836H188.039V860H196.039V836H204.039V812H212.039V788H220.039V764H228.039V740H236.039V716H244.039V692H252.039V668H260.039V652H330ZM330 374V430H328.047V446H320.047V454H304.047V462H280.047V470H256.047V486H280.047V494H304.047V502H312.047V510H320.047V526H328.047V558H320.047V574H312.047V582H304.047V590H288.047V598H264.047V606H136.047V406C149.247 406 160.047 395.2 160.047 382C160.047 368.8 149.247 358 136.047 358V326H272.047V334H296.047V342H312.047V350H320.047V358H328.047V374H330ZM330 0V280H276.086V152C289.286 152 300.086 141.2 300.086 128C300.086 114.8 289.286 104 276.086 104V0H330ZM276.086 104C262.886 104 252.086 114.8 252.086 128C252.086 141.2 262.886 152 276.086 152V104ZM136.047 358C122.847 358 112.047 368.8 112.047 382C112.047 395.2 122.847 406 136.047 406V358ZM100.039 900V852C113.239 852 124.039 862.8 124.039 876C124.039 889.2 113.239 900 100.039 900ZM164.008 192H172.008V88H164.008V64H156.008V48H148.008V40H132.008V32H68.0078V64C54.8078 64 44.0078 74.8 44.0078 88C44.0078 101.2 54.8078 112 68.0078 112V248H132.008V240H148.008V232H156.008V216H164.008V192ZM68.0078 112C81.2078 112 92.0078 101.2 92.0078 88C92.0078 74.8 81.2078 64 68.0078 64V112ZM232.047 358H208.047V454H232.047V446H248.047V430H256.047V382H248.047V366H232.047V358ZM224.047 486H208.047V574H224.047V566H240.047V550H248.047V510H240.047V494H224.047V486Z" fill="#F3F2F0"/>
</svg>
