<svg width="105" height="860" viewBox="0 0 105 860" fill="none" xmlns="http://www.w3.org/2000/svg">
<path fill-rule="evenodd" clip-rule="evenodd" d="M0 200V80H7.01566V104H15.0157V176H7.01566V200H0ZM0 860V764H105V860H0ZM105 606H0V589.982C12.7664 589.481 23.0547 578.883 23.0547 566H103.055V550H105V606ZM105 326H0V366H105V326ZM105 0H39.0938V72H105V0ZM105 208V280H39.0938V208H105ZM105 446H0V494H103.055V510H105V446ZM0 542.018C12.7664 542.519 23.0547 553.117 23.0547 566H0V542.018Z" fill="#F3F2F0"/>
</svg>
