<svg width="279" height="932" viewBox="0 0 279 932" fill="none" xmlns="http://www.w3.org/2000/svg">
<path fill-rule="evenodd" clip-rule="evenodd" d="M0 398V326H278.063V398H70.0625V534H150.063C150.063 547.2 160.863 558 174.063 558C187.263 558 198.063 547.2 198.063 534H278.063V606H0V534H38.0625V398H0ZM0 724V652H210.102V724H186.102C186.102 710.8 175.302 700 162.102 700C148.902 700 138.102 710.8 138.102 724H106.102V932H74.1016V724H0ZM138.102 724C138.102 737.2 148.902 748 162.102 748C175.302 748 186.102 737.2 186.102 724H138.102ZM198.063 534C198.063 520.8 187.263 510 174.063 510C160.863 510 150.063 520.8 150.063 534H198.063ZM0 233.182V214.819C1.18227 217.65 1.83594 220.753 1.83594 224C1.83594 227.247 1.18227 230.35 0 233.182ZM0 88V0H1.83594V16H9.83594V40H17.8359V64H25.8359V88H33.8359V112H41.8359V136H49.8359V160H57.8359V184H65.8359V208H73.8359V184H81.8359V160H89.8359V136H97.836V112H105.836V88H113.836V64H121.836V40H129.836V16H137.836V0H233.836V280H201.836V48H193.836V64H185.836V88H177.836V112H169.836V136H161.836V160H153.836V184H145.836V208H137.836V232H129.836V256H121.836V280H57.8359V256H49.8359V232H41.8359V208H33.8359V184H25.8359V160H17.8359V136H9.83594V112H1.83594V88H0Z" fill="#F3F2F0"/>
</svg>
