<svg width="104" height="986" viewBox="0 0 104 986" fill="none" xmlns="http://www.w3.org/2000/svg">
<path fill-rule="evenodd" clip-rule="evenodd" d="M0 280V0H104V32H51.9611V64C38.7611 64 27.9611 74.8 27.9611 88C27.9611 101.2 38.7611 112 51.9611 112V248H104V280H0ZM0 606V326H40.047V606H0ZM35.922 986H0V978H35.922V986ZM104 860V932H0.0782863V652H104V724H32.0783V764H96.0783C96.0783 771.03 99.1419 777.38 104 781.78V820H32.0783V860H104ZM104 764H96.0783C96.0783 756.97 99.1419 750.62 104 746.22V764ZM104 334H95.9533V342H87.9533V350H79.9533V358H71.9533V374H63.9533V398H55.9533V422H63.9533V446H71.9533V462H79.9533V470H87.9533V478H95.9533V486H104V334ZM104 526V598H103.953V590H95.9533V582H87.9533V574H79.9533V558H71.9533V526H104ZM51.9611 112C65.1611 112 75.9611 101.2 75.9611 88C75.9611 74.8 65.1611 64 51.9611 64V112Z" fill="#F3F2F0"/>
</svg>
