<svg width="328" height="986" viewBox="0 0 328 986" fill="none" xmlns="http://www.w3.org/2000/svg">
<path fill-rule="evenodd" clip-rule="evenodd" d="M0 414V326H328V374H321.437V390H313.437V414H201.437C201.437 400.8 190.637 390 177.437 390C164.237 390 153.437 400.8 153.437 414H0ZM0 932V652H145.398V660H328V716H153.398V700H145.398V692H129.398V684H65.398V900H129.398V892H145.398V884H153.398V868H328V907.51C323.913 911.818 321.398 917.63 321.398 924H145.398V932H0ZM21.7105 986H0V978H21.7105V986ZM141.554 986H53.5542V978H141.554V986ZM328 940.49C323.913 936.182 321.398 930.37 321.398 924H328V940.49ZM153.437 414C153.437 427.2 164.237 438 177.437 438C190.637 438 201.437 427.2 201.437 414H153.437ZM328 48H129.671V72H137.671V88H145.671V96H161.671V104H328V176H129.671V168H113.671V160H97.6714V152H89.6714V144H81.6714V136H73.6714V120H65.6714V96H57.6714V72H65.6714V48H73.6714V32H81.6714V24H89.6714V16H97.6714V8.00002H113.671V0H328V48ZM328 256V288H145.671V280H121.671V272H105.671V264H97.6714V256H89.6714V248H81.6714V232H73.6714V200H137.671V240H145.671V256H328ZM0 280V208H41.5933V280H0ZM0 72V0H41.5933V72H0Z" fill="#F3F2F0"/>
</svg>
