<svg width="105" height="932" viewBox="0 0 105 932" fill="none" xmlns="http://www.w3.org/2000/svg">
<path fill-rule="evenodd" clip-rule="evenodd" d="M0 248V32H5.00783V40H13.0078V48H21.0078V64H29.0078V80H37.0078V104H45.0078V176H37.0078V200H29.0078V216H21.0078V232H13.0078V240H5.00783V248H0ZM0 606V326H65.0469V334H89.0469V342H105V454H97.0469V462H73.0469V470H49.0469V486H73.0469V494H97.0469V502H105V582H97.0469V590H81.0469V598H57.0469V606H0ZM0 932V812H5.03906V788H13.0391V764H21.0391V740H29.0391V716H37.0391V692H45.0391V668H53.0391V652H105V716H101.039V740H93.0391V764H85.0391V788H77.0391V812H69.0391V836H61.0391V860H53.0391V884H45.0391V908H37.0391V932H0ZM105 0V280H69.0859V152C82.2859 152 93.0859 141.2 93.0859 128C93.0859 114.8 82.2859 104 69.0859 104V0H105ZM69.0859 104C55.8859 104 45.0859 114.8 45.0859 128C45.0859 141.2 55.8859 152 69.0859 152V104ZM25.0469 358H1.04688V454H25.0469V446H41.0469V430H49.0469V382H41.0469V366H25.0469V358ZM17.0469 486H1.04688V574H17.0469V566H33.0469V550H41.0469V510H33.0469V494H17.0469V486Z" fill="#F3F2F0"/>
</svg>
