<svg width="105" height="986" viewBox="0 0 105 986" fill="none" xmlns="http://www.w3.org/2000/svg">
<path fill-rule="evenodd" clip-rule="evenodd" d="M0 280V0H105V32H52.9609V64C39.7609 64 28.9609 74.8 28.9609 88C28.9609 101.2 39.7609 112 52.9609 112V248H105V280H0ZM0 606V326H41.0469V606H0ZM36.9219 986H0V978H36.9219V986ZM105 860V932H1.07811V652H105V724H33.0781V764H97.0781C97.0781 771.03 100.142 777.38 105 781.78V820H33.0781V860H105ZM105 764H97.0781C97.0781 756.97 100.142 750.62 105 746.22V764ZM105 334H96.9531V342H88.9531V350H80.9531V358H72.9531V374H64.9531V398H56.9531V422H64.9531V446H72.9531V462H80.9531V470H88.9531V478H96.9531V486H105V334ZM105 526V598H104.953V590H96.9531V582H88.9531V574H80.9531V558H72.9531V526H105ZM52.9609 112C66.1609 112 76.9609 101.2 76.9609 88C76.9609 74.8 66.1609 64 52.9609 64V112Z" fill="#F3F2F0"/>
</svg>
