<svg width="1152" height="940" viewBox="0 0 1152 940" fill="none" xmlns="http://www.w3.org/2000/svg">
<path fill-rule="evenodd" clip-rule="evenodd" d="M248.008 88V112H256.008V184H248.008V208H240.008V224H232.008V240H224.008V248H216.008V256H208.008V264H192.008V272H176.008V280H152.008V288H0.0078125V7.99999H152.008V16H176.008V24H192.008V32H208.008V40H216.008V48H224.008V56H232.008V72H240.008V88H248.008ZM168.008 200H176.008V96H168.008V72H160.008V56H152.008V48H136.008V40H72.0078V72C58.8078 72 48.0078 82.8 48.0078 96C48.0078 109.2 58.8078 120 72.0078 120V256H136.008V248H152.008V240H160.008V224H168.008V200ZM72.0078 72C85.2078 72 96.0078 82.8 96.0078 96C96.0078 109.2 85.2078 120 72.0078 120V72ZM280.086 112V7.99999H352.086V288H280.086V160C293.286 160 304.086 149.2 304.086 136C304.086 122.8 293.286 112 280.086 112ZM280.086 112C266.886 112 256.086 122.8 256.086 136C256.086 149.2 266.886 160 280.086 160V112ZM375.992 104H367.992V80H375.992V56H383.992V40H391.992V32H399.992V24H407.992V16H423.992V7.99999H447.992V0H487.992V7.99999H511.992V16H527.992V24H535.992V32H543.992V40H551.992V56H559.992V96H495.992V56H487.992V40H479.992V32H455.992V40H447.992V56H439.992V80H447.992V96H455.992V104H471.992V112H487.992V120H503.992V128H518.142C514.323 132.254 511.992 137.868 511.992 144C511.992 157.2 522.792 168 535.992 168C538.794 168 541.487 167.514 543.992 166.621V168H551.992V192H559.992V216H551.992V240H543.992V256H535.992V264H527.992V272H519.992V280H503.992V288H479.992V296H455.992V288H431.992V280H415.992V272H407.992V264H399.992V256H391.992V240H383.992V208H447.992V248H455.992V264H479.992V248H487.992V216H479.992V200H471.992V192H455.992V184H439.992V176H423.992V168H407.992V160H399.992V152H391.992V144H383.992V128H375.992V104ZM543.992 166.621C553.29 163.308 559.992 154.398 559.992 144C559.992 130.8 549.192 120 535.992 120C528.924 120 522.544 123.097 518.142 128H519.992V136H527.992V144H535.992V152H543.992V166.621ZM791.992 288H583.992V7.99999H791.992V80H615.992V120H679.992C679.992 133.2 690.792 144 703.992 144C717.192 144 727.992 133.2 727.992 120H759.992V176H615.992V216H791.992V288ZM679.992 120H727.992C727.992 106.8 717.192 96 703.992 96C690.792 96 679.992 106.8 679.992 120ZM1151.84 7.99999V288H1119.84V56H1111.84V72H1103.84V96H1095.84V120H1087.84V144H1079.84V168H1071.84V192H1063.84V216H1055.84V240H1047.84V264H1039.84V288H975.836V264H967.836V240H959.836V216H951.836V192H943.836V168H935.836V144H927.836V120H919.836V96H911.836V72H903.836V56H895.836V208C882.636 208 871.836 218.8 871.836 232C871.836 245.2 882.636 256 895.836 256V288H823.836V7.99999H919.836V24H927.836V48H935.836V72H943.836V96H951.836V120H959.836V144H967.836V168H975.836V192H983.836V216H991.836V192H999.836V168H1007.84V144H1015.84V120H1023.84V96H1031.84V72H1039.84V48H1047.84V24H1055.84V7.99999H1151.84ZM895.836 256V208C909.036 208 919.836 218.8 919.836 232C919.836 245.2 909.036 256 895.836 256ZM140.047 366V334H276.047V342H300.047V350H316.047V358H324.047V366H332.047V382H340.047V438H332.047V454H324.047V462H308.047V470H284.047V478H260.047V494H284.047V502H308.047V510H316.047V518H324.047V534H332.047V566H324.047V582H316.047V590H308.047V598H292.047V606H268.047V614H140.047V414C153.247 414 164.047 403.2 164.047 390C164.047 376.8 153.247 366 140.047 366ZM140.047 366C126.847 366 116.047 376.8 116.047 390C116.047 403.2 126.847 414 140.047 414V366ZM236.047 366H212.047V462H236.047V454H252.047V438H260.047V390H252.047V374H236.047V366ZM228.047 494H212.047V582H228.047V574H244.047V558H252.047V518H244.047V502H228.047V494ZM355.875 518V430H363.875V406H371.875V390H379.875V374H387.875V366H395.875V358H403.875V350H419.875V342H435.875V334H459.875V326H531.875V334H555.875V342H571.875V350H587.875V358H595.875V366H603.875V374H611.875V390H619.875V406H627.875V430H635.875V518H627.875V542H619.875V558H611.875V574H603.875V582H595.875V590H587.875V598H571.875V606H555.875V614H531.875V622H459.875V614H435.875V606H419.875V598H403.875V590H395.875V582H387.875V574H379.875V558H371.875V542H363.875V518H355.875ZM475.875 582V590H515.875V582H531.875V574H539.875V558H547.875V534H555.875V414H547.875V390H539.875V374H531.875V366H515.875V358H475.875V366H459.875V374H451.875V390H443.875V414H435.875V430C422.675 430 411.875 440.8 411.875 454C411.875 467.2 422.675 478 435.875 478V534H443.875V558H451.875V574H459.875V582H475.875ZM435.875 478V430C449.075 430 459.875 440.8 459.875 454C459.875 467.2 449.075 478 435.875 478ZM907.969 414V438H915.969V510H907.969V534H899.969V550H891.969V566H883.969V574H875.969V582H867.969V590H851.969V598H835.969V606H811.969V614H659.969V334H811.969V342H835.969V350H851.969V358H867.969V366H875.969V374H883.969V382H891.969V398H899.969V414H907.969ZM827.969 526H835.969V422H827.969V398H819.969V382H811.969V374H795.969V366H731.969V398C718.769 398 707.969 408.8 707.969 422C707.969 435.2 718.769 446 731.969 446V582H795.969V574H811.969V566H819.969V550H827.969V526ZM731.969 398C745.169 398 755.969 408.8 755.969 422C755.969 435.2 745.169 446 731.969 446V398ZM940.047 438V334H1012.05V614H940.047V486C953.247 486 964.047 475.2 964.047 462C964.047 448.8 953.247 438 940.047 438ZM940.047 438C926.847 438 916.047 448.8 916.047 462C916.047 475.2 926.847 486 940.047 486V438ZM360.039 660V940H328.039V708H320.039V724H312.039V748H304.039V772H296.039V796H288.039V820H280.039V844H272.039V868H264.039V892H256.039V916H248.039V940H184.039V916H176.039V892H168.039V868H160.039V844H152.039V820H144.039V796H136.039V772H128.039V748H120.039V724H112.039V708H104.039V860C90.8391 860 80.0391 870.8 80.0391 884C80.0391 897.2 90.8391 908 104.039 908V940H32.0391V660H128.039V676H136.039V700H144.039V724H152.039V748H160.039V772H168.039V796H176.039V820H184.039V844H192.039V868H200.039V844H208.039V820H216.039V796H224.039V772H232.039V748H240.039V724H248.039V700H256.039V676H264.039V660H360.039ZM104.039 908V860C117.239 860 128.039 870.8 128.039 884C128.039 897.2 117.239 908 104.039 908ZM600.195 940H392.195V660H600.195V732H424.195V772H488.195C488.195 785.2 498.995 796 512.195 796C525.395 796 536.195 785.2 536.195 772H568.195V828H424.195V868H600.195V940ZM488.195 772H536.195C536.195 758.8 525.395 748 512.195 748C498.995 748 488.195 758.8 488.195 772ZM792.039 660H864.039V940H776.039V924H768.039V900H760.039V876H752.039V852H744.039V828H736.039V804H728.039V780H720.039V756H712.039V732H704.039V940H632.039V660H720.039V684H728.039V708H736.039V732H744.039V756H752.039V780H760.039V804H768.039V828H776.039V852H784.039V876H792.039V732C805.239 732 816.039 721.2 816.039 708C816.039 694.8 805.239 684 792.039 684V660ZM792.039 684C778.839 684 768.039 694.8 768.039 708C768.039 721.2 778.839 732 792.039 732V684ZM888.102 732V660H1128.1V732H1104.1C1104.1 718.8 1093.3 708 1080.1 708C1066.9 708 1056.1 718.8 1056.1 732H1024.1V940H992.102V732H888.102ZM1056.1 732C1056.1 745.2 1066.9 756 1080.1 756C1093.3 756 1104.1 745.2 1104.1 732H1056.1Z" fill="#F3F2F0"/>
</svg>
