<svg width="3417" height="279" viewBox="0 0 3417 279" fill="none" xmlns="http://www.w3.org/2000/svg">
<rect width="3417" height="279" fill=""/>
<path d="M1479.47 111.609V96.2641H1474.36V86.0343H1469.24V75.8045H1464.13V70.6896H1459.02V65.5747H1453.91V60.4598H1443.68V55.3449H1433.46V50.23H1418.13V45.1151H1321V224.136H1418.13V219.021H1433.46V213.907H1443.68V208.792H1453.91V203.677H1459.02V198.562H1464.13V193.447H1469.24V183.217H1474.36V172.987H1479.47V157.643H1484.58V111.609H1479.47ZM1433.46 167.873H1428.35V183.217H1423.24V193.447H1418.13V198.562H1407.9V203.677H1367.01V116.724C1358.57 116.724 1351.67 109.819 1351.67 101.379C1351.67 92.9394 1358.57 86.0343 1367.01 86.0343V65.5747H1407.9V70.6896H1418.13V75.8045H1423.24V86.0343H1428.35V101.379H1433.46V167.873ZM1382.34 101.379C1382.34 92.9394 1375.44 86.0343 1367.01 86.0343V116.724C1375.44 116.724 1382.34 109.819 1382.34 101.379Z" fill="#D2030F"/>
<path d="M1499.97 45.1151V224.136H1545.97V45.1151H1499.97ZM1499.97 142.298C1491.53 142.298 1484.63 135.393 1484.63 126.953C1484.63 118.514 1491.53 111.609 1499.97 111.609C1508.4 111.609 1515.3 118.514 1515.3 126.953C1515.3 135.393 1508.4 142.298 1499.97 142.298Z" fill="#D2030F"/>
<path d="M1556.14 106.494H1561.25V121.839H1566.36V132.068H1571.47V137.183H1576.58V142.298H1581.7V147.413H1591.92V152.528H1602.14V157.643H1612.37V162.758H1622.59V167.873H1627.7V178.102H1632.81V198.562H1627.7V208.792H1612.37V198.562H1607.25V172.987H1566.36V193.447H1571.47V203.677H1576.58V208.792H1581.7V213.907H1586.81V219.021H1597.03V224.136H1612.37V229.251H1627.7V224.136H1643.04V219.021H1653.26V213.907H1658.37V208.792H1663.49V203.677H1668.6V193.447H1673.71V178.102H1678.82V162.758H1673.71V147.413H1668.6V137.183H1663.49V132.068H1658.37V126.953H1653.26V121.839H1643.04V116.724H1632.81V111.609H1622.59V106.494H1612.37V101.379H1607.25V91.1492H1602.14V75.8045H1607.25V65.5747H1612.37V60.4598H1627.7V65.5747H1632.81V75.8045H1637.93V101.379H1678.82V75.8045H1673.71V65.5747H1668.6V60.4598H1663.49V55.3449H1658.37V50.23H1648.15V45.1151H1632.81V40.0002H1607.25V45.1151H1591.92V50.23H1581.7V55.3449H1576.58V60.4598H1571.47V65.5747H1566.36V75.8045H1561.25V91.1492H1556.14V106.494ZM1663.49 147.413C1655.05 147.413 1648.15 140.508 1648.15 132.068C1648.15 123.629 1655.05 116.724 1663.49 116.724C1671.92 116.724 1678.82 123.629 1678.82 132.068C1678.82 140.508 1671.92 147.413 1663.49 147.413Z" fill="#D2030F"/>
<path d="M1694.16 224.136H1827.07V178.102H1714.6V152.528H1806.62V116.724H1714.6V91.1492H1827.07V45.1151H1694.16V224.136ZM1770.83 132.068C1762.4 132.068 1755.5 125.163 1755.5 116.724C1755.5 108.284 1762.4 101.379 1770.83 101.379C1779.27 101.379 1786.17 108.284 1786.17 116.724C1786.17 125.163 1779.27 132.068 1770.83 132.068Z" fill="#D2030F"/>
<path d="M2057 224.136V45.1151H1995.66V55.3449H1990.55V70.6896H1985.43V86.0343H1980.32V101.379H1975.21V116.724H1970.1V132.068H1964.99V147.413H1959.87V162.758H1954.76V178.102H1949.65V162.758H1944.54V147.413H1939.43V132.068H1934.32V116.724H1929.2V101.379H1924.09V86.0343H1918.98V70.6896H1913.87V55.3449H1908.76V45.1151H1847.41V224.136H1893.42V75.8045H1898.53V86.0343H1903.64V101.379H1908.76V116.724H1913.87V132.068H1918.98V147.413H1924.09V162.758H1929.2V178.102H1934.32V193.447H1939.43V208.792H1944.54V224.136H1985.43V208.792H1990.55V193.447H1995.66V178.102H2000.77V162.758H2005.88V147.413H2010.99V132.068H2016.1V116.724H2021.22V101.379H2026.33V86.0343H2031.44V75.8045H2036.55V224.136H2057ZM1893.42 203.677C1884.99 203.677 1878.08 196.772 1878.08 188.332C1878.08 179.893 1884.99 172.987 1893.42 172.987C1901.85 172.987 1908.76 179.893 1908.76 188.332C1908.76 196.772 1901.85 203.677 1893.42 203.677Z" fill="#D2030F"/>
<path d="M2090.84 45.1149V224.136H2172.63V219.021H2187.96V213.906H2198.18V208.791H2203.3V203.677H2208.41V193.447H2213.52V172.987H2208.41V162.757H2203.3V157.643H2198.18V152.528H2182.85V147.413H2167.51V137.183H2182.85V132.068H2198.18V126.953H2208.41V121.838H2213.52V111.609H2218.63V75.8042H2213.52V65.5745H2208.41V60.4596H2203.3V55.3447H2193.07V50.2298H2177.74V45.1149H2090.84ZM2090.84 96.2638C2082.4 96.2638 2075.5 89.3587 2075.5 80.9192C2075.5 72.4796 2082.4 65.5745 2090.84 65.5745C2099.27 65.5745 2106.17 72.4796 2106.17 80.9192C2106.17 89.3587 2099.27 96.2638 2090.84 96.2638ZM2136.84 65.5745H2152.18V70.6894H2162.4V80.9192H2167.51V111.609H2162.4V121.838H2152.18V126.953H2136.84V65.5745ZM2136.84 147.413H2147.07V152.528H2157.29V162.757H2162.4V188.332H2157.29V198.562H2147.07V203.677H2136.84V147.413Z" fill="#D2030F"/>
<path d="M2228.75 106.494V162.757H2233.86V178.102H2238.97V188.332H2244.08V198.562H2249.19V203.677H2254.31V208.791H2259.42V213.906H2269.64V219.021H2279.87V224.136H2295.2V229.251H2341.21V224.136H2356.54V219.021H2366.77V213.906H2376.99V208.791H2382.1V203.677H2387.21V198.562H2392.33V188.332H2397.44V178.102H2402.55V162.757H2407.66V106.494H2402.55V91.1489H2397.44V80.9192H2392.33V70.6894H2387.21V65.5745H2382.1V60.4596H2376.99V55.3447H2366.77V50.2298H2356.54V45.1149H2341.21V40H2295.2V45.1149H2279.87V50.2298H2269.64V55.3447H2259.42V60.4596H2254.31V65.5745H2249.19V70.6894H2244.08V80.9192H2238.97V91.1489H2233.86V106.494H2228.75ZM2305.42 208.791V203.677H2295.2V198.562H2290.09V188.332H2284.98V172.987H2279.87V96.2638H2284.98V80.9192H2290.09V70.6894H2295.2V65.5745H2305.42V60.4596H2330.98V65.5745H2341.21V70.6894H2346.32V80.9192H2351.43V96.2638H2356.54V172.987H2351.43V188.332H2346.32V198.562H2341.21V203.677H2330.98V208.791H2305.42ZM2279.87 137.183C2271.43 137.183 2264.53 130.278 2264.53 121.838C2264.53 113.399 2271.43 106.494 2279.87 106.494C2288.3 106.494 2295.2 113.399 2295.2 121.838C2295.2 130.278 2288.3 137.183 2279.87 137.183Z" fill="#D2030F"/>
<path d="M2581.53 111.609V96.2638H2576.41V86.034H2571.3V75.8042H2566.19V70.6894H2561.08V65.5745H2555.97V60.4596H2545.74V55.3447H2535.52V50.2298H2520.18V45.1149H2423.06V224.136H2520.18V219.021H2535.52V213.906H2545.74V208.791H2555.97V203.677H2561.08V198.562H2566.19V193.447H2571.3V183.217H2576.41V172.987H2581.53V157.643H2586.64V111.609H2581.53ZM2535.52 167.872H2530.41V183.217H2525.29V193.447H2520.18V198.562H2509.96V203.677H2469.06V116.723C2460.63 116.723 2453.73 109.818 2453.73 101.379C2453.73 92.9392 2460.63 86.034 2469.06 86.034V65.5745H2509.96V70.6894H2520.18V75.8042H2525.29V86.034H2530.41V101.379H2535.52V167.872ZM2484.4 101.379C2484.4 92.9392 2477.5 86.034 2469.06 86.034V116.723C2477.5 116.723 2484.4 109.818 2484.4 101.379Z" fill="#D2030F"/>
<path d="M2602.02 45.1149V224.136H2648.03V45.1149H2602.02ZM2602.02 142.298C2593.59 142.298 2586.69 135.393 2586.69 126.953C2586.69 118.514 2593.59 111.609 2602.02 111.609C2610.46 111.609 2617.36 118.514 2617.36 126.953C2617.36 135.393 2610.46 142.298 2602.02 142.298Z" fill="#D2030F"/>
<path d="M2889.09 224.137V45.1159H2827.74V55.3457H2822.63V70.6903H2817.52V86.035H2812.41V101.38H2807.3V116.724H2802.18V132.069H2797.07V147.414H2791.96V162.758H2786.85V178.103H2781.74V162.758H2776.63V147.414H2771.51V132.069H2766.4V116.724H2761.29V101.38H2756.18V86.035H2751.07V70.6903H2745.95V55.3457H2740.84V45.1159H2679.5V224.137H2725.51V75.8053H2730.62V86.035H2735.73V101.38H2740.84V116.724H2745.95V132.069H2751.07V147.414H2756.18V162.758H2761.29V178.103H2766.4V193.448H2771.51V208.792H2776.63V224.137H2817.52V208.792H2822.63V193.448H2827.74V178.103H2832.86V162.758H2837.97V147.414H2843.08V132.069H2848.19V116.724H2853.3V101.38H2858.42V86.035H2863.53V75.8053H2868.64V224.137H2889.09ZM2725.51 203.678C2717.07 203.678 2710.17 196.772 2710.17 188.333C2710.17 179.893 2717.07 172.988 2725.51 172.988C2733.94 172.988 2740.84 179.893 2740.84 188.333C2740.84 196.772 2733.94 203.678 2725.51 203.678Z" fill="#D2030F"/>
<path d="M2909.63 224.137H3042.54V178.103H2930.08V152.529H3022.1V116.724H2930.08V91.1499H3042.54V45.1159H2909.63V224.137ZM2986.31 132.069C2977.88 132.069 2970.98 125.164 2970.98 116.724C2970.98 108.285 2977.88 101.38 2986.31 101.38C2994.75 101.38 3001.65 108.285 3001.65 116.724C3001.65 125.164 2994.75 132.069 2986.31 132.069Z" fill="#D2030F"/>
<path d="M3211.13 45.1159H3165.13V183.218H3160.02V167.873H3154.9V152.529H3149.79V137.184H3144.68V121.839H3139.57V106.495H3134.46V91.1499H3129.34V75.8053H3124.23V60.4606H3119.12V45.1159H3062.89V224.137H3108.9V91.1499H3114.01V106.495H3119.12V121.839H3124.23V137.184H3129.34V152.529H3134.46V167.873H3139.57V183.218H3144.68V198.563H3149.79V213.907H3154.9V224.137H3211.13V45.1159ZM3165.13 91.1499C3156.69 91.1499 3149.79 84.2448 3149.79 75.8053C3149.79 67.3657 3156.69 60.4606 3165.13 60.4606C3173.56 60.4606 3180.46 67.3657 3180.46 75.8053C3180.46 84.2448 3173.56 91.1499 3165.13 91.1499Z" fill="#D2030F"/>
<path d="M3226.51 45.1159V91.1499H3292.96V224.137H3313.41V91.1499H3333.86C3333.86 82.7103 3340.76 75.8053 3349.2 75.8053C3357.63 75.8053 3364.53 82.7103 3364.53 91.1499H3379.87V45.1159H3226.51ZM3349.2 106.495C3357.63 106.495 3364.53 99.5895 3364.53 91.1499H3333.86C3333.86 99.5895 3340.76 106.495 3349.2 106.495Z" fill="#D2030F"/>
<path d="M979.124 153.262C979.124 153.528 979.216 153.774 979.4 154H994.658C994.966 153.692 995.12 153.231 995.12 152.616C995.12 152.493 995.099 152.339 995.058 152.154C995.038 151.97 995.017 151.826 994.997 151.724C993.664 151.683 992.587 151.498 991.767 151.17C990.946 150.821 990.536 150.093 990.536 148.986C990.536 146.75 990.895 143.941 991.613 140.557C992.351 137.153 993.366 132.979 994.658 128.037C995.376 125.289 995.899 123.208 996.227 121.792C996.494 120.644 996.863 119.752 997.334 119.116C997.827 118.48 998.452 118.04 999.211 117.793C999.99 117.527 1000.97 117.394 1002.16 117.394C1002.59 116.819 1002.81 116.266 1002.81 115.732C1002.81 115.63 1002.78 115.517 1002.72 115.394C1002.66 115.25 1002.62 115.158 1002.59 115.117H987.337C987.029 115.425 986.875 115.886 986.875 116.501C986.875 116.625 986.886 116.778 986.906 116.963C986.947 117.127 986.978 117.271 986.999 117.394C988.332 117.435 989.408 117.619 990.229 117.947C991.049 118.275 991.459 118.983 991.459 120.07C991.459 122.326 991.09 125.135 990.352 128.499C989.634 131.841 988.608 136.097 987.275 141.265C986.353 144.812 985.84 146.833 985.737 147.325C985.348 148.986 984.702 150.124 983.799 150.739C982.897 151.354 981.564 151.662 979.8 151.662C979.616 151.867 979.462 152.124 979.339 152.431C979.195 152.718 979.124 152.995 979.124 153.262ZM1006.53 132.313C1006.53 130.139 1007.34 129.052 1008.96 129.052C1009.99 129.052 1010.9 129.237 1011.7 129.606C1012.52 129.975 1013.22 130.416 1013.79 130.929C1014.39 131.441 1015.03 132.087 1015.73 132.867C1016.43 133.625 1016.99 134.179 1017.42 134.528C1017.85 134.856 1018.3 135.02 1018.78 135.02C1019.23 135.02 1019.61 134.876 1019.91 134.589C1020.22 134.302 1020.38 133.954 1020.38 133.543C1020.38 132.087 1019.89 130.836 1018.93 129.791C1017.97 128.724 1016.77 127.924 1015.33 127.391C1013.89 126.858 1012.48 126.591 1011.08 126.591C1009.71 126.591 1008.38 126.796 1007.09 127.207C1005.81 127.617 1004.76 128.273 1003.92 129.175C1003.08 130.078 1002.66 131.236 1002.66 132.651C1002.66 133.964 1002.93 135.133 1003.49 136.158C1004.06 137.184 1004.75 138.055 1005.55 138.773C1006.37 139.491 1007.46 140.332 1008.81 141.295C1010.04 142.157 1011 142.905 1011.7 143.541C1012.42 144.156 1013.02 144.884 1013.52 145.725C1014.01 146.545 1014.25 147.468 1014.25 148.494C1014.25 149.704 1014.03 150.575 1013.58 151.108C1013.13 151.621 1012.5 151.877 1011.7 151.877C1009.08 151.775 1007.06 151.16 1005.64 150.032C1004.25 148.883 1003.29 147.899 1002.78 147.079C1002.29 146.238 1002.02 145.817 1001.98 145.817C1000.15 145.817 999.242 146.586 999.242 148.125C999.242 149.519 999.826 150.708 1001 151.693C1002.18 152.657 1003.63 153.385 1005.33 153.877C1007.03 154.349 1008.65 154.584 1010.19 154.584C1012.53 154.584 1014.49 154.072 1016.07 153.046C1017.67 152 1018.47 150.37 1018.47 148.155C1018.47 146.556 1018.13 145.141 1017.45 143.91C1016.78 142.68 1015.96 141.644 1014.99 140.803C1014.05 139.962 1012.82 139.009 1011.3 137.942C1010.19 137.163 1009.32 136.517 1008.69 136.004C1008.07 135.492 1007.56 134.928 1007.15 134.312C1006.74 133.697 1006.53 133.031 1006.53 132.313ZM1029.17 132.313C1029.17 130.139 1029.98 129.052 1031.6 129.052C1032.63 129.052 1033.54 129.237 1034.34 129.606C1035.16 129.975 1035.86 130.416 1036.43 130.929C1037.03 131.441 1037.67 132.087 1038.37 132.867C1039.07 133.625 1039.63 134.179 1040.06 134.528C1040.49 134.856 1040.94 135.02 1041.42 135.02C1041.87 135.02 1042.25 134.876 1042.55 134.589C1042.86 134.302 1043.02 133.954 1043.02 133.543C1043.02 132.087 1042.53 130.836 1041.57 129.791C1040.61 128.724 1039.41 127.924 1037.97 127.391C1036.54 126.858 1035.12 126.591 1033.73 126.591C1032.35 126.591 1031.02 126.796 1029.73 127.207C1028.46 127.617 1027.4 128.273 1026.56 129.175C1025.72 130.078 1025.3 131.236 1025.3 132.651C1025.3 133.964 1025.57 135.133 1026.13 136.158C1026.7 137.184 1027.39 138.055 1028.19 138.773C1029.01 139.491 1030.1 140.332 1031.45 141.295C1032.68 142.157 1033.64 142.905 1034.34 143.541C1035.06 144.156 1035.66 144.884 1036.16 145.725C1036.65 146.545 1036.89 147.468 1036.89 148.494C1036.89 149.704 1036.67 150.575 1036.22 151.108C1035.77 151.621 1035.14 151.877 1034.34 151.877C1031.72 151.775 1029.7 151.16 1028.28 150.032C1026.89 148.883 1025.93 147.899 1025.42 147.079C1024.93 146.238 1024.66 145.817 1024.62 145.817C1022.79 145.817 1021.88 146.586 1021.88 148.125C1021.88 149.519 1022.47 150.708 1023.64 151.693C1024.83 152.657 1026.27 153.385 1027.97 153.877C1029.68 154.349 1031.3 154.584 1032.83 154.584C1035.17 154.584 1037.13 154.072 1038.71 153.046C1040.31 152 1041.11 150.37 1041.11 148.155C1041.11 146.556 1040.77 145.141 1040.09 143.91C1039.42 142.68 1038.6 141.644 1037.63 140.803C1036.69 139.962 1035.46 139.009 1033.94 137.942C1032.83 137.163 1031.96 136.517 1031.33 136.004C1030.71 135.492 1030.2 134.928 1029.79 134.312C1029.38 133.697 1029.17 133.031 1029.17 132.313ZM1058.89 130.313C1058.89 129.124 1058.58 128.211 1057.97 127.576C1057.35 126.919 1056.34 126.591 1054.92 126.591C1052.85 126.591 1050.88 127.535 1049.01 129.421C1047.15 131.308 1045.6 133.482 1044.37 135.943L1046 137.419C1046.14 137.235 1046.28 137.03 1046.4 136.804C1046.52 136.579 1046.65 136.363 1046.77 136.158C1047.79 134.415 1048.77 132.969 1049.69 131.821C1050.61 130.652 1051.53 130.067 1052.43 130.067C1052.9 130.067 1053.27 130.221 1053.54 130.529C1053.82 130.816 1053.97 131.195 1053.97 131.667C1053.97 132.057 1053.83 132.621 1053.57 133.359C1053.32 134.077 1052.89 135.215 1052.27 136.773C1051.17 139.501 1050.29 141.89 1049.63 143.941C1048.99 145.992 1048.68 147.848 1048.68 149.509C1048.68 152.893 1050.37 154.584 1053.75 154.584C1055.62 154.584 1057.5 153.682 1059.41 151.877C1061.34 150.052 1063.08 147.96 1064.64 145.602C1066.2 143.244 1067.94 140.383 1069.87 137.02C1070.59 135.707 1071.2 134.641 1071.72 133.82L1072.21 134.066L1071.44 136.097L1071.1 136.958C1070.06 139.686 1069.21 142.095 1068.58 144.187C1067.96 146.279 1067.66 148.217 1067.66 150.001C1067.66 151.313 1068.01 152.411 1068.73 153.292C1069.45 154.154 1070.47 154.584 1071.78 154.584C1072.93 154.584 1073.97 154.328 1074.92 153.815C1075.86 153.303 1076.73 152.605 1077.53 151.724C1078.33 150.842 1079.19 149.704 1080.11 148.309L1081.87 145.879L1080.11 144.464L1078.33 146.956C1077.2 148.535 1076.3 149.642 1075.62 150.278C1074.97 150.893 1074.27 151.201 1073.53 151.201C1072.69 151.201 1072.27 150.596 1072.27 149.386C1072.27 148.729 1072.43 147.807 1072.76 146.617L1077.25 131.513C1077.42 130.775 1077.5 130.149 1077.5 129.637C1077.5 128.796 1077.33 128.078 1076.98 127.483C1076.65 126.889 1076.18 126.591 1075.56 126.591C1074.52 126.591 1073.53 127.083 1072.61 128.068C1071.71 129.032 1070.69 130.365 1069.56 132.067L1068.79 133.205C1068.42 133.759 1067.71 134.876 1066.64 136.558C1063.95 140.824 1061.64 144.269 1059.69 146.894C1057.76 149.519 1056.28 150.832 1055.26 150.832C1054.75 150.832 1054.34 150.637 1054.03 150.247C1053.72 149.857 1053.57 149.375 1053.57 148.801C1053.57 147.858 1053.77 146.72 1054.18 145.387C1054.61 144.054 1055.25 142.321 1056.09 140.188C1057.01 137.83 1057.71 135.892 1058.18 134.374C1058.65 132.836 1058.89 131.482 1058.89 130.313ZM1098.82 126.591C1096.27 126.591 1093.89 127.278 1091.65 128.652C1089.41 130.006 1087.62 131.852 1086.27 134.189C1084.93 136.507 1084.27 139.04 1084.27 141.788C1084.27 144.105 1084.79 146.248 1085.84 148.217C1086.88 150.165 1088.3 151.713 1090.08 152.862C1091.89 154.01 1093.83 154.584 1095.93 154.584C1098.26 154.584 1100.49 153.856 1102.6 152.4C1104.71 150.924 1106.6 149.027 1108.26 146.709L1106.11 145.325C1105.06 146.617 1104.11 147.694 1103.25 148.555C1102.39 149.417 1101.38 150.134 1100.23 150.708C1099.08 151.283 1097.8 151.57 1096.39 151.57C1095.16 151.57 1094.03 151.231 1093 150.555C1091.98 149.857 1091.17 148.965 1090.57 147.878C1089.98 146.771 1089.68 145.633 1089.68 144.464L1089.71 143.295C1092.4 143.11 1095 142.792 1097.53 142.341C1100.05 141.87 1102.33 140.988 1104.39 139.696C1106.46 138.404 1107.49 136.599 1107.49 134.282C1107.49 132.641 1107.05 131.247 1106.17 130.098C1105.31 128.929 1104.21 128.058 1102.88 127.483C1101.54 126.889 1100.19 126.591 1098.82 126.591ZM1098.85 128.837C1099.59 128.837 1100.28 129.042 1100.94 129.452C1101.62 129.842 1102.16 130.396 1102.57 131.113C1102.98 131.811 1103.19 132.59 1103.19 133.451C1103.19 135.071 1102.46 136.456 1101 137.604C1099.57 138.752 1097.87 139.624 1095.93 140.219C1094 140.793 1092.34 141.08 1090.94 141.08C1090.76 141.08 1090.36 141.06 1089.74 141.019C1089.85 139.234 1090.27 137.399 1091 135.512C1091.76 133.625 1092.81 132.046 1094.14 130.775C1095.47 129.483 1097.04 128.837 1098.85 128.837ZM1142.01 122.961C1139.81 122.961 1137.81 123.361 1136.01 124.161C1134.22 124.961 1132.81 126.038 1131.76 127.391C1130.74 128.745 1130.23 130.221 1130.23 131.821C1130.23 133.256 1130.55 134.61 1131.21 135.881C1131.89 137.153 1132.63 138.229 1133.46 139.111C1134.28 139.973 1134.98 140.619 1135.58 141.049C1134.53 141.603 1133.24 142.444 1131.7 143.572C1130.18 144.679 1128.74 146.156 1127.36 148.001C1126.01 149.847 1125.33 151.857 1125.33 154.031C1125.33 155.425 1125.73 156.646 1126.53 157.691C1127.33 158.737 1128.46 159.547 1129.92 160.122C1131.39 160.696 1133.11 160.983 1135.05 160.983C1137.02 160.983 1139.01 160.562 1141.02 159.722C1143.03 158.881 1144.69 157.661 1146.01 156.061C1147.32 154.482 1147.97 152.636 1147.97 150.524C1147.97 149.129 1147.67 147.858 1147.05 146.709C1146.44 145.541 1145.74 144.577 1144.96 143.818C1144.18 143.039 1143.3 142.259 1142.31 141.48C1141.84 141.111 1141.52 140.844 1141.36 140.68C1142.3 140.291 1143.47 139.614 1144.87 138.65C1146.28 137.666 1147.56 136.435 1148.71 134.958C1149.86 133.461 1150.44 131.852 1150.44 130.129C1150.44 127.688 1149.73 125.884 1148.31 124.715C1146.9 123.546 1144.8 122.961 1142.01 122.961ZM1139.33 139.019C1138.06 138.117 1137 136.927 1136.16 135.451C1135.34 133.974 1134.93 132.518 1134.93 131.083C1134.93 129.401 1135.49 128.017 1136.59 126.93C1137.72 125.843 1139.44 125.299 1141.76 125.299C1143.28 125.299 1144.44 125.689 1145.24 126.468C1146.04 127.227 1146.44 128.191 1146.44 129.36C1146.44 131.759 1145.61 133.769 1143.94 135.389C1142.3 137.009 1140.77 138.219 1139.33 139.019ZM1135.33 158.46C1133.59 158.46 1132.22 158.05 1131.24 157.23C1130.28 156.43 1129.79 155.271 1129.79 153.754C1129.79 151.437 1130.54 149.386 1132.04 147.602C1133.56 145.797 1135.45 144.29 1137.73 143.08C1139.47 144.577 1140.73 145.961 1141.48 147.232C1142.26 148.504 1142.65 149.919 1142.65 151.478C1142.65 152.605 1142.31 153.713 1141.64 154.8C1140.96 155.887 1140.06 156.769 1138.93 157.445C1137.8 158.122 1136.6 158.46 1135.33 158.46Z" fill="#D2030F"/>
<path d="M723.708 192.237C723.708 191.12 723.708 190.155 723.708 189.14C723.708 172.992 723.708 156.794 723.708 140.646C723.708 136.482 723.81 132.319 723.504 128.206C722.433 112.718 710.085 103.426 694.931 106.574C685.593 108.504 678.195 113.785 671.664 120.437C671.001 121.097 670.337 121.757 669.113 122.975C669.113 117.39 669.113 112.617 669.113 107.742C663.398 107.742 657.99 107.742 652.53 107.742C652.53 136.025 652.53 164.106 652.53 192.237C658.143 192.237 663.551 192.237 669.215 192.237C669.215 190.968 669.215 189.901 669.215 188.784C669.215 169.844 669.215 150.853 669.266 131.912C669.266 130.846 669.47 129.374 670.184 128.713C676.052 123.28 682.583 118.964 690.645 117.491C697.737 116.222 703.86 119.827 705.748 126.733C706.513 129.475 706.768 132.42 706.768 135.264C706.87 153.29 706.819 171.316 706.819 189.343C706.819 190.307 706.819 191.272 706.819 192.288C712.585 192.237 717.994 192.237 723.708 192.237Z" fill="white"/>
<path d="M506.96 158.418C505.328 161.719 503.95 164.816 502.317 167.761C492.98 184.874 470.376 185.889 459.202 171.468C449.201 158.621 446.854 143.946 451.753 128.561C455.324 117.339 464.713 111.55 476.448 112.21C483.847 112.616 488.03 116.78 488.388 124.092C488.439 124.752 488.439 125.463 488.439 126.123C488.796 131.303 492.367 134.908 497.572 135.314C506.348 136.025 511.91 128.408 508.389 120.436C506.246 115.612 502.368 112.464 497.725 110.331C487.928 105.761 477.622 104.542 467.162 107.031C440.272 113.327 425.016 144.2 436.088 169.589C443.997 187.717 461.906 197.264 481.04 193.506C495.786 190.612 508.695 176.749 511.654 160.399C510.124 159.688 508.593 159.078 506.96 158.418Z" fill="white"/>
<path d="M298.986 105.812C293.68 104.695 289.802 107.894 285.363 109.163C282.965 109.874 282.199 111.093 282.199 113.682C282.301 145.571 282.301 177.511 282.25 209.399C282.25 212.649 282.046 216.051 281.179 219.149C279.342 225.75 272.199 227.375 267.402 222.399C265.464 220.368 263.831 218.083 261.892 216.102C259.188 213.309 253.116 213.563 250.31 216.458C247.758 218.997 247.758 223.77 250.82 226.512C252.759 228.238 255.31 229.66 257.81 230.371C264.29 232.25 270.974 231.437 277.556 230.574C287.863 229.203 294.445 223.363 296.792 213.309C297.915 208.587 298.833 203.661 298.884 198.787C299.088 168.32 299.037 137.853 299.088 107.386C299.088 106.878 299.037 106.421 298.986 105.812Z" fill="white"/>
<path d="M781.059 107.64C781.059 97.7894 781.059 88.2939 781.059 78.7983C779.273 78.7983 777.742 78.7983 776.262 78.7983C776.007 80.0678 775.854 81.1849 775.548 82.2005C773.66 87.9384 772.231 93.9303 769.578 99.3635C766.364 106.016 760.496 109.672 752.944 110.332C751.873 110.433 750.801 110.586 749.73 110.738C749.73 112.109 749.73 113.328 749.73 114.8C754.628 114.8 759.373 114.8 764.323 114.8C764.323 116.07 764.323 117.034 764.323 118.05C764.323 137.092 764.272 156.134 764.374 175.176C764.476 189.393 771.874 195.791 786.008 193.913C793.917 192.846 799.733 188.581 803.815 181.675C802.336 180.66 801.111 179.796 799.784 178.933C799.223 179.441 798.713 179.898 798.254 180.355C794.835 183.452 790.957 184.773 786.518 182.843C782.232 180.964 781.11 177.308 781.11 172.84C781.212 154.458 781.161 136.127 781.161 117.745C781.161 116.78 781.161 115.816 781.161 114.597C787.743 114.597 793.917 114.597 800.09 114.597C800.09 112.21 800.09 110.027 800.09 107.691C793.764 107.64 787.641 107.64 781.059 107.64Z" fill="white"/>
<path fill-rule="evenodd" clip-rule="evenodd" d="M218.319 79.2044C218.319 77.8842 218.319 77.0209 218.319 76.1069C218.319 63.0569 218.37 50.0577 218.268 37.0076C218.268 35.2304 218.676 34.2656 220.513 33.7071C223.166 32.8438 225.666 31.5236 228.32 30.7111C229.952 30.2034 231.789 30.051 233.524 30.0002C234.034 30.0002 234.698 30.8635 235.004 31.422C235.259 31.879 235.055 32.5899 235.055 33.1993C235.055 74.3805 235.055 115.562 235.055 156.743C235.055 160.043 235.055 160.043 231.789 160.043C227.401 160.043 223.013 160.043 218.319 160.043C218.319 156.641 218.319 153.595 218.319 149.989C217.146 150.751 216.431 151.259 215.666 151.767C206.941 157.352 197.603 160.754 187.041 159.84C177.194 158.977 169.54 153.95 163.826 146.232C141.579 116.425 159.642 80.0676 189.133 72.7048C199.134 70.2167 208.523 71.283 216.737 78.1888C217.095 78.4935 217.503 78.6966 218.319 79.2044ZM218.319 120.081C218.319 113.378 218.421 106.726 218.268 100.024C217.962 87.1766 207.859 77.3256 195.613 77.935C188.623 78.2904 183.521 82.0988 179.643 87.5828C175.102 93.9809 173.112 101.293 172.704 109.011C172.143 120.284 174.337 130.897 181.021 140.291C184.337 144.962 188.572 148.618 194.236 150.142C202.859 152.427 210.104 149.329 216.482 143.794C217.452 142.931 218.166 141.255 218.217 139.935C218.421 133.283 218.319 126.682 218.319 120.081Z" fill="#D2030F"/>
<path fill-rule="evenodd" clip-rule="evenodd" d="M132.701 192.186C126.68 192.186 121.068 192.136 115.455 192.237C113.822 192.288 113.516 191.272 113.006 190.206C108.057 179.441 103.056 168.727 98.209 157.911C97.3926 156.134 96.5252 155.372 94.4843 155.423C80.3507 155.525 66.2681 155.525 52.1346 155.423C50.2467 155.423 49.2772 155.982 48.5119 157.708C43.4095 168.625 38.2051 179.441 33.1027 190.308C32.4394 191.729 31.674 192.339 30.0413 192.237C27.7962 192.085 25.5002 192.186 23 192.186C23.4592 191.069 23.8164 190.257 24.1735 189.444C41.1645 153.595 58.1043 117.796 75.0442 81.9468C75.8096 80.2711 76.677 79.5602 78.6159 79.5602C80.4527 79.5602 81.065 80.4234 81.7283 81.8452C98.3111 117.745 114.894 153.646 131.528 189.597C131.885 190.358 132.191 191.12 132.701 192.186ZM73.5645 104.797C66.5233 119.573 59.7881 133.791 52.9509 148.314C66.6763 148.314 79.9425 148.314 93.6679 148.314C86.9328 133.791 80.4017 119.573 73.5645 104.797Z" fill="#D2030F"/>
<path fill-rule="evenodd" clip-rule="evenodd" d="M723.71 192.237C717.995 192.237 712.587 192.237 706.77 192.237C706.77 191.272 706.77 190.307 706.77 189.291C706.77 171.265 706.821 153.239 706.719 135.213C706.719 132.369 706.464 129.424 705.699 126.682C703.76 119.776 697.637 116.12 690.596 117.44C682.534 118.913 676.003 123.229 670.135 128.662C669.421 129.322 669.217 130.795 669.217 131.861C669.166 150.801 669.166 169.793 669.166 188.733C669.166 189.799 669.166 190.916 669.166 192.186C663.553 192.186 658.093 192.186 652.481 192.186C652.481 164.105 652.481 135.974 652.481 107.691C657.991 107.691 663.349 107.691 669.063 107.691C669.063 112.565 669.063 117.339 669.063 122.924C670.288 121.706 670.951 121.045 671.615 120.385C678.146 113.733 685.544 108.503 694.882 106.523C710.036 103.375 722.332 112.667 723.455 128.154C723.761 132.267 723.659 136.431 723.659 140.595C723.659 156.743 723.659 172.941 723.659 189.088C723.71 190.155 723.71 191.119 723.71 192.237Z" fill="#D2030F"/>
<path fill-rule="evenodd" clip-rule="evenodd" d="M398.178 192.237C392.565 192.237 387.106 192.237 381.289 192.237C381.289 188.53 381.289 184.975 381.289 180.812C378.687 182.843 376.595 184.518 374.503 186.194C368.686 190.713 362.257 193.658 354.757 194.217C344.807 194.979 336.541 190.967 332.663 183.249C328.479 174.972 329.908 164.918 336.235 157.707C340.113 153.29 345.011 150.294 350.215 147.704C359.349 143.236 369.145 140.697 378.891 138.158C380.677 137.701 381.493 136.99 381.289 135.111C380.728 130.541 380.728 125.819 379.605 121.35C378.023 115.206 373.482 111.956 367.104 111.601C364.604 111.448 361.951 111.499 359.502 112.058C354.246 113.175 351.389 116.729 350.93 122.01C350.777 123.889 350.726 125.717 350.471 127.596C349.858 132.978 347.001 135.67 342.103 135.568C337.562 135.467 334.041 131.912 333.582 127.088C333.173 122.62 334.653 118.659 338.021 115.968C341.337 113.327 345.062 110.839 348.991 109.265C359.094 105.203 369.706 104.796 380.319 107.081C392.82 109.773 398.229 116.577 398.229 129.272C398.28 149.481 398.229 169.742 398.229 189.952C398.331 190.663 398.229 191.373 398.178 192.237ZM381.34 142.626C376.033 144.81 371.237 146.587 366.543 148.72C360.471 151.512 354.859 154.965 350.522 160.145C346.491 165.02 346.185 170.351 349.042 175.785C351.848 181.116 356.134 184.315 362.563 183.858C369.86 183.35 375.319 179.085 380.779 174.972C381.085 174.718 381.289 174.058 381.289 173.601C381.34 163.547 381.34 153.493 381.34 142.626Z" fill="#D2030F"/>
<path fill-rule="evenodd" clip-rule="evenodd" d="M619.162 141.61C597.119 141.61 576.149 141.61 554.872 141.61C555.382 156.133 558.749 168.98 571.505 177.511C577.067 181.217 583.394 182.131 589.823 180.963C601.967 178.78 611.1 172.433 616.202 160.754C616.967 161.058 617.733 161.312 618.498 161.668C619.161 161.972 619.825 162.328 620.692 162.785C620.284 164.054 619.978 165.273 619.468 166.39C612.375 182.182 600.589 192.084 583.037 194.064C562.882 196.349 542.32 180.557 539.411 160.551C537.166 145.165 540.075 130.795 550.637 118.811C569.464 97.4332 605.691 103.07 615.947 128.865C617.529 132.724 618.039 136.989 619.162 141.61ZM555.229 134.603C569.311 134.603 583.241 134.603 597.17 134.603C597.885 123.076 587.986 112.464 576.404 112.159C565.383 111.803 555.127 122.568 555.229 134.603Z" fill="#D2030F"/>
<path fill-rule="evenodd" clip-rule="evenodd" d="M506.96 158.418C508.593 159.078 510.124 159.688 511.654 160.297C508.695 176.648 495.837 190.51 481.04 193.404C461.957 197.162 443.997 187.616 436.088 169.488C425.016 144.149 440.272 113.276 467.162 106.929C477.672 104.492 487.928 105.66 497.725 110.23C502.368 112.413 506.246 115.511 508.389 120.334C511.909 128.307 506.297 135.923 497.572 135.212C492.367 134.806 488.796 131.201 488.439 126.022C488.387 125.362 488.387 124.651 488.387 123.99C488.03 116.678 483.846 112.515 476.448 112.108C464.712 111.448 455.324 117.237 451.752 128.459C446.854 143.896 449.201 158.52 459.202 171.367C470.427 185.788 492.98 184.823 502.317 167.66C503.95 164.816 505.327 161.719 506.96 158.418Z" fill="#D2030F"/>
<path fill-rule="evenodd" clip-rule="evenodd" d="M298.986 105.812C299.037 106.422 299.088 106.879 299.088 107.386C299.037 137.853 299.088 168.32 298.884 198.787C298.833 203.662 297.915 208.587 296.792 213.31C294.394 223.364 287.863 229.203 277.556 230.574C270.974 231.438 264.29 232.25 257.81 230.371C255.31 229.66 252.759 228.239 250.82 226.512C247.758 223.77 247.758 218.997 250.31 216.458C253.167 213.564 259.188 213.31 261.892 216.103C263.831 218.083 265.515 220.368 267.403 222.399C272.148 227.325 279.342 225.751 281.179 219.149C282.046 216.052 282.25 212.65 282.25 209.4C282.301 177.511 282.352 145.572 282.199 113.683C282.199 111.093 282.965 109.874 285.363 109.164C289.751 107.894 293.68 104.746 298.986 105.812Z" fill="#D2030F"/>
<path fill-rule="evenodd" clip-rule="evenodd" d="M781.061 107.64C787.643 107.64 793.765 107.64 800.041 107.64C800.041 109.976 800.041 112.108 800.041 114.546C793.919 114.546 787.745 114.546 781.112 114.546C781.112 115.764 781.112 116.729 781.112 117.694C781.112 136.076 781.163 154.407 781.061 172.788C781.061 177.257 782.183 180.913 786.469 182.792C790.857 184.721 794.735 183.401 798.205 180.304C798.715 179.847 799.225 179.39 799.735 178.882C801.062 179.796 802.286 180.659 803.766 181.624C799.684 188.53 793.868 192.795 785.959 193.861C771.825 195.74 764.427 189.393 764.325 175.124C764.223 156.082 764.274 137.041 764.274 117.999C764.274 116.983 764.274 116.018 764.274 114.749C759.324 114.749 754.63 114.749 749.681 114.749C749.681 113.276 749.681 112.108 749.681 110.687C750.752 110.534 751.824 110.382 752.895 110.28C760.447 109.62 766.315 106.015 769.529 99.3123C772.131 93.879 773.56 87.8872 775.499 82.1492C775.856 81.1336 775.958 80.0165 776.213 78.7471C777.693 78.7471 779.173 78.7471 781.01 78.7471C781.061 88.2426 781.061 97.7889 781.061 107.64Z" fill="#D2030F"/>
</svg>
