<svg width="500" height="42" viewBox="0 0 500 42" fill="none" xmlns="http://www.w3.org/2000/svg">
<rect width="99.2063" height="8.4" transform="matrix(-1 0 0 1 297.619 16.8)" fill="#D2030F"/>
<rect width="99.2063" height="8.4" transform="matrix(-1 0 0 1 198.413 8.39999)" fill="#D2030F"/>
<rect width="99.2063" height="8.4" transform="matrix(-1 0 0 1 198.413 25.2)" fill="#D2030F"/>
<rect width="99.2063" height="8.4" transform="matrix(-1 0 0 1 99.2061 33.6)" fill="#D2030F"/>
<rect width="99.2063" height="8.4" transform="matrix(-1 0 0 1 99.2061 0)" fill="#D2030F"/>
<rect width="99.2063" height="8.4" transform="matrix(1 2.93741e-08 1.04075e-06 -1 202.381 25.2)" fill="#D2030F"/>
<rect width="99.2063" height="8.4" transform="matrix(1 2.93741e-08 1.04075e-06 -1 301.587 33.6)" fill="#D2030F"/>
<rect width="99.2063" height="8.4" transform="matrix(1 2.93741e-08 1.04075e-06 -1 301.587 16.8)" fill="#D2030F"/>
<rect width="99.2063" height="8.4" transform="matrix(1 2.93741e-08 1.04075e-06 -1 400.794 8.39999)" fill="#D2030F"/>
<rect width="99.2063" height="8.4" transform="matrix(1 2.93741e-08 1.04075e-06 -1 400.794 42)" fill="#D2030F"/>
</svg>
