<svg width="272" height="34" viewBox="0 0 272 34" fill="none" xmlns="http://www.w3.org/2000/svg">
<path d="M136 5.55102L136 0L0 -5.94475e-06L-2.42643e-07 5.55101L136 5.55102Z" fill="#D2030F"/>
<path d="M136 16.6536L136 11.1025L0 11.1025L-2.42643e-07 16.6536L136 16.6536Z" fill="#D2030F"/>
<path d="M136 27.7551L136 22.2041L0 22.2041L-2.42643e-07 27.7551L136 27.7551Z" fill="#D2030F"/>
<path d="M272 11.1018L272 5.55078L136 5.55078L136 11.1018L272 11.1018Z" fill="#D2030F"/>
<path d="M272 22.2043L272 16.6533L136 16.6533L136 22.2043L272 22.2043Z" fill="#D2030F"/>
<path d="M272 33.3059L272 27.7549L136 27.7549L136 33.3059L272 33.3059Z" fill="#D2030F"/>
</svg>
