<svg width="500" height="49" viewBox="0 0 500 49" fill="none" xmlns="http://www.w3.org/2000/svg">
<rect width="83.3276" height="8.4" transform="matrix(-1 0 0 1 249.996 0)" fill="#D2030F"/>
<rect width="83.3276" height="8.4" transform="matrix(-1 0 0 1 500 8)" fill="#D2030F"/>
<rect width="83.3276" height="8.4" transform="matrix(-1 0 0 1 166.66 0)" fill="#D2030F"/>
<rect width="83.3276" height="8.4" transform="matrix(-1 0 0 1 416.672 8)" fill="#D2030F"/>
<rect width="83.3276" height="8.4" transform="matrix(-1 0 0 1 83.3281 0)" fill="#D2030F"/>
<rect width="83.3276" height="8.4" transform="matrix(-1 0 0 1 333.328 8)" fill="#D2030F"/>
<rect width="83.3276" height="8.4" transform="matrix(-1 0 0 1 249.996 16)" fill="#D2030F"/>
<rect width="83.3276" height="8.4" transform="matrix(-1 0 0 1 500 24)" fill="#D2030F"/>
<rect width="83.3276" height="8.4" transform="matrix(-1 0 0 1 166.66 16)" fill="#D2030F"/>
<rect width="83.3276" height="8.4" transform="matrix(-1 0 0 1 416.672 24)" fill="#D2030F"/>
<rect width="83.3276" height="8.4" transform="matrix(-1 0 0 1 83.3281 16)" fill="#D2030F"/>
<rect width="83.3276" height="8.4" transform="matrix(-1 0 0 1 333.328 24)" fill="#D2030F"/>
<rect width="83.3276" height="8.4" transform="matrix(-1 0 0 1 249.996 32)" fill="#D2030F"/>
<rect width="83.3276" height="8.4" transform="matrix(-1 0 0 1 500 40)" fill="#D2030F"/>
<rect width="83.3276" height="8.4" transform="matrix(-1 0 0 1 166.66 32)" fill="#D2030F"/>
<rect width="83.3276" height="8.4" transform="matrix(-1 0 0 1 416.672 40)" fill="#D2030F"/>
<rect width="83.3276" height="8.4" transform="matrix(-1 0 0 1 83.3281 32)" fill="#D2030F"/>
<rect width="83.3276" height="8.4" transform="matrix(-1 0 0 1 333.328 40)" fill="#D2030F"/>
</svg>
