<svg width="88" height="42" viewBox="0 0 88 42" fill="none" xmlns="http://www.w3.org/2000/svg">
<rect width="16.6667" height="8.4" transform="matrix(1 1.74846e-07 1.74846e-07 -1 38 25.2)" fill="#D2030F"/>
<rect width="16.6667" height="8.4" transform="matrix(1 1.74846e-07 1.74846e-07 -1 54.667 33.6)" fill="#D2030F"/>
<rect width="16.6667" height="8.4" transform="matrix(1 1.74846e-07 1.74846e-07 -1 54.667 16.8)" fill="#D2030F"/>
<rect width="16.6667" height="8.4" transform="matrix(1 1.74846e-07 1.74846e-07 -1 71.333 8.40002)" fill="#D2030F"/>
<rect width="16.6667" height="8.4" transform="matrix(1 1.74846e-07 1.74846e-07 -1 71.333 42)" fill="#D2030F"/>
<rect width="16.6667" height="8.4" transform="matrix(-1 -8.74228e-08 -8.74228e-08 1 50 16.8)" fill="#D2030F"/>
<rect width="16.6667" height="8.4" transform="matrix(-1 -8.74228e-08 -8.74228e-08 1 33.333 8.40002)" fill="#D2030F"/>
<rect width="16.6667" height="8.4" transform="matrix(-1 -8.74228e-08 -8.74228e-08 1 33.333 25.2)" fill="#D2030F"/>
<rect width="16.6667" height="8.4" transform="matrix(-1 -8.74228e-08 -8.74228e-08 1 16.667 33.6)" fill="#D2030F"/>
<rect width="16.6667" height="8.4" transform="matrix(-1 -8.74228e-08 -8.74228e-08 1 16.667 0)" fill="#D2030F"/>
</svg>
