<svg width="36" height="16" viewBox="0 0 36 16" fill="none" xmlns="http://www.w3.org/2000/svg">
<rect width="7.24886" height="3.65342" transform="matrix(-1 0 0 1 35.3887 0)" fill="#D2030F"/>
<rect width="7.24886" height="3.65342" transform="matrix(-1 0 0 1 28.2485 3)" fill="#D2030F"/>
<rect width="7.24886" height="3.65342" transform="matrix(-1 0 0 1 21.2485 6)" fill="#D2030F"/>
<rect width="7.24886" height="3.65342" transform="matrix(-1 0 0 1 14.2485 9)" fill="#D2030F"/>
<rect width="7.24886" height="3.65342" transform="matrix(-1 0 0 1 7.24902 12)" fill="#D2030F"/>
<rect width="7.24886" height="3.65342" transform="matrix(1 8.74228e-08 8.74228e-08 -1 -0.000488281 3.65332)" fill="#D2030F"/>
<rect width="7.24886" height="3.65342" transform="matrix(1 8.74228e-08 8.74228e-08 -1 7.13965 6.65332)" fill="#D2030F"/>
<rect width="7.24886" height="3.65342" transform="matrix(1 8.74228e-08 8.74228e-08 -1 21.1396 12.6533)" fill="#D2030F"/>
<rect width="7.24886" height="3.65342" transform="matrix(1 8.74228e-08 8.74228e-08 -1 28.1392 16)" fill="#D2030F"/>
</svg>
