<svg width="1440" height="1080" viewBox="0 0 1440 1080" fill="none" xmlns="http://www.w3.org/2000/svg">
<rect width="1440" height="1080" fill="#DFDFDF"/>
<path fill-rule="evenodd" clip-rule="evenodd" d="M720 1074H382V1002H480.195C480.195 1015.2 490.995 1026 504.195 1026C517.395 1026 528.195 1015.2 528.195 1002H720V1074ZM720 794V866H382V794H720ZM720 474V754H719.984V474H720ZM720 186H575.977V202H567.977V226H575.977V242H720V330H679.977C679.977 316.8 669.177 306 655.977 306C642.777 306 631.977 316.8 631.977 330H567.977V322H551.977V314H535.977V306H527.977V298H519.977V290H511.977V274H503.977V250H495.977V226H503.977V202H511.977V186H519.977V178H527.977V170H535.977V162H551.977V154H575.977V146H720V186ZM631.977 330C631.977 343.2 642.777 354 655.977 354C669.177 354 679.977 343.2 679.977 330H631.977ZM720 394V434H559.977V426H543.977V418H535.977V410H527.977V402H519.977V386H511.977V354H575.977V394H720ZM382 906V962H712.195V906H382ZM528.195 1002C528.195 988.8 517.395 978 504.195 978C490.995 978 480.195 988.8 480.195 1002H528.195ZM382 765.384V746H391.891C391.891 753.938 387.985 761.008 382 765.384ZM382 726.616C387.985 730.992 391.891 738.062 391.891 746H519.891V754H591.891V746H615.891V738H631.891V730H647.891V722H655.891V714H663.891V706H671.891V690H679.891V674H687.891V650H695.891V578H687.891V554H679.891V538H671.891V522H663.891V514H655.891V506H647.891V498H631.891V490H615.891V482H591.891V474H519.891V482H382V538H511.891V522H519.891V514H535.891V506H575.891V514H591.891V522H599.891V538H607.891V562H615.891V666H607.891V690H599.891V706H591.891V714H575.891V722H535.891V714H519.891V706H511.891V690H382V726.616ZM382 434V385.262C392.373 382.616 400.102 373.167 400.102 362H480.102V434H382ZM382 362H400.102C400.102 350.833 392.373 341.384 382 338.738V362ZM382 226H480.102V154H382V226Z" fill="white"/>
<path fill-rule="evenodd" clip-rule="evenodd" d="M193 723V443H378V483H287.062V475H263.063V571H287.062V563H378V611H279.063V603H263.063V691H279.063V683H367.062C367.062 691.392 371.428 698.814 378 703.108V723H193ZM193 1043V763H263.039V779H271.039V803H279.039V827H287.039V851H295.039V875H343.039C343.039 888.2 353.839 899 367.039 899C370.981 899 374.71 898.037 378 896.334V971H295.039V947H287.039V923H279.039V899H271.039V875H263.039V851H255.039V827H247.039V811H239.039V1043H193ZM378 875H343.039C343.039 861.8 353.839 851 367.039 851C370.981 851 374.71 851.963 378 853.666V875ZM378 683H367.062C367.062 674.608 371.428 667.186 378 662.892V683ZM378 355H375.023V363H367.023V371H359.023V379H343.023V387H327.023V395H303.023V403H193V363H303.023V355H311.023V339H319.023V315H327.023V211H319.023V187H311.023V171H303.023V163H263.023C263.023 149.8 252.223 139 239.023 139C225.823 139 215.023 149.8 215.023 163H193V123H303.023V131H327.023V139H343.023V147H359.023V155H367.023V163H375.023V171H378V355ZM215.023 163C215.023 176.2 225.823 187 239.023 187C252.223 187 263.023 176.2 263.023 163H215.023Z" fill="white"/>
<path fill-rule="evenodd" clip-rule="evenodd" d="M724 621V373H732.875V381H740.875V389H748.875V397H756.875V413H764.875V429H772.875V453H780.875V541H772.875V565H764.875V581H756.875V597H748.875V605H740.875V613H732.875V621H724ZM1054 677V749H1033.1V677H1054ZM1054 461V533H1052.97V557H1044.97V573H1036.97V589H1028.97V597H1020.97V605H1012.97V613H996.969V621H980.969V629H956.969V637H804.969V357H956.969V365H980.969V373H996.969V381H1012.97V389H1020.97V397H1028.97V405H1036.97V421H1044.97V437H1052.97V461H1054ZM1054 240.959V281.041C1050.21 283.541 1045.69 285 1040.84 285V237C1045.69 237 1050.21 238.459 1054 240.959ZM1054 101H1048.84V85H1040.84V237C1027.64 237 1016.84 247.8 1016.84 261C1016.84 274.2 1027.64 285 1040.84 285V317H968.836V37H1054V101ZM724 957V885H745.195V957H724ZM724 749V677H745.195V749H724ZM936.992 317H728.992V37H936.992V109H760.992V149H824.992C824.992 162.2 835.792 173 848.992 173C862.192 173 872.992 162.2 872.992 149H904.992V205H760.992V245H936.992V317ZM824.992 149H872.992C872.992 135.8 862.192 125 848.992 125C835.792 125 824.992 135.8 824.992 149ZM972.969 549H980.969V445H972.969V421H964.969V405H956.969V397H940.969V389H876.969V421C863.769 421 852.969 431.8 852.969 445C852.969 458.2 863.769 469 876.969 469V605H940.969V597H956.969V589H964.969V573H972.969V549ZM876.969 469C890.169 469 900.969 458.2 900.969 445C900.969 431.8 890.169 421 876.969 421V469ZM937.039 677H1009.04V957H921.039V941H913.039V917H905.039V893H897.039V869H889.039V845H881.039V821H873.039V797H865.039V773H857.039V749H849.039V957H777.039V677H865.039V701H873.039V725H881.039V749H889.039V773H897.039V797H905.039V821H913.039V845H921.039V869H929.039V893H937.039V749C950.239 749 961.039 738.2 961.039 725C961.039 711.8 950.239 701 937.039 701V677ZM937.039 701C923.839 701 913.039 711.8 913.039 725C913.039 738.2 923.839 749 937.039 749V701Z" fill="white"/>
<path fill-rule="evenodd" clip-rule="evenodd" d="M1058 459V179H1137.82V195H1145.82V219H1153.82V243H1161.82V267H1169.82V291H1217.82C1217.82 304.2 1228.62 315 1241.82 315C1255.02 315 1265.82 304.2 1265.82 291H1377.82V315H1385.82V339H1393.82V363H1401.82V387H1409.82V363H1417.82V339H1425.82V315H1433.82V291H1436V459H1393.82V435H1385.82V411H1377.82V387H1169.82V363H1161.82V339H1153.82V315H1145.82V291H1137.82V267H1129.82V243H1121.82V227H1113.82V459H1058ZM1058 571V499H1330.06V571H1122.06V707H1202.06C1202.06 720.2 1212.86 731 1226.06 731C1239.26 731 1250.06 720.2 1250.06 707H1330.06V779H1058V707H1090.06V571H1058ZM1058 891V819H1242.1C1242.1 832.2 1252.9 843 1266.1 843C1279.3 843 1290.1 832.2 1290.1 819H1362.1V891H1154.1V1080H1122.1V891H1058ZM1290.1 819C1290.1 805.8 1279.3 795 1266.1 795C1252.9 795 1242.1 805.8 1242.1 819H1290.1ZM1250.06 707C1250.06 693.8 1239.26 683 1226.06 683C1212.86 683 1202.06 693.8 1202.06 707H1250.06ZM1265.82 291C1265.82 277.8 1255.02 267 1241.82 267C1228.62 267 1217.82 277.8 1217.82 291H1265.82Z" fill="white"/>
<path fill-rule="evenodd" clip-rule="evenodd" d="M189 724V1004H177.039V724H189ZM189 84V364H145.008V84H189Z" fill="white"/>
</svg>
