<svg width="1440" height="1080" viewBox="0 0 1440 1080" fill="none" xmlns="http://www.w3.org/2000/svg">
<rect width="1440" height="1080" fill="#DFDFDF"/>
<path fill-rule="evenodd" clip-rule="evenodd" d="M720 621V373H732.875V381H740.875V389H748.875V397H756.875V413H764.875V429H772.875V453H780.875V541H772.875V565H764.875V581H756.875V597H748.875V605H740.875V613H732.875V621H720ZM720 957H745.195V885H720V957ZM720 749V677H745.195V749H720ZM936.992 317H728.992V37H936.992V109H760.992V149H824.992C824.992 162.2 835.792 173 848.992 173C862.192 173 872.992 162.2 872.992 149H904.992V205H760.992V245H936.992V317ZM824.992 149H872.992C872.992 135.8 862.192 125 848.992 125C835.792 125 824.992 135.8 824.992 149ZM1296.84 37V317H1264.84V85H1256.84V101H1248.84V125H1240.84V149H1232.84V173H1224.84V197H1216.84V221H1208.84V245H1200.84V269H1192.84V293H1184.84V317H1120.84V293H1112.84V269H1104.84V245H1096.84V221H1088.84V197H1080.84V173H1072.84V149H1064.84V125H1056.84V101H1048.84V85H1040.84V237C1027.64 237 1016.84 247.8 1016.84 261C1016.84 274.2 1027.64 285 1040.84 285V317H968.836V37H1064.84V53H1072.84V77H1080.84V101H1088.84V125H1096.84V149H1104.84V173H1112.84V197H1120.84V221H1128.84V245H1136.84V221H1144.84V197H1152.84V173H1160.84V149H1168.84V125H1176.84V101H1184.84V77H1192.84V53H1200.84V37H1296.84ZM1040.84 285V237C1054.04 237 1064.84 247.8 1064.84 261C1064.84 274.2 1054.04 285 1040.84 285ZM1052.97 437V461H1060.97V533H1052.97V557H1044.97V573H1036.97V589H1028.97V597H1020.97V605H1012.97V613H996.969V621H980.969V629H956.969V637H804.969V357H956.969V365H980.969V373H996.969V381H1012.97V389H1020.97V397H1028.97V405H1036.97V421H1044.97V437H1052.97ZM972.969 549H980.969V445H972.969V421H964.969V405H956.969V397H940.969V389H876.969V421C863.769 421 852.969 431.8 852.969 445C852.969 458.2 863.769 469 876.969 469V605H940.969V597H956.969V589H964.969V573H972.969V549ZM876.969 421C890.169 421 900.969 431.8 900.969 445C900.969 458.2 890.169 469 876.969 469V421ZM1085.05 461V357H1157.05V637H1085.05V509C1098.25 509 1109.05 498.2 1109.05 485C1109.05 471.8 1098.25 461 1085.05 461ZM1085.05 461C1071.85 461 1061.05 471.8 1061.05 485C1061.05 498.2 1071.85 509 1085.05 509V461ZM937.039 677H1009.04V957H921.039V941H913.039V917H905.039V893H897.039V869H889.039V845H881.039V821H873.039V797H865.039V773H857.039V749H849.039V957H777.039V677H865.039V701H873.039V725H881.039V749H889.039V773H897.039V797H905.039V821H913.039V845H921.039V869H929.039V893H937.039V749C950.239 749 961.039 738.2 961.039 725C961.039 711.8 950.239 701 937.039 701V677ZM937.039 701C923.839 701 913.039 711.8 913.039 725C913.039 738.2 923.839 749 937.039 749V701ZM1033.1 749V677H1273.1V749H1249.1C1249.1 735.8 1238.3 725 1225.1 725C1211.9 725 1201.1 735.8 1201.1 749H1169.1V957H1137.1V749H1033.1ZM1201.1 749C1201.1 762.2 1211.9 773 1225.1 773C1238.3 773 1249.1 762.2 1249.1 749H1201.1Z" fill="white"/>
<path fill-rule="evenodd" clip-rule="evenodd" d="M716 932V1004H537.195V724H716V796H569.195V836H633.195C633.195 849.2 643.995 860 657.195 860C670.395 860 681.195 849.2 681.195 836H713.195V892H569.195V932H716ZM681.195 836C681.195 822.8 670.395 812 657.195 812C643.995 812 633.195 822.8 633.195 836H681.195ZM716 412V676H700.875V684H676.875V692H604.875V684H580.875V676H564.875V668H548.875V660H540.875V652H532.875V644H524.875V628H516.875V612H508.875V588H500.875V500H508.875V476H516.875V460H524.875V444H532.875V436H540.875V428H548.875V420H564.875V412H580.875V404H604.875V396H676.875V404H700.875V412H716ZM393.008 164V188H401.008V260H393.008V284H385.008V300H377.008V316H369.008V324H361.008V332H353.008V340H337.008V348H321.008V356H297.008V364H145.008V84H297.008V92H321.008V100H337.008V108H353.008V116H361.008V124H369.008V132H377.008V148H385.008V164H393.008ZM313.008 276H321.008V172H313.008V148H305.008V132H297.008V124H281.008V116H217.008V148C203.808 148 193.008 158.8 193.008 172C193.008 185.2 203.808 196 217.008 196V332H281.008V324H297.008V316H305.008V300H313.008V276ZM217.008 148C230.208 148 241.008 158.8 241.008 172C241.008 185.2 230.208 196 217.008 196V148ZM425.086 188V84H497.086V364H425.086V236C438.286 236 449.086 225.2 449.086 212C449.086 198.8 438.286 188 425.086 188ZM425.086 188C411.886 188 401.086 198.8 401.086 212C401.086 225.2 411.886 236 425.086 236V188ZM520.992 180H512.992V156H520.992V132H528.992V116H536.992V108H544.992V100H552.992V92H568.992V84H592.992V76H632.992V84H656.992V92H672.992V100H680.992V108H688.992V116H696.992V132H704.992V172H640.992V132H632.992V116H624.992V108H600.992V116H592.992V132H584.992V156H592.992V172H600.992V180H616.992V188H632.992V196H648.992V204H663.142C659.323 208.254 656.992 213.868 656.992 220C656.992 233.2 667.792 244 680.992 244C683.794 244 686.487 243.514 688.992 242.621V244H696.992V268H704.992V292H696.992V316H688.992V332H680.992V340H672.992V348H664.992V356H648.992V364H624.992V372H600.992V364H576.992V356H560.992V348H552.992V340H544.992V332H536.992V316H528.992V284H592.992V324H600.992V340H624.992V324H632.992V292H624.992V276H616.992V268H600.992V260H584.992V252H568.992V244H552.992V236H544.992V228H536.992V220H528.992V204H520.992V180ZM688.992 242.621C698.29 239.308 704.992 230.398 704.992 220C704.992 206.8 694.192 196 680.992 196C673.924 196 667.544 199.097 663.142 204H664.992V212H672.992V220H680.992V228H688.992V242.621ZM285.047 436V404H421.047V412H445.047V420H461.047V428H469.047V436H477.047V452H485.047V508H477.047V524H469.047V532H453.047V540H429.047V548H405.047V564H429.047V572H453.047V580H461.047V588H469.047V604H477.047V636H469.047V652H461.047V660H453.047V668H437.047V676H413.047V684H285.047V484C298.247 484 309.047 473.2 309.047 460C309.047 446.8 298.247 436 285.047 436ZM285.047 436C271.847 436 261.047 446.8 261.047 460C261.047 473.2 271.847 484 285.047 484V436ZM381.047 436H357.047V532H381.047V524H397.047V508H405.047V460H397.047V444H381.047V436ZM373.047 564H357.047V652H373.047V644H389.047V628H397.047V588H389.047V572H373.047V564ZM620.875 652V660H660.875V652H676.875V644H684.875V628H692.875V604H700.875V484H692.875V460H684.875V444H676.875V436H660.875V428H620.875V436H604.875V444H596.875V460H588.875V484H580.875V500C567.675 500 556.875 510.8 556.875 524C556.875 537.2 567.675 548 580.875 548V604H588.875V628H596.875V644H604.875V652H620.875ZM580.875 548V500C594.075 500 604.875 510.8 604.875 524C604.875 537.2 594.075 548 580.875 548ZM505.039 724V1004H473.039V772H465.039V788H457.039V812H449.039V836H441.039V860H433.039V884H425.039V908H417.039V932H409.039V956H401.039V980H393.039V1004H329.039V980H321.039V956H313.039V932H305.039V908H297.039V884H289.039V860H281.039V836H273.039V812H265.039V788H257.039V772H249.039V924C235.839 924 225.039 934.8 225.039 948C225.039 961.2 235.839 972 249.039 972V1004H177.039V724H273.039V740H281.039V764H289.039V788H297.039V812H305.039V836H313.039V860H321.039V884H329.039V908H337.039V932H345.039V908H353.039V884H361.039V860H369.039V836H377.039V812H385.039V788H393.039V764H401.039V740H409.039V724H505.039ZM249.039 972V924C262.239 924 273.039 934.8 273.039 948C273.039 961.2 262.239 972 249.039 972Z" fill="white"/>
</svg>
