<svg width="1440" height="1080" viewBox="0 0 1440 1080" fill="none" xmlns="http://www.w3.org/2000/svg">
<path fill-rule="evenodd" clip-rule="evenodd" d="M1058 571V499H1244V571H1202.46V707H1244V779H1058V707H1170.46V571H1058ZM1058 891V819H1244V891H1238.6V1080H1206.6V891H1058ZM1244 243V339H1238.42V315H1230.42V291H1222.42V267H1214.42V243H1206.42V227H1198.42V459H1126.42V179H1222.42V195H1230.42V219H1238.42V243H1244ZM1058 459V387H1094.58V459H1058ZM1058 347H1062.58V291H1058V347ZM1058 251V179H1094.58V251H1058Z" fill="white"/>
<path fill-rule="evenodd" clip-rule="evenodd" d="M553 362V330H720V362H553ZM553 610V458H556.289V474H564.289V498H572.289V570H564.289V594H556.289V610H553ZM720 714V994H656.539V714H720ZM720 394H596.383V674H720V642H668.383V426H720V394ZM553 994V922H624.695V994H553ZM553 882H592.695V826H553V882ZM553 786V714H624.695V786H553ZM720 74V122H553V74H720ZM553 178V250H720V183.231C717.596 193.938 707.983 202 696.578 202C683.378 202 672.578 191.2 672.578 178H720V172.769C717.596 162.062 707.983 154 696.578 154C683.378 154 672.578 164.8 672.578 178H553Z" fill="white"/>
<line x1="722" x2="722" y2="1080" stroke="#D2030F" stroke-width="4"/>
<path fill-rule="evenodd" clip-rule="evenodd" d="M193 723V443H378V483H287.062V475H263.063V571H287.062V563H378V611H279.063V603H263.063V691H279.063V683H367.062C367.062 691.392 371.428 698.814 378 703.108V723H193ZM193 1043V763H263.039V779H271.039V803H279.039V827H287.039V851H295.039V875H343.039C343.039 888.2 353.839 899 367.039 899C370.981 899 374.71 898.037 378 896.334V971H295.039V947H287.039V923H279.039V899H271.039V875H263.039V851H255.039V827H247.039V811H239.039V1043H193ZM378 875H343.039C343.039 861.8 353.839 851 367.039 851C370.981 851 374.71 851.963 378 853.666V875ZM378 683H367.062C367.062 674.608 371.428 667.186 378 662.892V683ZM378 355H375.023V363H367.023V371H359.023V379H343.023V387H327.023V395H303.023V403H193V363H303.023V355H311.023V339H319.023V315H327.023V211H319.023V187H311.023V171H303.023V163H263.023C263.023 149.8 252.223 139 239.023 139C225.823 139 215.023 149.8 215.023 163H193V123H303.023V131H327.023V139H343.023V147H359.023V155H367.023V163H375.023V171H378V355ZM215.023 163C215.023 176.2 225.823 187 239.023 187C252.223 187 263.023 176.2 263.023 163H215.023Z" fill="white"/>
<path fill-rule="evenodd" clip-rule="evenodd" d="M891 1007V727H919.539V1007H891ZM1054 727V799H1047.6C1047.6 785.8 1036.8 775 1023.6 775C1010.4 775 999.602 785.8 999.602 799H943.602V727H1054ZM1054 367H891V295H1054V367ZM1054 199V255H891V199H1054ZM1054 87V159H891V87H1054ZM1054 407V479H1043.46C1043.46 465.8 1032.66 455 1019.46 455C1006.26 455 995.461 465.8 995.461 479H907.461V407H1054ZM995.461 479C995.461 492.2 1006.26 503 1019.46 503C1032.66 503 1043.46 492.2 1043.46 479H995.461ZM1054 615V687H907.461V615H1054ZM999.602 799C999.602 812.2 1010.4 823 1023.6 823C1036.8 823 1047.6 812.2 1047.6 799H999.602Z" fill="white"/>
<path fill-rule="evenodd" clip-rule="evenodd" d="M724 621V373H732.875V381H740.875V389H748.875V397H756.875V413H764.875V429H772.875V453H780.875V541H772.875V565H764.875V581H756.875V597H748.875V605H740.875V613H732.875V621H724ZM887 749V845H881.039V821H873.039V797H865.039V773H857.039V749H849.039V957H777.039V677H865.039V701H873.039V725H881.039V749H887ZM887 357H804.969V637H887V605H876.969V469C880.544 469 883.944 468.208 887 466.79V423.21C883.944 421.792 880.544 421 876.969 421V389H887V357ZM887 245V317H728.992V37H887V109H760.992V149H824.992C824.992 162.2 835.792 173 848.992 173C862.192 173 872.992 162.2 872.992 149H887V205H760.992V245H887ZM872.992 149C872.992 135.8 862.192 125 848.992 125C835.792 125 824.992 135.8 824.992 149H872.992ZM876.969 421V469C863.769 469 852.969 458.2 852.969 445C852.969 431.8 863.769 421 876.969 421ZM724 957V885H745.195V957H724ZM724 749V677H745.195V749H724Z" fill="white"/>
<path fill-rule="evenodd" clip-rule="evenodd" d="M1440 459.001H1393.82V435.001H1385.82V411.001H1377.82V387.001H1248V314.189C1258.23 311.445 1265.82 302.066 1265.82 291.001H1377.82V315.001H1385.82V339.001H1393.82V363.001H1401.82V387.001H1409.82V363.001H1417.82V339.001H1425.82V315.001H1433.82V291.001H1440V459.001ZM1248 291.001V267.812C1258.23 270.556 1265.82 279.935 1265.82 291.001H1248ZM1248 891.001V834.716C1252.41 839.784 1258.9 843.001 1266.1 843.001C1279.3 843.001 1290.1 832.201 1290.1 819.001H1362.1V891.001H1248ZM1248 819.001V803.285C1252.41 798.217 1258.9 795.001 1266.1 795.001C1279.3 795.001 1290.1 805.801 1290.1 819.001H1248ZM1248 779.001V716.707C1249.33 713.736 1250.06 710.45 1250.06 707.001H1330.06V779.001H1248ZM1248 707.001H1250.06C1250.06 703.551 1249.33 700.266 1248 697.294V707.001ZM1248 571.001H1330.06V499.001H1248V571.001Z" fill="white"/>
<path fill-rule="evenodd" clip-rule="evenodd" d="M549 1074H382V1002H480.195C480.195 1015.2 490.995 1026 504.195 1026C517.395 1026 528.195 1015.2 528.195 1002H549V1074ZM549 906V962H382V906H549ZM549 794V866H382V794H549ZM549 474H519.891V482H382V538H511.891V522H519.891V514H535.891V506H549V474ZM549 162H535.977V170H527.977V178H519.977V186H511.977V202H503.977V226H495.977V250H503.977V274H511.977V290H519.977V298H527.977V306H535.977V314H549V162ZM549 354V426H543.977V418H535.977V410H527.977V402H519.977V386H511.977V354H549ZM549 722V754H519.891V746H391.891C391.891 738.062 387.985 730.992 382 726.616V690H511.891V706H519.891V714H535.891V722H549ZM382 746H391.891C391.891 753.938 387.985 761.008 382 765.384V746ZM528.195 1002C528.195 988.8 517.395 978 504.195 978C490.995 978 480.195 988.8 480.195 1002H528.195ZM382 434V385.262C392.373 382.616 400.102 373.167 400.102 362H480.102V434H382ZM382 362H400.102C400.102 350.833 392.373 341.384 382 338.738V362ZM382 226H480.102V154H382V226Z" fill="white"/>
<path fill-rule="evenodd" clip-rule="evenodd" d="M189 724V1004H177.039V724H189ZM189 84V364H145.008V84H189Z" fill="white"/>
<line x1="1438" y1="8.74228e-08" x2="1438" y2="1080" stroke="#D2030F" stroke-width="4"/>
<path d="M1436 0V-4H1432V0H1436ZM1436 0H1440V-4H1436V0ZM1436 1080V1084H1440V1080H1436ZM1436 1080H1432V1084H1436V1080ZM1436 4H1436V-4H1436V4ZM1432 0V1080H1440V0H1432ZM1436 1076H1436V1084H1436V1076ZM1440 1080V0H1432V1080H1440Z" fill="#D2030F"/>
<line x1="380" y1="8.74228e-08" x2="380" y2="1080" stroke="#D2030F" stroke-width="4"/>
<path d="M378 0V-4H374V0H378ZM378 0H382V-4H378V0ZM378 1080V1084H382V1080H378ZM378 1080H374V1084H378V1080ZM378 4H378V-4H378V4ZM374 0V1080H382V0H374ZM378 1076H378V1084H378V1076ZM382 1080V0H374V1080H382Z" fill="#D2030F"/>
<line x1="2" y1="8.74228e-08" x2="1.99995" y2="1080" stroke="#D2030F" stroke-width="4"/>
<path d="M0 0V-4H-4V0H0ZM5.03992e-05 0H4.00005V-4H5.03992e-05V0ZM5.03992e-05 1080V1084H4.00005V1080H5.03992e-05ZM0 1080H-4V1084H0V1080ZM0 4H5.03992e-05V-4H0V4ZM-3.99995 0V1080H4.00005V0H-3.99995ZM5.03992e-05 1076H0V1084H5.03992e-05V1076ZM4 1080V0H-4V1080H4Z" fill="#D2030F"/>
<line x1="191" y1="8.74228e-08" x2="191" y2="1080" stroke="#D2030F" stroke-width="4"/>
<path d="M189 0V-4H185V0H189ZM189 0H193V-4H189V0ZM189 1080V1084H193V1080H189ZM189 1080H185V1084H189V1080ZM189 4H189V-4H189V4ZM185 0V1080H193V0H185ZM189 1076H189V1084H189V1076ZM193 1080V0H185V1080H193Z" fill="#D2030F"/>
<line x1="551" y1="8.74228e-08" x2="551" y2="1080" stroke="#D2030F" stroke-width="4"/>
<path d="M549 0V-4H545V0H549ZM549 0H553V-4H549V0ZM549 1080V1084H553V1080H549ZM549 1080H545V1084H549V1080ZM549 4H549V-4H549V4ZM545 0V1080H553V0H545ZM549 1076H549V1084H549V1076ZM553 1080V0H545V1080H553Z" fill="#D2030F"/>
<line x1="889" y1="8.74228e-08" x2="889" y2="1080" stroke="#D2030F" stroke-width="4"/>
<path d="M887 0V-4H883V0H887ZM887 0H891V-4H887V0ZM887 1080V1084H891V1080H887ZM887 1080H883V1084H887V1080ZM887 4H887V-4H887V4ZM883 0V1080H891V0H883ZM887 1076H887V1084H887V1076ZM891 1080V0H883V1080H891Z" fill="#D2030F"/>
<line x1="1247" y1="8.74228e-08" x2="1247" y2="1080" stroke="#D2030F" stroke-width="4"/>
<path d="M1245 0V-4H1241V0H1245ZM1245 0H1249V-4H1245V0ZM1245 1080V1084H1249V1080H1245ZM1245 1080H1241V1084H1245V1080ZM1245 4H1245V-4H1245V4ZM1241 0V1080H1249V0H1241ZM1245 1076H1245V1084H1245V1076ZM1249 1080V0H1241V1080H1249Z" fill="#D2030F"/>
<line x1="1056" y1="8.74228e-08" x2="1056" y2="1080" stroke="#D2030F" stroke-width="4"/>
<path d="M1054 0V-4H1050V0H1054ZM1054 0H1058V-4H1054V0ZM1054 1080V1084H1058V1080H1054ZM1054 1080H1050V1084H1054V1080ZM1054 4H1054V-4H1054V4ZM1050 0V1080H1058V0H1050ZM1054 1076H1054V1084H1054V1076ZM1058 1080V0H1050V1080H1058Z" fill="#D2030F"/>
</svg>
