<svg width="1440" height="1080" viewBox="0 0 1440 1080" fill="none" xmlns="http://www.w3.org/2000/svg">
<path fill-rule="evenodd" clip-rule="evenodd" d="M1058 459V179H1137.82V195H1145.82V219H1153.82V243H1161.82V267H1169.82V291H1217.82C1217.82 304.2 1228.62 315 1241.82 315C1255.02 315 1265.82 304.2 1265.82 291H1377.82V315H1385.82V339H1393.82V363H1401.82V387H1409.82V363H1417.82V339H1425.82V315H1433.82V291H1440V459H1393.82V435H1385.82V411H1377.82V387H1169.82V363H1161.82V339H1153.82V315H1145.82V291H1137.82V267H1129.82V243H1121.82V227H1113.82V459H1058ZM1058 571V499H1330.06V571H1122.06V707H1202.06C1202.06 720.2 1212.86 731 1226.06 731C1239.26 731 1250.06 720.2 1250.06 707H1330.06V779H1058V707H1090.06V571H1058ZM1058 891V819H1242.1C1242.1 832.2 1252.9 843 1266.1 843C1279.3 843 1290.1 832.2 1290.1 819H1362.1V891H1154.1V1080H1122.1V891H1058ZM1290.1 819C1290.1 805.8 1279.3 795 1266.1 795C1252.9 795 1242.1 805.8 1242.1 819H1290.1ZM1250.06 707C1250.06 693.8 1239.26 683 1226.06 683C1212.86 683 1202.06 693.8 1202.06 707H1250.06ZM1265.82 291C1265.82 277.8 1255.02 267 1241.82 267C1228.62 267 1217.82 277.8 1217.82 291H1265.82Z" fill="white"/>
<path fill-rule="evenodd" clip-rule="evenodd" d="M720 1074H382V1002H480.195C480.195 1015.2 490.995 1026 504.195 1026C517.395 1026 528.195 1015.2 528.195 1002H720V1074ZM720 794V866H382V794H720ZM720 474V754H719.984V474H720ZM720 186H575.977V202H567.977V226H575.977V242H720V330H679.977C679.977 316.8 669.177 306 655.977 306C642.777 306 631.977 316.8 631.977 330H567.977V322H551.977V314H535.977V306H527.977V298H519.977V290H511.977V274H503.977V250H495.977V226H503.977V202H511.977V186H519.977V178H527.977V170H535.977V162H551.977V154H575.977V146H720V186ZM631.977 330C631.977 343.2 642.777 354 655.977 354C669.177 354 679.977 343.2 679.977 330H631.977ZM720 394V434H559.977V426H543.977V418H535.977V410H527.977V402H519.977V386H511.977V354H575.977V394H720ZM382 906V962H712.195V906H382ZM528.195 1002C528.195 988.8 517.395 978 504.195 978C490.995 978 480.195 988.8 480.195 1002H528.195ZM382 765.384V746H391.891C391.891 753.938 387.985 761.008 382 765.384ZM382 726.616C387.985 730.992 391.891 738.062 391.891 746H519.891V754H591.891V746H615.891V738H631.891V730H647.891V722H655.891V714H663.891V706H671.891V690H679.891V674H687.891V650H695.891V578H687.891V554H679.891V538H671.891V522H663.891V514H655.891V506H647.891V498H631.891V490H615.891V482H591.891V474H519.891V482H382V538H511.891V522H519.891V514H535.891V506H575.891V514H591.891V522H599.891V538H607.891V562H615.891V666H607.891V690H599.891V706H591.891V714H575.891V722H535.891V714H519.891V706H511.891V690H382V726.616ZM382 434V385.262C392.373 382.616 400.102 373.167 400.102 362H480.102V434H382ZM382 362H400.102C400.102 350.833 392.373 341.384 382 338.738V362ZM382 226H480.102V154H382V226Z" fill="white"/>
<line x1="722" x2="722" y2="1080" stroke="#D2030F" stroke-width="4"/>
<path fill-rule="evenodd" clip-rule="evenodd" d="M724 621V373H732.875V381H740.875V389H748.875V397H756.875V413H764.875V429H772.875V453H780.875V541H772.875V565H764.875V581H756.875V597H748.875V605H740.875V613H732.875V621H724ZM1054 677V749H1033.1V677H1054ZM1054 461V533H1052.97V557H1044.97V573H1036.97V589H1028.97V597H1020.97V605H1012.97V613H996.969V621H980.969V629H956.969V637H804.969V357H956.969V365H980.969V373H996.969V381H1012.97V389H1020.97V397H1028.97V405H1036.97V421H1044.97V437H1052.97V461H1054ZM1054 240.959V281.041C1050.21 283.541 1045.69 285 1040.84 285V237C1045.69 237 1050.21 238.459 1054 240.959ZM1054 101H1048.84V85H1040.84V237C1027.64 237 1016.84 247.8 1016.84 261C1016.84 274.2 1027.64 285 1040.84 285V317H968.836V37H1054V101ZM724 957V885H745.195V957H724ZM724 749V677H745.195V749H724ZM936.992 317H728.992V37H936.992V109H760.992V149H824.992C824.992 162.2 835.792 173 848.992 173C862.192 173 872.992 162.2 872.992 149H904.992V205H760.992V245H936.992V317ZM824.992 149H872.992C872.992 135.8 862.192 125 848.992 125C835.792 125 824.992 135.8 824.992 149ZM972.969 549H980.969V445H972.969V421H964.969V405H956.969V397H940.969V389H876.969V421C863.769 421 852.969 431.8 852.969 445C852.969 458.2 863.769 469 876.969 469V605H940.969V597H956.969V589H964.969V573H972.969V549ZM876.969 469C890.169 469 900.969 458.2 900.969 445C900.969 431.8 890.169 421 876.969 421V469ZM937.039 677H1009.04V957H921.039V941H913.039V917H905.039V893H897.039V869H889.039V845H881.039V821H873.039V797H865.039V773H857.039V749H849.039V957H777.039V677H865.039V701H873.039V725H881.039V749H889.039V773H897.039V797H905.039V821H913.039V845H921.039V869H929.039V893H937.039V749C950.239 749 961.039 738.2 961.039 725C961.039 711.8 950.239 701 937.039 701V677ZM937.039 701C923.839 701 913.039 711.8 913.039 725C913.039 738.2 923.839 749 937.039 749V701Z" fill="white"/>
<path fill-rule="evenodd" clip-rule="evenodd" d="M378 812V1004H329.039V980H321.039V956H313.039V932H305.039V908H297.039V884H289.039V860H281.039V836H273.039V812H265.039V788H257.039V772H249.039V924C235.839 924 225.039 934.8 225.039 948C225.039 961.2 235.839 972 249.039 972V1004H177.039V724H273.039V740H281.039V764H289.039V788H297.039V812H305.039V836H313.039V860H321.039V884H329.039V908H337.039V932H345.039V908H353.039V884H361.039V860H369.039V836H377.039V812H378ZM378 148V300H377.008V316H369.008V324H361.008V332H353.008V340H337.008V348H321.008V356H297.008V364H145.008V84H297.008V92H321.008V100H337.008V108H353.008V116H361.008V124H369.008V132H377.008V148H378ZM378 404V436H357.047V532H378V572H373.047V564H357.047V652H373.047V644H378V684H285.047V484C298.247 484 309.047 473.2 309.047 460C309.047 446.8 298.247 436 285.047 436V404H378ZM285.047 436C271.847 436 261.047 446.8 261.047 460C261.047 473.2 271.847 484 285.047 484V436ZM249.039 972V924C262.239 924 273.039 934.8 273.039 948C273.039 961.2 262.239 972 249.039 972ZM313.008 276H321.008V172H313.008V148H305.008V132H297.008V124H281.008V116H217.008V148C203.808 148 193.008 158.8 193.008 172C193.008 185.2 203.808 196 217.008 196V332H281.008V324H297.008V316H305.008V300H313.008V276ZM217.008 196C230.208 196 241.008 185.2 241.008 172C241.008 158.8 230.208 148 217.008 148V196Z" fill="white"/>
<line x1="380" y1="8.74228e-08" x2="380" y2="1080" stroke="#D2030F" stroke-width="4"/>
<path d="M378 0V-4H374V0H378ZM378 0H382V-4H378V0ZM378 1080V1084H382V1080H378ZM378 1080H374V1084H378V1080ZM378 4H378V-4H378V4ZM374 0V1080H382V0H374ZM378 1076H378V1084H378V1076ZM382 1080V0H374V1080H382Z" fill="#D2030F"/>
<line x1="1056" y1="8.74228e-08" x2="1056" y2="1080" stroke="#D2030F" stroke-width="4"/>
<path d="M1054 0V-4H1050V0H1054ZM1054 0H1058V-4H1054V0ZM1054 1080V1084H1058V1080H1054ZM1054 1080H1050V1084H1054V1080ZM1054 4H1054V-4H1054V4ZM1050 0V1080H1058V0H1050ZM1054 1076H1054V1084H1054V1076ZM1058 1080V0H1050V1080H1058Z" fill="#D2030F"/>
<line x1="2" y1="8.74228e-08" x2="1.99995" y2="1080" stroke="#D2030F" stroke-width="4"/>
<path d="M0 0V-4H-4V0H0ZM5.03992e-05 0H4.00005V-4H5.03992e-05V0ZM5.03992e-05 1080V1084H4.00005V1080H5.03992e-05ZM0 1080H-4V1084H0V1080ZM0 4H5.03992e-05V-4H0V4ZM-3.99995 0V1080H4.00005V0H-3.99995ZM5.03992e-05 1076H0V1084H5.03992e-05V1076ZM4 1080V0H-4V1080H4Z" fill="#D2030F"/>
<line x1="1438" y1="8.74228e-08" x2="1438" y2="1080" stroke="#D2030F" stroke-width="4"/>
<path d="M1436 0V-4H1432V0H1436ZM1436 0H1440V-4H1436V0ZM1436 1080V1084H1440V1080H1436ZM1436 1080H1432V1084H1436V1080ZM1436 4H1436V-4H1436V4ZM1432 0V1080H1440V0H1432ZM1436 1076H1436V1084H1436V1076ZM1440 1080V0H1432V1080H1440Z" fill="#D2030F"/>
</svg>
