<svg width="1440" height="1080" viewBox="0 0 1440 1080" fill="none" xmlns="http://www.w3.org/2000/svg">
<path fill-rule="evenodd" clip-rule="evenodd" d="M720 621V373H731.875V381H739.875V389H747.875V397H755.875V413H763.875V429H771.875V453H779.875V541H771.875V565H763.875V581H755.875V597H747.875V605H739.875V613H731.875V621H720ZM720 957H744.195V885H720V957ZM720 749V677H744.195V749H720ZM935.992 317H727.992V37H935.992V109H759.992V149H823.992C823.992 162.2 834.792 173 847.992 173C861.192 173 871.992 162.2 871.992 149H903.992V205H759.992V245H935.992V317ZM823.992 149H871.992C871.992 135.8 861.192 125 847.992 125C834.792 125 823.992 135.8 823.992 149ZM1295.84 37V317H1263.84V85H1255.84V101H1247.84V125H1239.84V149H1231.84V173H1223.84V197H1215.84V221H1207.84V245H1199.84V269H1191.84V293H1183.84V317H1119.84V293H1111.84V269H1103.84V245H1095.84V221H1087.84V197H1079.84V173H1071.84V149H1063.84V125H1055.84V101H1047.84V85H1039.84V237C1026.64 237 1015.84 247.8 1015.84 261C1015.84 274.2 1026.64 285 1039.84 285V317H967.836V37H1063.84V53H1071.84V77H1079.84V101H1087.84V125H1095.84V149H1103.84V173H1111.84V197H1119.84V221H1127.84V245H1135.84V221H1143.84V197H1151.84V173H1159.84V149H1167.84V125H1175.84V101H1183.84V77H1191.84V53H1199.84V37H1295.84ZM1039.84 285V237C1053.04 237 1063.84 247.8 1063.84 261C1063.84 274.2 1053.04 285 1039.84 285ZM1051.97 437V461H1059.97V533H1051.97V557H1043.97V573H1035.97V589H1027.97V597H1019.97V605H1011.97V613H995.969V621H979.969V629H955.969V637H803.969V357H955.969V365H979.969V373H995.969V381H1011.97V389H1019.97V397H1027.97V405H1035.97V421H1043.97V437H1051.97ZM971.969 549H979.969V445H971.969V421H963.969V405H955.969V397H939.969V389H875.969V421C862.769 421 851.969 431.8 851.969 445C851.969 458.2 862.769 469 875.969 469V605H939.969V597H955.969V589H963.969V573H971.969V549ZM875.969 421C889.169 421 899.969 431.8 899.969 445C899.969 458.2 889.169 469 875.969 469V421ZM1084.05 461V357H1156.05V637H1084.05V509C1097.25 509 1108.05 498.2 1108.05 485C1108.05 471.8 1097.25 461 1084.05 461ZM1084.05 461C1070.85 461 1060.05 471.8 1060.05 485C1060.05 498.2 1070.85 509 1084.05 509V461ZM936.039 677H1008.04V957H920.039V941H912.039V917H904.039V893H896.039V869H888.039V845H880.039V821H872.039V797H864.039V773H856.039V749H848.039V957H776.039V677H864.039V701H872.039V725H880.039V749H888.039V773H896.039V797H904.039V821H912.039V845H920.039V869H928.039V893H936.039V749C949.239 749 960.039 738.2 960.039 725C960.039 711.8 949.239 701 936.039 701V677ZM936.039 701C922.839 701 912.039 711.8 912.039 725C912.039 738.2 922.839 749 936.039 749V701ZM1032.1 749V677H1272.1V749H1248.1C1248.1 735.8 1237.3 725 1224.1 725C1210.9 725 1200.1 735.8 1200.1 749H1168.1V957H1136.1V749H1032.1ZM1200.1 749C1200.1 762.2 1210.9 773 1224.1 773C1237.3 773 1248.1 762.2 1248.1 749H1200.1Z" fill="white"/>
<path fill-rule="evenodd" clip-rule="evenodd" d="M716 932V1004H537.195V724H716V796H569.195V836H633.195C633.195 849.2 643.995 860 657.195 860C670.395 860 681.195 849.2 681.195 836H713.195V892H569.195V932H716ZM681.195 836C681.195 822.8 670.395 812 657.195 812C643.995 812 633.195 822.8 633.195 836H681.195ZM716 412V676H700.875V684H676.875V692H604.875V684H580.875V676H564.875V668H548.875V660H540.875V652H532.875V644H524.875V628H516.875V612H508.875V588H500.875V500H508.875V476H516.875V460H524.875V444H532.875V436H540.875V428H548.875V420H564.875V412H580.875V404H604.875V396H676.875V404H700.875V412H716ZM393.008 164V188H401.008V260H393.008V284H385.008V300H377.008V316H369.008V324H361.008V332H353.008V340H337.008V348H321.008V356H297.008V364H145.008V84H297.008V92H321.008V100H337.008V108H353.008V116H361.008V124H369.008V132H377.008V148H385.008V164H393.008ZM313.008 276H321.008V172H313.008V148H305.008V132H297.008V124H281.008V116H217.008V148C203.808 148 193.008 158.8 193.008 172C193.008 185.2 203.808 196 217.008 196V332H281.008V324H297.008V316H305.008V300H313.008V276ZM217.008 148C230.208 148 241.008 158.8 241.008 172C241.008 185.2 230.208 196 217.008 196V148ZM425.086 188V84H497.086V364H425.086V236C438.286 236 449.086 225.2 449.086 212C449.086 198.8 438.286 188 425.086 188ZM425.086 188C411.886 188 401.086 198.8 401.086 212C401.086 225.2 411.886 236 425.086 236V188ZM520.992 180H512.992V156H520.992V132H528.992V116H536.992V108H544.992V100H552.992V92H568.992V84H592.992V76H632.992V84H656.992V92H672.992V100H680.992V108H688.992V116H696.992V132H704.992V172H640.992V132H632.992V116H624.992V108H600.992V116H592.992V132H584.992V156H592.992V172H600.992V180H616.992V188H632.992V196H648.992V204H663.142C659.323 208.254 656.992 213.868 656.992 220C656.992 233.2 667.792 244 680.992 244C683.794 244 686.487 243.514 688.992 242.621V244H696.992V268H704.992V292H696.992V316H688.992V332H680.992V340H672.992V348H664.992V356H648.992V364H624.992V372H600.992V364H576.992V356H560.992V348H552.992V340H544.992V332H536.992V316H528.992V284H592.992V324H600.992V340H624.992V324H632.992V292H624.992V276H616.992V268H600.992V260H584.992V252H568.992V244H552.992V236H544.992V228H536.992V220H528.992V204H520.992V180ZM688.992 242.621C698.29 239.308 704.992 230.398 704.992 220C704.992 206.8 694.192 196 680.992 196C673.924 196 667.544 199.097 663.142 204H664.992V212H672.992V220H680.992V228H688.992V242.621ZM285.047 436V404H421.047V412H445.047V420H461.047V428H469.047V436H477.047V452H485.047V508H477.047V524H469.047V532H453.047V540H429.047V548H405.047V564H429.047V572H453.047V580H461.047V588H469.047V604H477.047V636H469.047V652H461.047V660H453.047V668H437.047V676H413.047V684H285.047V484C298.247 484 309.047 473.2 309.047 460C309.047 446.8 298.247 436 285.047 436ZM285.047 436C271.847 436 261.047 446.8 261.047 460C261.047 473.2 271.847 484 285.047 484V436ZM381.047 436H357.047V532H381.047V524H397.047V508H405.047V460H397.047V444H381.047V436ZM373.047 564H357.047V652H373.047V644H389.047V628H397.047V588H389.047V572H373.047V564ZM620.875 652V660H660.875V652H676.875V644H684.875V628H692.875V604H700.875V484H692.875V460H684.875V444H676.875V436H660.875V428H620.875V436H604.875V444H596.875V460H588.875V484H580.875V500C567.675 500 556.875 510.8 556.875 524C556.875 537.2 567.675 548 580.875 548V604H588.875V628H596.875V644H604.875V652H620.875ZM580.875 548V500C594.075 500 604.875 510.8 604.875 524C604.875 537.2 594.075 548 580.875 548ZM505.039 724V1004H473.039V772H465.039V788H457.039V812H449.039V836H441.039V860H433.039V884H425.039V908H417.039V932H409.039V956H401.039V980H393.039V1004H329.039V980H321.039V956H313.039V932H305.039V908H297.039V884H289.039V860H281.039V836H273.039V812H265.039V788H257.039V772H249.039V924C235.839 924 225.039 934.8 225.039 948C225.039 961.2 235.839 972 249.039 972V1004H177.039V724H273.039V740H281.039V764H289.039V788H297.039V812H305.039V836H313.039V860H321.039V884H329.039V908H337.039V932H345.039V908H353.039V884H361.039V860H369.039V836H377.039V812H385.039V788H393.039V764H401.039V740H409.039V724H505.039ZM249.039 972V924C262.239 924 273.039 934.8 273.039 948C273.039 961.2 262.239 972 249.039 972Z" fill="white"/>
<line x1="722" x2="722" y2="1080" stroke="#D2030F" stroke-width="4"/>
<line x1="2" y1="8.74228e-08" x2="1.99995" y2="1080" stroke="#D2030F" stroke-width="4"/>
<path d="M0 0V-4H-4V0H0ZM5.03992e-05 0H4.00005V-4H5.03992e-05V0ZM5.03992e-05 1080V1084H4.00005V1080H5.03992e-05ZM0 1080H-4V1084H0V1080ZM0 4H5.03992e-05V-4H0V4ZM-3.99995 0V1080H4.00005V0H-3.99995ZM5.03992e-05 1076H0V1084H5.03992e-05V1076ZM4 1080V0H-4V1080H4Z" fill="#D2030F"/>
<line x1="1438" y1="8.74228e-08" x2="1438" y2="1080" stroke="#D2030F" stroke-width="4"/>
<path d="M1436 0V-4H1432V0H1436ZM1436 0H1440V-4H1436V0ZM1436 1080V1084H1440V1080H1436ZM1436 1080H1432V1084H1436V1080ZM1436 4H1436V-4H1436V4ZM1432 0V1080H1440V0H1432ZM1436 1076H1436V1084H1436V1076ZM1440 1080V0H1432V1080H1440Z" fill="#D2030F"/>
</svg>
